/* XPM */
static char * 1up_xpm[] = {
"64 64 5 1",
" 	c #B41E7C",
".	c #FCC2FC",
"+	c #000000",
"@	c #00FF00",
"#	c #800987",
"                ................                ................",
"                ................                ................",
"                ................                ................",
"                ................                ................",
"            ................                ................    ",
"            ................                ................    ",
"            ................                ................    ",
"            ................                ................    ",
"        ................                ................        ",
"        ................                ................        ",
"        ................                ................        ",
"        ................                ................        ",
"    ................                ................            ",
"    ................                ................            ",
"    ................                ................            ",
"    ................                ................            ",
"++++++++++++++++++++++++++++++++++++++++++++++++++++++++++++++++",
"+++++++++++++++++++++++@@+++@@+++@@+@@@@@@++++++++++++++++++++++",
"++++++++++++++++++++++@@@+++@@+++@@+@@+++@@+++++++++++++++++++++",
"+++++++++++++++++++++++@@+++@@+++@@+@@+++@@+++++++++++++++++++++",
"+++++++++++++++++++++++@@+++@@+++@@+@@+++@@+++++++++++++++++++++",
"+++++++++++++++++++++++@@+++@@+++@@+@@@@@@++++++++++++++++++++++",
"+++++++++++++++++++++++@@+++@@+++@@+@@++++++++++++++++++++++++++",
"+++++++++++++++++++++@@@@@@++@@@@@++@@++++++++++++++++++++++++++",
"++++++++++++++++++++++++++++++++++++++++++++++++++++++++++++++++",
"++++++++++++++++++++++++++++++++++++++++++++++++++++++++++++++++",
"++++++++++++++++++++++++++++++++++++++++++++++++++++++++++++++++",
"++++++++++++++++++++++++++++++++++++++++++++++++++++++++++++++++",
"++++++++++++++++++++++++++++++++++++++++++++++++++++++++++++++++",
"++++++++++++++++++++++++++++++++++++++++++++++++++++++++++++++++",
"++++++++++++++++++++++++++++++++++++++++++++++++++++++++++++++++",
"++++++++++++++++++++++++++++++++++++++++++++++++++++++++++++++++",
"++++++++++++++++++++++++++++++++++++++++++++++++++++++++++++++++",
"++++++++++++++++++++++++++++++++++++++++++++++++++++++++++++++++",
"++++++++++++++++++++++++++++++++++++++++++++++++++++++++++++++++",
"++++++++++++++++++++++++++++++++++++++++++++++++++++++++++++++++",
"++++++++++++++++++++++++++++++++++++++++++++++++++++++++++++++++",
"++++++++++++++++++++++++++++++++++++++++++++++++++++++++++++++++",
"++++++++++++++++++++++++++++++++++++++++++++++++++++++++++++++++",
"++++++++++++++++++++++++++++++++++++++++++++++++++++++++++++++++",
"++++++++++++++++++++++++++++++++++++++++++++++++++++++++++++++++",
"++++++++++++++++++++++++++++++++++++++++++++++++++++++++++++++++",
"++++++++++++++++++++++++++++++++++++++++++++++++++++++++++++++++",
"++++++++++++++++++++++++++++++++++++++++++++++++++++++++++++++++",
"++++++++++++++++++++++++++++++++++++++++++++++++++++++++++++++++",
"++++++++++++++++++++++++++++++++++++++++++++++++++++++++++++++++",
"++++++++++++++++++++++++++++++++++++++++++++++++++++++++++++++++",
"++++++++++++++++++++++++++++++++++++++++++++++++++++++++++++++++",
"################################################################",
"################################################################",
"################################################################",
"################################################################",
"################################################################",
"################################################################",
"################################################################",
"################################################################",
"################################################################",
"################################################################",
"################################################################",
"################################################################",
"################################################################",
"################################################################",
"################################################################",
"################################################################"};
