/* XPM */
static char * bottom_right_xpm[] = {
"64 64 185 2",
"  	c None",
". 	c #5A3B27",
"+ 	c #4F2913",
"@ 	c #868579",
"# 	c #94928B",
"$ 	c #5B3C29",
"% 	c #88877B",
"& 	c #5E4532",
"* 	c #8B8A7F",
"= 	c #604734",
"- 	c #624937",
"; 	c #634D3C",
"> 	c #99978F",
", 	c #675544",
"' 	c #675545",
") 	c #918F88",
"! 	c #929088",
"~ 	c #665444",
"{ 	c #86837B",
"] 	c #6D695F",
"^ 	c #6D685F",
"/ 	c #5B4231",
"( 	c #6C685E",
"_ 	c #6C675E",
": 	c #6C665E",
"< 	c #6B665D",
"[ 	c #6A665C",
"} 	c #6A655C",
"| 	c #6B675D",
"1 	c #6B655D",
"2 	c #6B665C",
"3 	c #6A655B",
"4 	c #6A645B",
"5 	c #7E7B73",
"6 	c #6B645C",
"7 	c #69645A",
"8 	c #69635B",
"9 	c #68635A",
"0 	c #686359",
"a 	c #7A776F",
"b 	c #593D2A",
"c 	c #6A645C",
"d 	c #69645B",
"e 	c #6A635B",
"f 	c #69635A",
"g 	c #686259",
"h 	c #53321E",
"i 	c #68625A",
"j 	c #686159",
"k 	c #686158",
"l 	c #79766E",
"m 	c #69625A",
"n 	c #676158",
"o 	c #676157",
"p 	c #76736B",
"q 	c #666057",
"r 	c #676259",
"s 	c #676258",
"t 	c #676058",
"u 	c #676057",
"v 	c #665F56",
"w 	c #726F67",
"x 	c #676159",
"y 	c #666058",
"z 	c #665F57",
"A 	c #655F55",
"B 	c #655E55",
"C 	c #5C5247",
"D 	c #5D5348",
"E 	c #4F311E",
"F 	c #5C5147",
"G 	c #5D5247",
"H 	c #5D5248",
"I 	c #5E5348",
"J 	c #5E5449",
"K 	c #5E544A",
"L 	c #61574A",
"M 	c #61574B",
"N 	c #61584B",
"O 	c #62584B",
"P 	c #5E554A",
"Q 	c #62574B",
"R 	c #62584C",
"S 	c #4F3625",
"T 	c #63584C",
"U 	c #63594D",
"V 	c #5F544A",
"W 	c #5E5349",
"X 	c #5D5449",
"Y 	c #5F554A",
"Z 	c #655C50",
"` 	c #584132",
" .	c #543624",
"..	c #5E5146",
"+.	c #5D4D41",
"@.	c #5F5349",
"#.	c #563D2C",
"$.	c #563B2A",
"%.	c #553726",
"&.	c #553827",
"*.	c #583F30",
"=.	c #543725",
"-.	c #553725",
";.	c #4E2812",
">.	c #63594C",
",.	c #6C675F",
"'.	c #563B2B",
").	c #706C63",
"!.	c #645A4D",
"~.	c #573F30",
"{.	c #5B483B",
"].	c #573C2D",
"^.	c #543523",
"/.	c #5A4739",
"(.	c #5B493C",
"_.	c #5D4D42",
":.	c #5B473A",
"<.	c #655C51",
"[.	c #69645C",
"}.	c #6C685F",
"|.	c #5C4B40",
"1.	c #655C4F",
"2.	c #6A6257",
"3.	c #6B6358",
"4.	c #6D665A",
"5.	c #6D665B",
"6.	c #6E675B",
"7.	c #6E685B",
"8.	c #665F58",
"9.	c #5C4B3F",
"0.	c #512D18",
"a.	c #573B29",
"b.	c #573B28",
"c.	c #573A27",
"d.	c #583F2D",
"e.	c #502C16",
"f.	c #5C493D",
"g.	c #655D51",
"h.	c #665D51",
"i.	c #665E51",
"j.	c #5E4F45",
"k.	c #655C55",
"l.	c #665D52",
"m.	c #675E51",
"n.	c #848278",
"o.	c #655D56",
"p.	c #675E52",
"q.	c #665E52",
"r.	c #675E53",
"s.	c #5E4F44",
"t.	c #675F52",
"u.	c #675F53",
"v.	c #767469",
"w.	c #828077",
"x.	c #685F54",
"y.	c #686054",
"z.	c #5C4B3E",
"A.	c #5D5044",
"B.	c #5D4F43",
"C.	c #5D4E43",
"D.	c #5D4E42",
"E.	c #5C4D41",
"F.	c #543623",
"G.	c #563C2C",
"H.	c #553826",
"I.	c #686155",
"J.	c #828076",
"K.	c #573D2D",
"L.	c #696155",
"M.	c #696156",
"N.	c #696256",
"O.	c #696357",
"P.	c #696257",
"Q.	c #6A6358",
"R.	c #696358",
"S.	c #573E2E",
"T.	c #6B6359",
"U.	c #56321C",
"V.	c #8C8A81",
"W.	c #5E3B25",
"X.	c #655444",
"Y.	c #908E86",
"Z.	c #86847B",
"`.	c #6F6A61",
" +	c #706B63",
". . . . . . . . . . . . . . . .   . . . . . . . . . . . . . . . . . . . . . . . . .   . . . . . . . . . . . + + + @ @ @ @ @ # $ ",
"@ @ @ @ @ @ @ @ @ @ @ @ @ @ % @ & @ @ @ @ @ @ @ @ @ @ @ @ @ @ @ @ @ @ @ @ @ @ @ @ * = * @ @ @ @ @ @ @ @ @ @ @ @ @ @ @ @ @ @ # $ ",
"@ @ @ @ @ @ @ @ @ @ @ @ @ @ @ @ - @ @ @ @ @ @ @ @ @ @ @ @ @ @ @ @ @ @ @ @ @ @ @ @ * ; * @ @ @ @ @ @ @ @ @ @ @ @ @ @ @ @ @ @ > $ ",
"@ @ @ @ @ @ @ @ @ @ @ @ @ @ @ @ , @ @ @ @ @ @ @ @ @ @ @ @ @ @ @ @ @ @ @ @ @ @ @ @ * ' * @ @ @ @ @ @ @ @ @ @ @ @ @ @ @ @ @ @ > $ ",
") ) ) ) ) ) ) ) ) ) ) ! # > > > ~ # > > > # # # # # # # # # # # # # # # # # # > > > , > > > # # # # # # # # # # # # > > > > { + ",
"] ] ] ^ ^ ^ ^ ^ ^ ^ ] ] ] ] ] ^ / ^ ^ ^ ( ^ ^ ^ ^ ^ _ ( ( ( ( ( ( ( ( ( ( ^ ^ ^ ^ ^ / ^ ^ ^ _ ( ( ( ( _ _ : : : < < < [ } } { + ",
"^ ^ ^ ^ ^ ^ ^ ^ ^ ^ ^ ^ ^ ] ^ ^ / ^ ^ ( ( ( ^ ^ ^ ( _ _ _ _ _ _ ( ( ( ( ( ( ( ( ( ( / _ _ _ _ _ _ _ | | < < < < < < 1 } } } { + ",
"^ ^ ^ ^ ^ ^ ^ ^ ( ( ( ( ( ( _ _ / ^ ( ( _ _ ( ( ( _ _ _ _ _ _ _ _ _ _ _ _ _ _ _ | | / _ _ _ _ : : < < < < < < < 2 2 2 3 4 4 5 + ",
"^ ( ( ( ( ( ( ( ( ( ( _ _ _ _ _ / _ _ _ _ _ | | _ _ _ _ _ : < < < < < < < < < < < < / < < < < < < < < < < 1 1 1 6 4 4 4 4 4 5 + ",
"_ _ _ _ _ _ _ _ _ _ _ | | | | | / < < < < < < < < < < < < < < < < < < < < < < < < < / < 1 1 1 1 1 } } } } 3 3 4 7 8 8 8 8 9 5 + ",
"| < < < < < < < < < < < < < < < / < < < < < 1 1 } } } } [ [ [ [ [ } } 1 1 1 1 1 1 1 / } } } } } } } } } } 3 4 8 8 8 9 0 0 0 a + ",
"} } } } } } } } } } } } 1 1 1 1 b 1 1 } c c c c c c c c } } } } } d d d d d d d } } / } } } } } } } } } 3 e 8 8 8 f 0 0 g g a + ",
"} } } } } } } } } } } } } } c } h d d d d d d d d d d d d d d d d d d d d d d d } d h } } } } d d d d 7 f f i i g j j j k k l + ",
"d d c d d d d d d d d d d d d d h 8 8 8 8 8 8 d d d d d d d d d d d d 8 d d d d d 8 h d d d 8 8 8 8 8 m m i i g j j k k n o p + ",
"8 8 8 8 8 8 8 8 8 8 8 8 8 8 9 9 h 9 9 9 9 9 9 9 9 9 9 9 9 9 8 8 8 8 8 8 8 8 8 8 8 8 h 8 8 8 8 8 8 8 f m i i g g j k o o q q p + ",
"r r r r r r r i r i i i 9 9 9 i h i i i i i i i i i 9 9 i 9 9 9 9 9 9 9 9 9 9 8 8 8 h 8 8 8 8 8 8 8 0 g r r s t u u q v v v w + ",
"x x x x x x x x x x x x x x x x h x x x x x x x x x x x x x x x x x r r r r r r i r h i i i i i i i g j x x n t u q q v v v w + ",
"x x x x x x x x x x x x x x x x + x x x x x x x x x x x x x x x x x x x x x x x x x h x x x x x x x n t y y q z v v A A B B +   ",
"+ + + + + + + + + + + + + + + + C + + + + + + + + + + + + + + + + + + + + + + + + + D + + + + + + + + + + + + + + + + + + +     ",
"C C C C C C C C C C C C C C C C C C C C C C C E F F C G G G G H H H H H H H D D D D D D I J J K K K K K + L M N N O N O O +     ",
"C C C C C C C C C C C C C C C C C C C C C C C E C C G G G G G H H H H D H H D D D D D D I J J K K K K P + Q O O R R O O O +     ",
"C C C C C C C C C C C C C C C C C C C C C C C S C C G G G G G H H H H D D H D D D D D D I J J K K K K K + O T T T U U O O +     ",
"C C C C C C C C C C C C C C C C C C C C C C C S C C C G G G G H H H H D D D D D D D D D I J J K K K K K + T R U R R O O O +     ",
"C C C C C C C C C C C C C C C C C C C C C C C S C C C G G G G H H H H D D D D D D D D D I J J K K K K V + U R U R U O O O +     ",
"C C C C C C C C C C C C C C C C C C C C C C C S F F C G G G G G H H H H D D D D D D D D W J X K K K K Y + L M N N O O O Z +     ",
"x x x x x x x x x x x x x x x x x x x x x x x ` x x x x x x x x x x x x x x x x x x x x x x x x x x x x + Q O O R O O O Z +     ",
"x x x x x x x x x x x x x x x x x x x x x x x  .x x x x x x x x x x x x x x x x x x x x x x x x x x x x + O T T T U U Z Z +     ",
"..........+.+.+.......@.@.@.@.@.@.@.@.` ` #.$.%.&.*.@.@.@.@.@.@.@.@.@.` ` =.-.` ` ` ` @.@.@.@.` ` ` ;.;.>.T R U R R >.Z Z +     ",
"^ ^ ^ ^ ^ ^ +.,.,.,.,.,.,.,.,.,.,.,.,.,.,.,.,.,.,.,.,.,.,.,.,.,.,.,.,.,.,.,. .,.,.,.,.,.,.,.,.,.,.,.,.,.+ U R U R U Z Z Z +     ",
"x x x x x x +.x x x x x x x x x x x x x x x x x x x x x x x x x x x x x x x '.x x x x x x x x x x x x ).+ U R >.>.>.Z Z Z +     ",
"x x x x x x +.x x x x x x x x x x x x x x x x x x x x x x x x x x x x x x x ` x x x x x x x x x x x x ).+ !.>.>.>.Z Z Z Z +     ",
"x x x x x x +.x x x x x x x x x x x x x x x x x x x x x x x x x x x x x x x @.x x x x x x x x x x x x ).+ >.>.>.>.Z Z Z Z +     ",
"x x x x x x +.x x x x x x x x x x x x x x x x x x x x x x x x x x x x x x x @.x x x x x x x x x x x x ).+ >.>.>.Z Z Z Z Z +     ",
"x x x x x x +.x x x x x x x x x x x x x x x x x x x x x x x x x x x x x x x @.x x x x x x x x x x x x ).+ >.>.>.Z Z Z Z Z +     ",
"x x x x x x ` x x x x x x x x x x x x x x x x x x x x x x x x x x x x x x x @.x x x x x x x x x x x x ).+ >.>.Z Z Z Z Z Z +     ",
"x x x x x x ~.x x x x x x x x x x x x x x x x x x x x x x x x x x x x x x x @.x x x x x x x x x x x x ).+ >.>.Z Z Z Z Z Z +     ",
"{.{.{.].]. .^.%.].@.@.@.@.@.@.@.@.@.@.@./.{.(._.(.(.:.@.@.@.@.@.@.@.@.@.@.@.@.@.@.@.@.@.@.@.@.` ` ` ;.;.<.>.Z Z Z Z Z Z Z +     ",
"[.[.[.[.[.[.[.[.[.[.[.[.[.[.[.[.}.}.}.}.}.,._ |.,.,.,.,.,.,.,.,.,.,.,.,.,.,.,.,.,.,.,.,.,.,.,.,.,.,.,.).+ 1.2.2.3.4.5.6.7.+     ",
"8.8.8.8.8.8.8.8.8.8.8.8.8.8.8.8.8.8.8.8.8.8.8.9.8.8.8.8.8.8.8.8.8.8.8.8.8.8.8.8.8.8.8.8.8.8.8.8.8.8.8.).0.a.b.c.c.c.c.a.d.e.    ",
"8.8.8.8.8.8.8.8.8.8.8.8.8.8.8.8.8.8.8.8.8.8.8.f.8.8.8.8.8.8.8.8.8.8.8.8.8.8.8.8.8.8.8.8.8.8.8.8.8.8.8.).+ g.g.h.h.i.i.g.g.+     ",
"8.8.8.8.8.8.8.8.8.8.8.8.8.8.8.8.8.8.8.8.8.8.8.j.k.8.8.8.8.8.8.8.8.8.8.8.8.8.8.8.8.8.8.8.8.8.8.8.8.8.8.).+ h.g.g.h.h.l.m.n.+     ",
"8.8.8.8.8.8.8.8.8.8.8.8.8.8.8.8.8.8.8.8.8.8.8.j.o.8.8.8.8.8.8.8.8.8.8.8.8.8.8.8.8.8.8.8.8.8.8.8.8.8.8.).+ p.q.q.q.q.p.r.n.+     ",
"8.8.8.8.8.8.8.8.8.8.8.8.8.8.8.8.8.8.8.8.8.8.8.s.8.8.8.8.8.8.8.8.8.8.8.8.8.8.8.8.8.8.8.8.8.8.8.8.8.8.8.).+ r.t.u.u.u.u.v.n.+     ",
"8.8.8.8.8.8.8.8.8.8.8.8.8.8.8.8.8.8.8.8.8.8.8.^.8.8.8.8.8.8.8.8.8.8.8.8.8.8.8.8.8.8.8.8.8.8.8.8.8.8.8.).+ u.u.u.u.u.u.v.w.+     ",
"8.8.8.o.8.8.8.8.8.8.8.8.8.8.8.8.8.8.8.8.8.8.8.^.8.8.8.8.8.8.8.8.8.8.8.8.8.8.8.8.8.8.8.8.8.8.8.8.8.8.8.).+ u.x.y.y.u.v.v.w.+     ",
"@.@.@.z.z.(.z.z.A.A.A.A.B.C.D.D.D.D.D._.^.^.^.^.^.^.E.E.E.E.E.E.E.E._.@.` ` F.G.` @.@.@.@.@.@.@.` ` ;.;.y.y.y.y.y.y.v.v.w.+     ",
",.,.,.,.,.,.z.,.,.,.,.,.,.,.,.,.,.,.,.,.,.,.,.,.,.,.,.,.,.,.,.,.,.,.,.,.,.,.H.,.,.,.,.,.,.,.,.,.,.,.,.).+ I.y.y.y.v.v.v.J.+     ",
"8.8.8.8.8.8.z.8.8.8.8.8.8.8.8.8.8.8.8.8.8.8.8.8.8.8.8.8.8.8.8.8.8.8.8.8.8.8.K.8.8.8.8.8.8.8.8.8.8.8.8.).+ L.L.M.M.v.v.v.J.+     ",
"8.8.8.8.8.8.z.8.8.8.8.8.8.8.8.8.8.8.8.8.8.8.8.8.8.8.8.8.8.8.8.8.8.8.8.8.8.8.@.8.8.8.8.8.8.8.8.8.8.8.8.).+ N.M.M.v.v.v.v.J.+     ",
"8.8.8.8.8.8...8.8.8.8.8.8.8.8.8.8.8.8.8.8.8.8.8.8.8.8.8.8.8.8.8.8.8.8.8.8.8.@.8.8.8.8.8.8.8.8.8.8.8.8.).+ O.P.N.v.v.v.v.J.+     ",
"8.8.8.8.8.8.@.8.8.8.8.8.8.8.8.8.8.8.8.8.8.8.8.8.8.8.8.8.8.8.8.8.8.8.8.8.8.8.@.8.8.8.8.8.8.8.8.8.8.8.8.).+ Q.R.v.v.v.v.v.J.+     ",
"8.8.8.8.8.8.` 8.8.8.8.8.8.8.8.8.8.8.8.8.8.8.8.8.8.8.8.8.8.8.8.8.8.8.8.8.8.8.@.8.8.8.8.8.8.8.8.8.8.8.8.).+ Q.Q.v.v.v.v.v.J.+     ",
"8.8.8.8.8.8.K.8.8.8.8.8.8.8.8.8.8.8.8.8.8.8.8.8.8.8.8.8.8.8.8.8.8.8.8.8.8.8.` 8.8.8.8.8.8.8.8.8.8.8.8.).+ Q.v.v.v.v.v.v.J.+     ",
"8.8.8.8.8.8.S.8.8.8.8.8.8.8.8.8.8.8.8.8.8.8.8.8.8.8.8.8.8.8.8.8.8.8.8.8.8.8.$.8.8.8.8.8.8.8.8.8.8.8.8.).+ T.v.v.v.v.v.v.J.+     ",
"U.U.U.U.U.U.U.U.U.U.U.U.U.U.U.U.8.U.U.U.U.U.U.U.U.U.U.U.U.U.U.U.U.U.U.U.U.U.U.U.U.U.8.U.U.U.U.U.U.U.U.U.v.v.v.v.v.v.v.v.V.+     ",
"v.v.v.v.v.v.v.v.v.v.v.v.v.v.v.v.W.v.v.v.v.v.v.v.v.v.v.v.v.v.v.v.v.v.v.v.v.v.v.v.v.v.U.v.v.v.v.v.v.v.v.v.v.v.v.v.v.v.v.v.V.+     ",
"v.v.v.v.v.v.v.v.v.v.v.v.v.v.v.v.X.v.v.v.v.v.v.v.v.v.v.v.v.v.v.v.v.v.v.v.v.v.v.v.v.v.X.v.v.v.v.v.v.v.v.v.v.v.v.v.v.v.v.v.V.+     ",
"v.v.v.v.v.v.v.v.v.v.v.v.v.v.v.v.X.v.v.v.v.v.v.v.v.v.v.v.v.v.v.v.v.v.v.v.v.v.v.v.v.v.X.v.v.v.v.v.v.v.v.v.v.v.v.v.v.v.v.v.Y.+     ",
"v.v.v.v.v.v.v.v.v.v.v.v.v.v.v.v.X.v.v.v.v.v.v.v.v.v.v.v.v.v.v.v.v.v.v.v.v.v.v.v.v.v.X.v.v.v.v.v.v.v.v.v.v.v.v.v.v.v.v.v.Y.+     ",
"Z.Z.Z.Z.Z.Z.Z.Z.Z.Z.Z.Z.Z.Z.Z.Z.X.Z.Z.Z.Z.Z.Z.Z.Z.Z.Z.Z.Z.Z.Z.Z.Z.Z.Z.Z.Z.Z.Z.Z.Z.Z.X.Z.Z.Z.Z.Z.Z.Z.Z.Z.Z.Z.Z.V.V.Y.Y.Y.Y.+     ",
"q q q q q q q q q q q q q q q q X.q q q q q q q q q q q q q q q q q q q q q q q q q X.q q q q q q q q q q q q q q q q q `.+     ",
"q q q q q q q q q q q q q q q q X.q q q q q q q q q q q q q q q q q q q q q q q q q X.q q q q q q q q q q q q q q q q q `.+     ",
"q q q q q q q q q q q q q q q q + q q q q q q q q q q q q q q q q q q q q q q q q q + q q q q q q q q q q q q q q q q q  ++     ",
"+ + + + + + + + + + + + + + + + + + + + + + + + + + + + + + + + + + + + + + + + + + + + + + + + + + + + + + + + + + + + +       "};
