/* XPM */
static char * bottom_left_xpm[] = {
"64 64 263 2",
"  	c None",
". 	c #56331E",
"+ 	c #94928B",
"@ 	c #868579",
"# 	c #55341F",
"$ 	c #53301A",
"% 	c #54321D",
"& 	c #593B27",
"* 	c #593A26",
"= 	c #5A3B27",
"- 	c #9A9891",
"; 	c #644E3C",
"> 	c #88877B",
", 	c #5E4532",
"' 	c #55321D",
") 	c #675341",
"! 	c #624937",
"~ 	c #695645",
"{ 	c #675544",
"] 	c #4F2913",
"^ 	c #86837B",
"/ 	c #9C9A92",
"( 	c #93928A",
"_ 	c #93918A",
": 	c #939189",
"< 	c #94928A",
"[ 	c #99978F",
"} 	c #675443",
"| 	c #929088",
"1 	c #908E86",
"2 	c #918F87",
"3 	c #918F88",
"4 	c #665444",
"5 	c #4E2812",
"6 	c #6F6B61",
"7 	c #6E6A61",
"8 	c #6E6A60",
"9 	c #6F6A62",
"0 	c #706B62",
"a 	c #706A62",
"b 	c #706B63",
"c 	c #716B63",
"d 	c #716C63",
"e 	c #706D62",
"f 	c #706C62",
"g 	c #5B4230",
"h 	c #6F6A61",
"i 	c #6D695F",
"j 	c #6D685F",
"k 	c #5B4231",
"l 	c #6C685E",
"m 	c #6C675E",
"n 	c #85837B",
"o 	c #6E6960",
"p 	c #6D6A60",
"q 	c #6F6C61",
"r 	c #6F6C62",
"s 	c #5C4332",
"t 	c #848179",
"u 	c #6C665D",
"v 	c #6D675F",
"w 	c #6D6A5F",
"x 	c #807E76",
"y 	c #6A665D",
"z 	c #6B665D",
"A 	c #6B655C",
"B 	c #6C665E",
"C 	c #6D6960",
"D 	c #6B675D",
"E 	c #807D75",
"F 	c #6A645C",
"G 	c #6B645C",
"H 	c #6B655D",
"I 	c #5B4130",
"J 	c #6E6860",
"K 	c #6C685F",
"L 	c #7F7C74",
"M 	c #68645A",
"N 	c #68635A",
"O 	c #69635B",
"P 	c #6A635B",
"Q 	c #6A645B",
"R 	c #6A655C",
"S 	c #6A655D",
"T 	c #6B665E",
"U 	c #5A402E",
"V 	c #6A665C",
"W 	c #686259",
"X 	c #686359",
"Y 	c #69645B",
"Z 	c #69645C",
"` 	c #543421",
" .	c #593D2A",
"..	c #76736B",
"+.	c #676158",
"@.	c #68625A",
"#.	c #69625A",
"$.	c #53321E",
"%.	c #4D2712",
"&.	c #665F56",
"*.	c #666057",
"=.	c #676258",
"-.	c #676259",
";.	c #69635A",
">.	c #4C2611",
",.	c #676159",
"'.	c #686159",
").	c #512E1A",
"!.	c #655F56",
"~.	c #665F57",
"{.	c #666158",
"].	c #4F2B17",
"^.	c #655E55",
"/.	c #666058",
"(.	c #676058",
"_.	c #4D2713",
":.	c #655F55",
"<.	c #4B2511",
"[.	c #5D5349",
"}.	c #5C5247",
"|.	c #7A776C",
"1.	c #6C685C",
"2.	c #6D685C",
"3.	c #5E554C",
"4.	c #5E554B",
"5.	c #5E554A",
"6.	c #5E544A",
"7.	c #5E5349",
"8.	c #5E5449",
"9.	c #4F311E",
"0.	c #5C5147",
"a.	c #5D5247",
"b.	c #5D5248",
"c.	c #5E564C",
"d.	c #5F554C",
"e.	c #5F554B",
"f.	c #5D544A",
"g.	c #4F3625",
"h.	c #5F554A",
"i.	c #6C695D",
"j.	c #4F3626",
"k.	c #502A15",
"l.	c #6D685D",
"m.	c #6D695D",
"n.	c #5F564D",
"o.	c #502C16",
"p.	c #706C63",
"q.	c #655F57",
"r.	c #5A4537",
"s.	c #584132",
"t.	c #512D18",
"u.	c #6E695E",
"v.	c #6E6A5E",
"w.	c #5A4739",
"x.	c #543624",
"y.	c #522E19",
"z.	c #52301C",
"A.	c #52311D",
"B.	c #594435",
"C.	c #5A4436",
"D.	c #5A4536",
"E.	c #5E5146",
"F.	c #5D4D41",
"G.	c #5F5349",
"H.	c #563D2C",
"I.	c #563B2A",
"J.	c #553726",
"K.	c #553827",
"L.	c #583F30",
"M.	c #6D695E",
"N.	c #6C675F",
"O.	c #522E1A",
"P.	c #522F1A",
"Q.	c #6E6A5F",
"R.	c #6F6A5F",
"S.	c #512E19",
"T.	c #6F6B5F",
"U.	c #6E6B5F",
"V.	c #502D18",
"W.	c #6F6B60",
"X.	c #6F6C60",
"Y.	c #706B60",
"Z.	c #573F30",
"`.	c #706C60",
" +	c #706C61",
".+	c #706D61",
"++	c #512F1B",
"@+	c #52301D",
"#+	c #533320",
"$+	c #5D4D42",
"%+	c #5D4E42",
"&+	c #594537",
"*+	c #573D2E",
"=+	c #563B2B",
"-+	c #5C4C40",
";+	c #5B4A3D",
">+	c #5B493C",
",+	c #5B483B",
"'+	c #573C2D",
")+	c #543523",
"!+	c #5B473A",
"~+	c #6D6860",
"{+	c #6B675E",
"]+	c #543625",
"^+	c #5C4B40",
"/+	c #54321E",
"(+	c #645141",
"_+	c #5F4735",
":+	c #5D4432",
"<+	c #5C4330",
"[+	c #573925",
"}+	c #54331F",
"|+	c #665F58",
"1+	c #5C4B3F",
"2+	c #563521",
"3+	c #838178",
"4+	c #726E62",
"5+	c #5C4A3E",
"6+	c #5C493D",
"7+	c #848278",
"8+	c #716E62",
"9+	c #5E4F45",
"0+	c #655C55",
"a+	c #655D56",
"b+	c #838177",
"c+	c #736F63",
"d+	c #726F63",
"e+	c #5E4F44",
"f+	c #737065",
"g+	c #737064",
"h+	c #747166",
"i+	c #737166",
"j+	c #757266",
"k+	c #747266",
"l+	c #573E2F",
"m+	c #594436",
"n+	c #5C4B3E",
"o+	c #5D5044",
"p+	c #5D4F43",
"q+	c #5D4E43",
"r+	c #5C4D41",
"s+	c #757367",
"t+	c #767368",
"u+	c #757368",
"v+	c #767469",
"w+	c #86847B",
"x+	c #77756A",
"y+	c #78756A",
"z+	c #573D2D",
"A+	c #78766B",
"B+	c #79766B",
"C+	c #79766A",
"D+	c #78766A",
"E+	c #573E2E",
"F+	c #8C8A81",
"G+	c #79776C",
"H+	c #56321C",
"I+	c #5E3B25",
"J+	c #655444",
"K+	c #8E8C84",
"L+	c #8D8B83",
"M+	c #89877E",
"N+	c #87857C",
". + @ @ @ @ @ # $ % & * * * = = = = = = =   = = = = = = = = = = = = = = = = = = = = = = = = = =   = = = = = = = = = = = = = = = ",
". - @ @ @ @ @ @ @ @ @ @ @ @ @ @ @ @ @ @ @ ; @ @ @ @ @ @ @ @ @ @ @ @ @ @ @ @ @ @ @ @ @ @ @ @ > @ , @ @ @ @ @ @ @ @ @ @ @ @ @ @ @ ",
"' - @ @ @ @ @ @ @ @ @ @ @ @ @ @ @ @ @ @ @ ) @ @ @ @ @ @ @ @ @ @ @ @ @ @ @ @ @ @ @ @ @ @ @ @ @ @ ! @ @ @ @ @ @ @ @ @ @ @ @ @ @ @ ",
"' - @ @ @ @ @ @ @ @ @ @ @ @ @ @ @ @ @ @ @ ~ @ @ @ @ @ @ @ @ @ @ @ @ @ @ @ @ @ @ @ @ @ @ @ @ @ @ { @ @ @ @ @ @ @ @ @ @ @ @ @ @ @ ",
"] ^ - / / / / + + ( _ _ : _ _ : : : < [ [ } [ [ [ + | 1 1 1 2 3 3 3 3 3 3 3 3 3 3 3 3 | + [ [ [ 4 + [ [ [ + + + + + + + + + + + ",
"5 ^ 6 7 8 8 8 8 9 0 0 a b c d d d e d d f g 0 0 0 0 0 0 6 h 8 8 i i i j j j j j j j i i i i i j k j j j l j j j j j m l l l l l ",
"5 n o o i i i i p 8 8 o 7 h h h 6 h 6 q r s 6 6 6 6 6 h h 8 o i j j j j j j j j j j j j j i j j k j j l l l j j j l m m m m m m ",
"5 t u l l l v v j j j j i o w 8 8 7 h h h s h h h 8 8 o o o i i j j j j j j j j l l l l l l m m k j l l m m l l l m m m m m m m ",
"5 x y z u A B B m v v v v j j i C o 7 h 8 k o 8 o o o o o o i j j l l l l l l l l l l m m m m m k m m m m m D D m m m m m B z z ",
"5 E F F F G A H z z m B B B m v v j j j j I i o o o C J K l l m m m m m m m m m m m m D D D D D k z z z z z z z z z z z z z z z ",
"5 L M N N O P Q R S y S H H S H T T T B B U m j j v m m l l m m D z z z z z z z z z z z z z z z k z z z z z H H R R R R V V V V ",
"5 L W W X N N P Y F Z F Y Z F F F F H H H ` z B B B B z z z z R R R R R R R R R R R R R H H H H  .H H R F F F F F F F F R R R R ",
"5 ..+.+.W X N @.#.Y Y Y Y O Y Y Y Y Y Y Y $.Y F F R R R R R R R R R R R R R R R R R R R R R F R $.Y Y Y Y Y Y Y Y Y Y Y Y Y Y Y ",
"%...&.*.+.=.-.@.#.#.;.O O O O O O O Y Y Y $.Y Y Y Y Y Y Y Y Y Y Y Y F Y Y Y Y Y Y Y Y Y Y Y Y Y $.O O O O O O Y Y Y Y Y Y Y Y Y ",
">...*.&.*.+.+.,.'.'.@.@.@.@.@.@.@.@.@.@.N ).@.@.@.@.N O O O O O O O O O O O O O O O O O O O N N $.N N N N N N N N N N N N N O O ",
">...!.&.&.~.*.{.+.+.=.-.-.-.-.,.,.,.,.,.,.].,.,.-.,.-.-.-.-.-.,.-.-.-.-.-.-.-.@.-.@.@.@.N N N @.$.@.@.@.@.@.@.@.@.@.N N @.N N N ",
"5 ..^.!.&.&.*.*./.(.+.,.,.,.,.,.,.,.,.,.,._.,.,.,.,.,.,.,.,.,.,.,.,.,.,.,.,.,.,.,.,.,.,.,.,.,.,.$.,.,.,.,.,.,.,.,.,.,.,.,.,.,.,.",
"  ] ^.:.&.&.~.*./.(.+.,.,.,.,.,.,.,.,.,.,.] ,.,.,.,.,.,.,.,.,.,.,.,.,.,.,.,.,.,.,.,.,.,.,.,.,.,.] ,.,.,.,.,.,.,.,.,.,.,.,.,.,.,.",
"    >.<.<.<.<.<.<.<.<.<.<.<.<.<.<.<.<.>.%.[.] ] ] ] ] ] ] ] ] ] ] ] ] ] ] ] ] ] ] ] ] ] ] ] ] ] }.] ] ] ] ] ] ] ] ] ] ] ] ] ] ] ",
"    ] |.1.1.1.1.2.2.2.] 3.4.4.4.5.6.7.6.8.[.[.9.}.}.}.}.}.}.}.}.}.}.}.}.}.}.}.}.}.}.}.}.}.}.}.}.}.}.}.}.}.}.}.9.0.0.}.a.a.a.a.b.",
"    ] |.1.1.1.1.1.1.2.] 3.4.4.4.5.6.6.6.6.[.[.9.[.}.}.}.}.}.}.}.}.}.}.}.}.}.}.}.}.}.}.}.}.}.}.}.}.}.}.}.}.}.}.9.}.}.a.a.a.a.a.b.",
"    ] |.1.1.1.1.1.1.2.] c.d.e.e.5.6.6.6.6.f.[.g.[.}.}.}.}.}.}.}.}.}.}.}.}.}.}.}.}.}.}.}.}.}.}.}.}.}.}.}.}.}.}.g.}.}.a.a.a.a.a.b.",
"    ] |.1.1.1.1.1.1.1.] c.d.e.4.h.6.6.6.6.f.[.g.}.}.}.}.}.}.}.}.}.}.}.}.}.}.}.}.}.}.}.}.}.}.}.}.}.}.}.}.}.}.}.g.}.}.}.a.a.a.a.b.",
"    ] |.1.i.i.i.i.i.i.] c.3.d.e.h.6.6.6.6.f.f.j.[.}.}.}.}.}.}.}.}.}.}.}.}.}.}.}.}.}.}.}.}.}.}.}.}.}.}.}.}.}.}.g.}.}.}.a.a.a.a.b.",
"    k.|.l.l.m.m.m.m.m.] n.n.d.d.e.6.6.6.6.f.f.j.[.}.}.}.}.}.}.}.}.}.}.}.}.}.}.}.}.}.}.}.}.}.}.}.}.}.}.}.}.}.}.g.0.0.}.a.a.a.a.a.",
"    o.|.l.l.l.m.m.m.m.] p.q.q.q.q.q.q.q.q.q.q.r.,.,.,.,.,.,.,.,.,.,.,.,.,.,.,.,.,.,.,.,.,.,.,.,.,.,.,.,.,.,.,.s.,.,.,.,.,.,.,.,.",
"    t.|.m.m.m.l.u.u.v.] p.q.q.q.q.q.q.q.q.q.q.w.,.,.,.,.,.,.,.,.,.,.,.,.,.,.,.,.,.,.,.,.,.,.,.,.,.,.,.,.,.,.,.x.,.,.,.,.,.,.,.,.",
"    y.|.m.m.m.u.u.u.v.v.] z.A.B.B.B.B.B.C.D.D.D.D.E.E.E.E.E.E.E.E.E.E.E.E.F.F.F.E.E.E.G.G.G.G.G.G.G.G.s.s.H.I.J.K.L.G.G.G.G.G.G.",
"    y.|.M.M.M.u.u.u.v.] p.p.p.p.j j j j j j j j j j j j j j j j j j j j j j F.N.N.N.N.N.N.N.N.N.N.N.N.N.N.N.N.N.N.N.N.N.N.N.N.N.",
"    O.|.u.v.v.v.v.v.v.] p.,.,.,.,.,.,.,.,.,.,.,.,.,.,.,.,.,.,.,.,.,.,.,.,.,.F.,.,.,.,.,.,.,.,.,.,.,.,.,.,.,.,.,.,.,.,.,.,.,.,.,.",
"    P.|.Q.Q.Q.v.v.Q.R.S.p.,.,.,.,.,.,.,.,.,.,.,.,.,.,.,.,.,.,.,.,.,.,.,.,.,.F.,.,.,.,.,.,.,.,.,.,.,.,.,.,.,.,.,.,.,.,.,.,.,.,.,.",
"    P.|.T.T.U.T.T.T.T.V.p.,.,.,.,.,.,.,.,.,.,.,.,.,.,.,.,.,.,.,.,.,.,.,.,.,.F.,.,.,.,.,.,.,.,.,.,.,.,.,.,.,.,.,.,.,.,.,.,.,.,.,.",
"    P.|.T.T.T.T.T.T.T.] p.,.,.,.,.,.,.,.,.,.,.,.,.,.,.,.,.,.,.,.,.,.,.,.,.,.F.,.,.,.,.,.,.,.,.,.,.,.,.,.,.,.,.,.,.,.,.,.,.,.,.,.",
"    P.|.T.T.T.T.T.T.T.] p.,.,.,.,.,.,.,.,.,.,.,.,.,.,.,.,.,.,.,.,.,.,.,.,.,.F.,.,.,.,.,.,.,.,.,.,.,.,.,.,.,.,.,.,.,.,.,.,.,.,.,.",
"    P.|.T.T.T.T.T.T.T.] p.,.,.,.,.,.,.,.,.,.,.,.,.,.,.,.,.,.,.,.,.,.,.,.,.,.s.,.,.,.,.,.,.,.,.,.,.,.,.,.,.,.,.,.,.,.,.,.,.,.,.,.",
"    P.|.W.W.W.X.X.X.Y.] p.,.,.,.,.,.,.,.,.,.,.,.,.,.,.,.,.,.,.,.,.,.,.,.,.,.Z.,.,.,.,.,.,.,.,.,.,.,.,.,.,.,.,.,.,.,.,.,.,.,.,.,.",
"    P.|.`.X.q  +.+.+.+`.++++@+#+$+$+$+%+%+%+&+*+=+=+=+-+;+>+>+,+,+,+,+'+'+x.)+J.'+G.G.G.G.G.G.G.G.G.G.G.w.,+>+$+>+>+!+G.G.G.G.G.",
"    P.|.|.|.|.|.|.|.|.] ~+T {+m m m N.N.N.N.N.N.]+N.N.N.N.N.Z Z Z Z Z Z Z Z Z Z Z Z Z Z Z Z Z Z K K K K K N.m ^+N.N.N.N.N.N.N.N.",
"    /+(+_+:+:+<+[+}+}+t.j |+|+|+|+|+|+|+|+|+|+|+]+|+|+|+|+|+|+|+|+|+|+|+|+|+|+|+|+|+|+|+|+|+|+|+|+|+|+|+|+|+|+1+|+|+|+|+|+|+|+|+",
"    2+3+4+4+4+4+4+4+4+] p.|+|+|+|+|+|+|+|+|+|+|+5+|+|+|+|+|+|+|+|+|+|+|+|+|+|+|+|+|+|+|+|+|+|+|+|+|+|+|+|+|+|+6+|+|+|+|+|+|+|+|+",
"    2+7+4+4+4+4+4+8+8+] p.|+|+|+|+|+|+|+|+|+|+|+G.|+|+|+|+|+|+|+|+|+|+|+|+|+|+|+|+|+|+|+|+|+|+|+|+|+|+|+|+|+|+9+0+|+|+|+|+|+|+|+",
"    2+7+4+4+4+4+4+4+4+] p.|+|+|+|+|+|+|+|+|+|+|+G.|+|+|+|+|+|+|+|+|+|+|+|+|+|+|+|+|+|+|+|+|+|+|+|+|+|+|+|+|+|+9+a+|+|+|+|+|+|+|+",
"    2+b+c+d+d+d+d+d+c+] p.|+|+|+|+|+|+|+|+|+|+|+G.|+|+|+|+|+|+|+|+|+|+|+|+|+|+|+|+|+|+|+|+|+|+|+|+|+|+|+|+|+|+e+|+|+|+|+|+|+|+|+",
"    2+b+f+f+f+g+g+g+g+] p.|+|+|+|+|+|+|+|+|+|+|+G.|+|+|+|+|+|+|+|+|+|+|+|+|+|+|+|+|+|+|+|+|+|+|+|+|+|+|+|+|+|+)+|+|+|+|+|+|+|+|+",
"    2+b+h+h+h+h+i+i+f+] p.|+|+|+|+|+|+|+|+|+|+|+G.|+|+|+|+|+|+|+|+|+|+a+|+|+|+|+|+|+|+|+|+|+|+|+|+|+|+|+|+|+|+)+|+|+|+|+|+|+|+|+",
"    2+3+j+k+j+j+j+k+h+h+5 ++S.l+s.m+G.G.G.G.G.G.G.G.G.G.G.G.G.G.G.G.G.n+n+>+n+n+o+o+o+o+p+q+%+%+%+%+%+$+)+)+)+)+)+)+r+r+r+r+r+r+",
"    2+3+s+j+j+j+j+s+s+] N.N.N.N.N.N.N.N.N.N.N.N.N.N.N.N.N.N.N.N.N.N.N.N.N.N.n+N.N.N.N.N.N.N.N.N.N.N.N.N.N.N.N.N.N.N.N.N.N.N.N.N.",
"    2+7+t+u+u+u+s+s+t+] p.|+|+|+|+|+|+|+|+|+|+|+|+|+|+|+|+|+|+|+|+|+|+|+|+|+n+|+|+|+|+|+|+|+|+|+|+|+|+|+|+|+|+|+|+|+|+|+|+|+|+|+",
"    2+3+v+v+v+v+t+t+t+] p.|+|+|+|+|+|+|+|+|+|+|+|+|+|+|+|+|+|+|+|+|+|+|+|+|+n+|+|+|+|+|+|+|+|+|+|+|+|+|+|+|+|+|+|+|+|+|+|+|+|+|+",
"    2+w+x+x+x+x+v+v+v+] p.|+|+|+|+|+|+|+|+|+|+|+|+|+|+|+|+|+|+|+|+|+|+|+|+|+E.|+|+|+|+|+|+|+|+|+|+|+|+|+|+|+|+|+|+|+|+|+|+|+|+|+",
"    2+w+x+x+x+x+x+x+v+] p.|+|+|+|+|+|+|+|+|+|+|+|+|+|+|+|+|+|+|+|+|+|+|+|+|+G.|+|+|+|+|+|+|+|+|+|+|+|+|+|+|+|+|+|+|+|+|+|+|+|+|+",
"    2+w+x+x+x+x+x+x+v+] p.|+|+|+|+|+|+|+|+|+|+|+|+|+|+|+|+|+|+|+|+|+|+|+|+|+s.|+|+|+|+|+|+|+|+|+|+|+|+|+|+|+|+|+|+|+|+|+|+|+|+|+",
"    2+w+y+y+y+y+y+y+y+] p.|+|+|+|+|+|+|+|+|+|+|+|+|+|+|+|+|+|+|+|+|+|+|+|+|+z+|+|+|+|+|+|+|+|+|+|+|+|+|+|+|+|+|+|+|+|+|+|+|+|+|+",
"    2+w+A+B+B+C+A+A+D+] |+|+|+|+|+|+|+|+|+|+|+|+|+|+|+|+|+|+|+|+|+|+|+|+|+|+E+|+|+|+|+|+|+|+|+|+|+|+|+|+|+|+|+|+|+|+|+|+|+|+|+|+",
"    2+F+G+G+G+G+G+A+A+A+H+H+H+H+H+H+H+H+H+|+H+H+H+H+H+H+H+H+H+H+H+H+H+H+H+H+H+H+H+H+H+H+H+H+H+H+|+H+H+H+H+H+H+H+H+H+H+H+H+H+H+H+",
"    2+F+G+G+G+G+G+A+A+A+A+A+x+x+x+x+v+v+v+] v+v+v+v+v+v+v+v+v+v+v+v+v+v+v+v+v+v+v+v+v+v+v+v+v+v+I+v+v+v+v+v+v+v+v+v+v+v+v+v+v+v+",
"    2+F+G+G+G+G+G+G+A+A+A+A+x+x+x+x+v+v+v+J+v+v+v+v+v+v+v+v+v+v+v+v+v+v+v+v+v+v+v+v+v+v+v+v+v+v+J+v+v+v+v+v+v+v+v+v+v+v+v+v+v+v+",
"    2+2 G+G+G+G+G+G+A+A+A+A+x+x+x+x+v+v+v+J+v+v+v+v+v+v+v+v+v+v+v+v+v+v+v+v+v+v+v+v+v+v+v+v+v+v+J+v+v+v+v+v+v+v+v+v+v+v+v+v+v+v+",
"    2+1 G+G+G+G+G+A+A+A+A+A+x+x+x+x+v+v+v+J+v+v+v+v+v+v+v+v+v+v+v+v+v+v+v+v+v+v+v+v+v+v+v+v+v+v+J+v+v+v+v+v+v+v+v+v+v+v+v+v+v+v+",
"    2+1 K+K+K+L+M+N+w+w+w+w+w+w+w+w+w+w+w+J+w+w+w+w+w+w+w+w+w+w+w+w+w+w+w+w+w+w+w+w+w+w+w+w+w+w+J+w+w+w+w+w+w+w+w+w+w+w+w+w+w+w+",
"    ] h *.*.*.*.*.*.*.*.*.*.*.*.*.*.*.*.*.J+*.*.*.*.*.*.*.*.*.*.*.*.*.*.*.*.*.*.*.*.*.*.*.*.*.*.J+*.*.*.*.*.*.*.*.*.*.*.*.*.*.*.",
"    ] h *.*.*.*.*.*.*.*.*.*.*.*.*.*.*.*.*.J+*.*.*.*.*.*.*.*.*.*.*.*.*.*.*.*.*.*.*.*.*.*.*.*.*.*.J+*.*.*.*.*.*.*.*.*.*.*.*.*.*.*.",
"    ] b *.*.*.*.(.*.*.*.*.*.*.*.*.*.*.!.*.] *.*.*.*.*.*.*.*.*.*.*.*.*.*.*.*.*.*.*.*.*.*.*.*.*.*.] *.*.*.*.*.*.*.*.*.*.*.*.*.*.*.",
"      ] ] ] ] ] ] ] ] ] ] ] ] ] ] ] ] ] ] ] ] ] ] ] ] ] ] ] ] ] ] ] ] ] ] ] ] ] ] ] ] ] ] ] ] ] ] ] ] ] ] ] ] ] ] ] ] ] ] ] ] ] "};
