/* XPM */
static char * collectible_xpm[] = {
"64 64 509 2",
"  	c #72751B",
". 	c #807F72",
"+ 	c #878679",
"@ 	c #88867D",
"# 	c #8C8A80",
"$ 	c #8A8A7D",
"% 	c #87867D",
"& 	c #8D8B82",
"* 	c #8C8A81",
"= 	c #8D8C83",
"- 	c #676455",
"; 	c #8D8C82",
"> 	c #8E8C83",
", 	c #6C6852",
"' 	c #8D8B83",
") 	c #64604B",
"! 	c #7F8226",
"~ 	c #787B21",
"{ 	c #7F8124",
"] 	c #87857C",
"^ 	c #656C17",
"/ 	c #939189",
"( 	c #686F16",
"_ 	c #7C7B6E",
": 	c #89877F",
"< 	c #88867E",
"[ 	c #5E3923",
"} 	c #5A361F",
"| 	c #5A351E",
"1 	c #838279",
"2 	c #5E3B23",
"3 	c #59351D",
"4 	c #59351E",
"5 	c #5D3922",
"6 	c #88877E",
"7 	c #5D3721",
"8 	c #806F5F",
"9 	c #7A6855",
"0 	c #796653",
"a 	c #58341C",
"b 	c #542D15",
"c 	c #542C15",
"d 	c #59331B",
"e 	c #532C15",
"f 	c #532C14",
"g 	c #5E3C25",
"h 	c #786553",
"i 	c #796754",
"j 	c #7F6F5E",
"k 	c #58331C",
"l 	c #66452F",
"m 	c #867867",
"n 	c #806F5C",
"o 	c #7F6E5C",
"p 	c #5C3820",
"q 	c #705436",
"r 	c #6F5133",
"s 	c #715335",
"t 	c #705334",
"u 	c #83694C",
"v 	c #6F5033",
"w 	c #705235",
"x 	c #6F5234",
"y 	c #765B3D",
"z 	c #5D3820",
"A 	c #7F6548",
"B 	c #6E5033",
"C 	c #62402B",
"D 	c #7E6D5C",
"E 	c #857767",
"F 	c #603C26",
"G 	c #694A34",
"H 	c #94897B",
"I 	c #8A7C6B",
"J 	c #613C25",
"K 	c #7C6043",
"L 	c #82694C",
"M 	c #836A4D",
"N 	c #877052",
"O 	c #67462C",
"P 	c #8F785B",
"Q 	c #82694B",
"R 	c #836A4C",
"S 	c #82684B",
"T 	c #897357",
"U 	c #65442A",
"V 	c #877054",
"W 	c #81684B",
"X 	c #63422D",
"Y 	c #897B6B",
"Z 	c #93887B",
"` 	c #848279",
" .	c #6B4C38",
"..	c #998F81",
"+.	c #938676",
"@.	c #623F2A",
"#.	c #806649",
"$.	c #856C4E",
"%.	c #856C4F",
"&.	c #8F785D",
"*.	c #6A492E",
"=.	c #937D62",
"-.	c #846B4D",
";.	c #846C4E",
">.	c #67472C",
",.	c #8B7558",
"'.	c #846A4D",
").	c #836B4E",
"!.	c #65442E",
"~.	c #918576",
"{.	c #988E81",
"].	c #64442F",
"^.	c #6D4F3A",
"/.	c #9F9588",
"(.	c #948778",
"_.	c #643F2A",
":.	c #8C7759",
"<.	c #8E795C",
"[.	c #988167",
"}.	c #75583C",
"|.	c #917B5F",
"1.	c #8C7659",
"2.	c #8D785C",
"3.	c #8D785B",
"4.	c #907A5E",
"5.	c #6A4B2F",
"6.	c #8E775A",
"7.	c #8B7658",
"8.	c #8D775B",
"9.	c #65442F",
"0.	c #928677",
"a.	c #9E9488",
"b.	c #664731",
"c.	c #6B4C37",
"d.	c #A1978A",
"e.	c #9B9082",
"f.	c #9B9182",
"g.	c #633F2A",
"h.	c #988267",
"i.	c #968064",
"j.	c #8E785C",
"k.	c #927C61",
"l.	c #6A4B30",
"m.	c #8F795C",
"n.	c #978B7E",
"o.	c #988B7E",
"p.	c #9F968A",
"q.	c #674832",
"r.	c #6C4C37",
"s.	c #A2988C",
"t.	c #A1978B",
"u.	c #64412B",
"v.	c #846A4C",
"w.	c #958064",
"x.	c #9C876C",
"y.	c #75563A",
"z.	c #988367",
"A.	c #957F64",
"B.	c #947F64",
"C.	c #958065",
"D.	c #6B4D32",
"E.	c #968164",
"F.	c #947F63",
"G.	c #674731",
"H.	c #A0968A",
"I.	c #A09589",
"J.	c #A3998D",
"K.	c #A09789",
"L.	c #A09689",
"M.	c #633F29",
"N.	c #958166",
"O.	c #978165",
"P.	c #968165",
"Q.	c #9A866A",
"R.	c #958165",
"S.	c #968267",
"T.	c #6C4C31",
"U.	c #978267",
"V.	c #948065",
"W.	c #948064",
"X.	c #664631",
"Y.	c #9F9488",
"Z.	c #6A4B36",
"`.	c #A2998C",
" +	c #633E27",
".+	c #967F63",
"++	c #978065",
"@+	c #998468",
"#+	c #735439",
"$+	c #988468",
"%+	c #957F63",
"&+	c #694A2F",
"*+	c #947E62",
"=+	c #9E9487",
"-+	c #694934",
";+	c #66442D",
">+	c #A1988B",
",+	c #988D7E",
"'+	c #603A23",
")+	c #917A5C",
"!+	c #917A5D",
"~+	c #907A5C",
"{+	c #735438",
"]+	c #90795B",
"^+	c #91795D",
"/+	c #90795D",
"(+	c #8E785B",
"_+	c #978367",
":+	c #69492E",
"<+	c #978266",
"[+	c #8F795B",
"}+	c #978C7D",
"|+	c #64412A",
"1+	c #978C7C",
"2+	c #5F3921",
"3+	c #7E6346",
"4+	c #90795C",
"5+	c #68482D",
"6+	c #968B7B",
"7+	c #828175",
"8+	c #623E28",
"9+	c #9C9384",
"0+	c #8F8270",
"a+	c #5B361E",
"b+	c #7D6245",
"c+	c #917B5E",
"d+	c #957F62",
"e+	c #6D4D31",
"f+	c #968065",
"g+	c #8F785C",
"h+	c #66462A",
"i+	c #907A5D",
"j+	c #64412C",
"k+	c #8D816F",
"l+	c #9A9183",
"m+	c #623D27",
"n+	c #8E8270",
"o+	c #59331C",
"p+	c #785A3E",
"q+	c #846B4E",
"r+	c #8A7254",
"s+	c #8C7357",
"t+	c #846A4E",
"u+	c #836A4E",
"v+	c #836B4F",
"w+	c #8D755A",
"x+	c #623F24",
"y+	c #8C7458",
"z+	c #83694D",
"A+	c #64432D",
"B+	c #8D806F",
"C+	c #674732",
"D+	c #613C26",
"E+	c #968B7C",
"F+	c #887A69",
"G+	c #887B69",
"H+	c #562E15",
"I+	c #76583D",
"J+	c #886F52",
"K+	c #623C23",
"L+	c #897256",
"M+	c #8B7459",
"N+	c #5C361C",
"O+	c #897054",
"P+	c #82694D",
"Q+	c #613D29",
"R+	c #867968",
"S+	c #867868",
"T+	c #63402B",
"U+	c #5F3923",
"V+	c #918374",
"W+	c #887A68",
"X+	c #81674B",
"Y+	c #866D50",
"Z+	c #5D381E",
"`+	c #876F53",
" @	c #7B6043",
".@	c #7A5F43",
"+@	c #7A5E42",
"@@	c #7A5E43",
"#@	c #795D43",
"$@	c #897156",
"%@	c #58331A",
"&@	c #897155",
"*@	c #81684C",
"=@	c #603C28",
"-@	c #8F8273",
";@	c #603E29",
">@	c #5B351E",
",@	c #552E15",
"'@	c #75583D",
")@	c #775A3E",
"!@	c #76573D",
"~@	c #77583D",
"{@	c #76593D",
"]@	c #806648",
"^@	c #705136",
"/@	c #5E3A25",
"(@	c #5D3923",
"_@	c #5D3A24",
":@	c #5A3721",
"<@	c #5B3822",
"[@	c #7B5F45",
"}@	c #563218",
"|@	c #76593C",
"1@	c #75583E",
"2@	c #725439",
"3@	c #715339",
"4@	c #715338",
"5@	c #6F5036",
"6@	c #5D3822",
"7@	c #5B3720",
"8@	c #807F73",
"9@	c #5A341D",
"0@	c #978B7C",
"a@	c #958A7A",
"b@	c #552D15",
"c@	c #8F816F",
"d@	c #8F816E",
"e@	c #58331B",
"f@	c #542E15",
"g@	c #532B14",
"h@	c #563019",
"i@	c #948979",
"j@	c #968A7B",
"k@	c #5F3C25",
"l@	c #828077",
"m@	c #5F3A24",
"n@	c #897D6B",
"o@	c #7E6F5D",
"p@	c #7D6E5D",
"q@	c #62422A",
"r@	c #613F29",
"s@	c #603F29",
"t@	c #7B6D5C",
"u@	c #7A6957",
"v@	c #5F3D24",
"w@	c #6B4F31",
"x@	c #62442D",
"y@	c #63442D",
"z@	c #62452D",
"A@	c #542E16",
"B@	c #7C6C5C",
"C@	c #7D6E5C",
"D@	c #887C6A",
"E@	c #5D3A23",
"F@	c #838178",
"G@	c #5F3B25",
"H@	c #867A68",
"I@	c #7C6D5B",
"J@	c #7C6C5B",
"K@	c #64462C",
"L@	c #725637",
"M@	c #715637",
"N@	c #735638",
"O@	c #715638",
"P@	c #765B3C",
"Q@	c #6A4E30",
"R@	c #726351",
"S@	c #81715F",
"T@	c #6F604E",
"U@	c #522B14",
"V@	c #522C14",
"W@	c #755A3B",
"X@	c #6E5235",
"Y@	c #7B6A5A",
"Z@	c #7B6B5A",
"`@	c #857867",
" #	c #5C3721",
".#	c #838278",
"+#	c #603D27",
"@#	c #827363",
"##	c #766653",
"$#	c #63452B",
"%#	c #6D5033",
"&#	c #6D5132",
"*#	c #755B3B",
"=#	c #70604F",
"-#	c #6F604F",
";#	c #74593A",
">#	c #746552",
",#	c #746452",
"'#	c #807262",
")#	c #59341F",
"!#	c #5D3823",
"~#	c #71624F",
"{#	c #62432A",
"]#	c #6C5033",
"^#	c #6C5031",
"/#	c #6C4F31",
"(#	c #6A4D30",
"_#	c #695443",
":#	c #68523F",
"<#	c #7B6A56",
"[#	c #695543",
"}#	c #72583A",
"|#	c #716250",
"1#	c #70614E",
"2#	c #7A6C5B",
"3#	c #542E19",
"4#	c #57321A",
"5#	c #766754",
"6#	c #70614D",
"7#	c #502A13",
"8#	c #614228",
"9#	c #694D30",
"0#	c #624127",
"a#	c #6A4E31",
"b#	c #725839",
"c#	c #6B4F32",
"d#	c #4F2913",
"e#	c #6F604D",
"f#	c #756654",
"g#	c #522B17",
"h#	c #512A14",
"i#	c #73624D",
"j#	c #6C5943",
"k#	c #6D5944",
"l#	c #4E2912",
"m#	c #603E24",
"n#	c #684B2F",
"o#	c #614127",
"p#	c #694C30",
"q#	c #674B2F",
"r#	c #4D2812",
"s#	c #6C5844",
"t#	c #6B5843",
"u#	c #72614D",
"v#	c #502914",
"w#	c #4F2813",
"x#	c #75624E",
"y#	c #6C5843",
"z#	c #6C5742",
"A#	c #603D24",
"B#	c #664A2E",
"C#	c #4E2913",
"D#	c #6B5742",
"E#	c #74624E",
"F#	c #4E2713",
"G#	c #4E2813",
"H#	c #684C30",
"I#	c #725739",
"J#	c #674A2E",
"K#	c #4E2712",
"L#	c #5A3722",
"M#	c #57331E",
"N#	c #56321D",
"O#	c #5F3C23",
"P#	c #5F3C24",
"Q#	c #56321C",
"R#	c #57331D",
"S#	c #847866",
"T#	c #827564",
"U#	c #847765",
"V#	c #4F2A13",
"W#	c #4E2812",
"X#	c #847665",
"Y#	c #827463",
"Z#	c #827563",
"`#	c #847865",
" $	c #4E2613",
".$	c #5F5B46",
"+$	c #766753",
"@$	c #7A6B57",
"#$	c #7C6E5A",
"$$	c #7E6F5C",
"%$	c #80715F",
"&$	c #817461",
"*$	c #857866",
"=$	c #897C6B",
"-$	c #897C6C",
";$	c #8A7D6C",
">$	c #8A7D6D",
",$	c #887B6A",
"'$	c #867A69",
")$	c #857968",
"!$	c #837765",
"~$	c #7E705E",
"{$	c #7C6E5C",
"]$	c #7A6C5A",
"^$	c #6F5F4D",
"/$	c #4F2713",
"($	c #634D39",
"_$	c #634C38",
":$	c #76644F",
"<$	c #67523E",
"[$	c #65503B",
"}$	c #66513D",
"|$	c #67523D",
"1$	c #685340",
"2$	c #695441",
"3$	c #695442",
"4$	c #6A5543",
"5$	c #695644",
"6$	c #685442",
"7$	c #685341",
"8$	c #675341",
"9$	c #4F2B15",
"0$	c #76634F",
"a$	c #634C37",
"b$	c #634D38",
"c$	c #605C48",
"d$	c #84827A",
"e$	c #7E7D71",
"f$	c #898780",
"g$	c #68442B",
"h$	c #69442B",
"i$	c #66432A",
"j$	c #67432A",
"    . . . . . . . . . . . .         . . . . . . . . . . . .         + + + + + + + + + + + +         . . . . . . . . . . . .     ",
"  @ . . . . . . . . . . . . @     @ . . . . . . . . . . . . @     # + + + + + + + + + + + + $     % . . . . . . . . . . . . @   ",
"  @ . . . . . . . . . . . . @     @ . . . . . . . . . . . . @     & + + + + + + + + + + + + *     @ . . . . . . . . . . . . @   ",
"  @ . . . . . . . . . . . . @     @ . . . . . . . . . . . . @     = + + + + + + + + + + + + &     @ . . . . . . . . . . . . @   ",
"  @ . . . . . . . . . . . . @     @ . . . . . . . . . . @ - -     = + + + + + + + + + + + + ;     @ . . . . . . . . . . . . @   ",
"  @ . . . . . . . . . . . . @     @ . . . . . . . . . . . @       = + + + + + + + + + + + + =     @ . . . . . . . . . . . . @   ",
"  @ . . . . . . . . . . . . @     @ . . . . . . . . . . . @       = + + + + + + + + + + + + >     @ . . . . . . . . . . . . @   ",
"  @ . . . . . . . . . . . . @     @ . . . . . . . . . . . . @     = + + + + + + + + + + + + >     @ . . . . . . . . . . . . @   ",
"  @ . . . . . . . . . . . . @     @ . . . . . . . . . . . . @     = + + + + + + + + + + + + >     @ . . . . . . . . . . . . @   ",
"  @ . . . . . . . . . . . . @     @ . . . . . . . . . . . . @     , = + + + + + + + + + + + >     @ . . . . . . . . . . . . '   ",
"  @ . . . . . . . . . . . . @     @ . . . . . . . . . . . . @       , = + + + + + + + + + + >     @ . . . . . . . . . . . ' )   ",
"  @ . . . . . . . . . . . . @     @ . . . . . . . . . . . . @         = + + + + + + + + + + >     % . . . . . . . . . . ' )     ",
"  @ . . . . . . . . . . ! ~ )     @ . . . . . . . . . . . . @   { {   = + + + + + + + + + + >     ] . . . . . . . . . ' )       ",
"  ) ' ' ' ' ' ! ~ ' ' ~ ! ^       ) ' ' ' ' ' ' ' ' ' ' ' ' '     { ~ ~ / / / / / / / / / / )     ) ' ' ' ' ' ' ' ' ' )         ",
"    ) ) ) ) ) ^ ~ ~ ) ~ ~           ) ) ) ) ) ) ) ) ) ) ) ) )     ( ~ ( , , , , , , , , , ,         ) ) ) ) ) ) ) ) )           ",
"                ^ ~ ~ ~ ^                                           ( (                                                         ",
"    . . . . . . ^ ~ ~ ^                   _ _ _ _ _ _ _ _ _         . . . . . . . . . .             . . . . . . :     . . .     ",
"  < . . . . . . . ^ ~           [ } | | _ _ _ _ _ _ _ _ _ _ 1     % . . . . . . . . 2 3 4 5       6 . . . . . . :   . . . . <   ",
"  < . . . . . . . . . . .     7 8 9 0 a b b b b c d _ c e f f f f f f . f f f f f f g h i j k     6 . . . . . : ) . . . . . <   ",
"  < . . . . . . . . . . . . @ l m n o p q r r s t u d u v v w w w x y z A B B w w x C D o E F     6 ~ ~ . : : )   . . . . . <   ",
"  < . . . . . . . . . . . . @ G H I I J K L M M u N O P Q R R L L S T U V W L L L S X Y Y Z X     { { : : ) )     . . . . . <   ",
"  < . . . . . . . . . . . . `  ...+.+.@.#.$.$.$.%.&.*.=.-.-.-.-.-.;.&.>.,.M M '.M ).!.~.~.{.].  ~ ~ ( ) )       . . . . . . <   ",
"  @ . . . . . . . . . . . . ` ^./.(.(._.A :.<.<.<.[.}.|.1.2.2.2.3.3.4.5.6.7.8.8.8.8.9.0.0.a.b.  ~ ~ (         . . . . . . . @   ",
"  @ . . . . . . . . . . . . ` c.d.e.f.g.u <.<.<.<.h.}.i.<.j.2.2.2.2.k.l.m.3.3.3.3.3.9.n.o.p.q.  ~ (       . . . . . . . . . @   ",
"  @ . . . . . . . . . . . . ` r.s.d.t.u.v.w.w.w.w.x.y.z.A.A.B.B.B.B.C.D.E.F.F.F.F.F.G.H.I.t.G         . . . . . . . . . . . @   ",
"  @ . . . . . . . . . . . . @ r.J.K.L.M.u w.N.O.P.Q.y.z.w.R.C.C.C.C.S.T.U.B.V.C.C.W.X.Y./.s.Z.    6 . . . . . . . . . . . . @   ",
"  @ . . . . . . . . . . . . @ r.`.K./. +S .+++++i.@+#+$+%+i.A.A.A.A.U.&+U.*+A.A.A.%+G.=+/.t.-+    6 . . . . . . . . . . . . @   ",
"  % . . . . . . . . . . . . @ ;+>+,+,+'+A )+!+!+~+@+{+z.]+^+/+m.m.(+_+:+<+m.m.m.[+[+l }+}+H.-+    6 . . . . . . . . . . . . %   ",
"  ] . . . . . . . . . . . . @ |+K.1+1+2+3+)+)+)+~+E.{+<+~+4+4+m.m.m.U.5+<+[+[+m.[+[+!.6+6+/.-+    6 7+. . . . . . . . . . . ]   ",
"  ) ' ' ' ' ' ' ' ' ' ' ' ' ) 8+9+0+0+a+b+c+)+~+~+d+e+f+g+j.j.j.j.(+i.h+P.i+[+[+[+[+j+k+k+l+-+~   ) ' ' ' ' ' ' ' ' ' ' ' ' )   ",
"    ) ) ) ) ) ) ) ) ) ) ) )   m+f.n+n+o+p+q+q+M q+r+e+s+t+u+v+).).M w+x+y+z+M M M M A+B+B+..C+~     ) ) ) ) ) ) ) ) ) ) ) )     ",
"                              D+E+F+G+H+I+q+q+q+q+J+K+L+M M M z+z+z+M+N+O+P+P+P+P+P+Q+R+S+H T+~                                 ",
"    . . . . . . . . . . . .   U+V+W+W+H+I+q+q+t+X+Y+Z+`+ @.@+@@@@@#@$@%@&@P+*@P+*@*@=@m m -@;@            _ _ _ _ _ _ _ _ _     ",
"  @ . . . . . . . . . . . . % >@,@H+H+,@'@)@!@~@{@]@b ^@/@(@_@:@<@3 [@}@|@1@2@3@4@5@6@f f f 7@          ~ ~ _ _ _ _ _ _ _ _ 8@  ",
"  @ . . . . . . . . . . . . @ 9@6+0@a@b@b@b@b@b@b b c c f c@d@d@d@e@f f@g@g@f f f f h@i@j@a@k@        ! ~ _ _ _ _ _ _ _ _ _ l@  ",
"  @ . . . . . . . . . . . . @ m@n@o@p@b@q@r@s@s@s@;@c 2 f t@f f u@g@v@f w@x@y@x@z@x@A@B@C@D@E@      ~ ~ 1 _ _ _ _ _ _ _ _ _ F@  ",
"  @ . . . . . . . . . . . . @ G@H@I@J@b K@L@M@N@O@P@f Q@f R@S@g@T@U@v@V@W@X@X@X@X@X@g@Y@Z@`@ #! ~   ~ ~ 1 _ _ _ _ _ _ _ _ _ .#  ",
"  @ . . . . . . . . . . . . @ +#@#####c $#B %#%#&#*#f Q@g@=#T@U@-#U@v@V@;#w@w@w@w@w@U@>#,#'#)#! ~ ~ ^ ~ _ _ _ _ _ _ _ _ _ _ 1   ",
"  @ . . . . . . . . . . . . @ !#t@~#R@f {#]#^#/#/#*#g@(#U@_#:#<#[#U@v@V@}#w@w@w@w@w@U@|#1#2#3#^ ~ ~ 1 _ _ _ _ _ _ _ _ _ _ _ `   ",
"  @ . . . . . . . . . . . . @ 4#5#6#6#7#8#/#/#/#w@W@g@9#0#U@U@U@U@v@a#V@b#w@w@w@w@c#d#e#e#f#g#  ^ 1 _ _ _ _ _ _ _ _ _ _ _ _ `   ",
"  @ . . . . . . . . . . . . @ h#i#j#k#l#m#n#n#n#n#;#U@9#9#o#o#0#0#p#9#V@}#9#q#q#q#9#r#s#t#u#v#    1 _ _ _ _ _ _ _ _ _ _ _ _ `   ",
"  @ . . . . . . . . . . . . @ w#x#y#z#d#A#q#q#q#B#}#U@9#9#9#9#9#9#9#9#V@b#q#q#q#q#q#C#D#t#E#F#    F@_ _ _ _ _ _ _ _ _ _ _ _ `   ",
"  ) @ . . . . . . . . . . . @ G#E#t#D#C#v@H#q#q#B#}#U@9#9#9#9#9#9#9#p#V@I#J#q#q#q#9#C#D#t#E#F#    F@_ _ _ _ _ _ _ _ _ _ _ _ `   ",
"    ) @ . . . . . . . . . . % K#L#L#M#N#v@v@v@v@v@;#U@v@v@v@v@v@v@v@v@V@I#v@O#P#v@v@Q#R#M#R#F#    F@_ _ _ _ _ _ _ _ _ _ _ _ `   ",
"      ) @ . . . . . . . . . ] K#S#T#T#U#V#W#C#U@U@U@U@U@U@U@U@U@U@U@U@U@U@U@U@d#d#d#X#Y#Z#`# $    .$: _ _ _ _ _ _ _ _ _ _ _ :   ",
"        ) ' ' ' ' ' ' ' ' ' ) G#T@T@e#+$d#@$#$$$%$&$*$=$-$;$>$>$,$'$'$)$S#!$~${$]$W###^$^$e# $      .$@ : : : : : : : : : @     ",
"          ) ) ) ) ) ) ) ) ) ) /$($_$_$:$d#<$[$}$|$1$1$2$3$3$3$4$5$[#6$6$6$6$7$8$8$9$0$a$_$b$/$        .$.$.$.$c$c$c$c$) ) )     ",
"                              /$/$/$/$/$/$/$/$/$/$/$/$/$/$/$/$/$F#F#F#F#F#F#F#F#F#K#K#/$/$/$/$                                  ",
"    _ _ _     d$_ _ _ _ _ _             . . . . . . . . . .                 6 . . . . . . .         . . . . . . . . . .         ",
"  ` _ _ _ _   d$_ _ _ _ _ _ `       . . . . . . . . . . . . @             6 . . . . . . . . <     % . . . . . . . . . . . .     ",
"  ` _ _ _ _ _ c$: _ _ _ _ _ `     @ . . . . . . . . . . . . @           6 . . . . . . . . . <     % . . . . . . . . . . . . @   ",
"  ` _ _ _ _ _   c$: : _ _ _ `     @ . . . . . . . . . . . . @       6 6 . . . . . . . . . . <     % . . . . . . . . . . . . @   ",
"  ` _ _ _ _ _     c$c$: : : :     @ . . . . . . . . . . . . @     6 . . . . . . . . . . . . <     % . . . . . . . . . . . . @   ",
"  ` _ _ _ _ _ _       c$c$c$c$    @ . . . . . . . . . . . . @     6 . . . . . . . . . . . . <     % . . . . . . . . . . . . @   ",
"  ` _ _ _ _ _ _ _                 @ . . . . . . . . . . . . @     6 . . . . . . . . . . . . @     % . . . . . . . . . . . . @   ",
"  ` _ _ _ _ _ _ _ _ _             @ . . . . . . . . . . . . @     6 . . . . . . . . . . . . @     % . . . . . . . . . . . . @   ",
"  ` _ _ _ _ _ _ _ _ _ _ _         @ . . . . . . . . . . . . @     6 . . . . . . . . . . . . @     % . . . . . . . . . ' ' ' )   ",
"  ` _ _ _ _ _ _ _ _ _ _ _ _ `     @ . . . . . . . . . . . . @     6 . . . . . . . . . . . . @     % . . . . . . . . ' ) ) )     ",
"  ` _ _ _ _ _ _ _ _ _ _ _ _ `     @ . . . . . . . . . . . . @     6 . . . . . . . . . . . . @     % . . . . . . . ' )           ",
"  ` _ _ _ _ _ _ _ _ _ _ _ _ `     ) ' . . . . . . . . . . . @     6 . . . . . . . . . . . . %     % . . . . . . ' )             ",
"  ` _ _ _ _ _ _ _ _ _ _ _ e$`       ) ' ' ' . . . . . . . . @     6 . . . . . . . . . . . . ]     % . . . . . ' )               ",
"    : : : : : : : : : : : : :         ) ) ) ' ' ' ' ' ' ' ' '     ) f$: : : : : : : : : : : )     ) ' ' ' ' ' )                 ",
"    c$c$c$c$c$c$c$c$c$c$c$c$)               ) ) ) ) ) ) ) ) )       ) ) ) ) ) ) ) ) ) ) ) )         ) ) ) ) )                   ",
"                                g$h$h$g$                                            i$j$j$j$                                    "};
