/* XPM */
static char * collectible_xpm[] = {
"64 64 3 1",
" 	c #000000",
".	c #FF00FF",
"+	c #FFFFFF",
"                                                                ",
"                                                                ",
"                                                                ",
"                                                                ",
"                                                                ",
"                                                                ",
"                                                                ",
"                                                                ",
"                                                                ",
"                                                                ",
"                                                                ",
"                                                                ",
"                                                                ",
"                           ...++++++++                          ",
"                           ...++++++++                          ",
"                           ...++++++++                          ",
"                           ...++++++++                          ",
"    ++++....           ...........++++++++                      ",
"    ++++....           ...........++++++++                      ",
"    ++++....           ...........++++++++                      ",
"    ++++....           ...........++++++++                      ",
"    ....++++...        +++++++........++++           ....+++    ",
"    ....++++...        +++++++........++++           ....+++    ",
"    ....++++...        +++++++........++++           ....+++    ",
"    ........+++    ........+++++++........+++    ++++.......    ",
"    ........+++    ........+++++++........+++    ++++.......    ",
"    ........+++    ........+++++++........+++    ++++.......    ",
"    ........+++    ........+++++++........+++    ++++.......    ",
"    ++++...........++++.......++++++++...............++++...    ",
"    ++++...........++++.......++++++++...............++++...    ",
"    ++++...........++++.......++++++++...............++++...    ",
"    ++++...........++++.......++++++++...............++++...    ",
"    ....++++.......++++++++.......++++++++...............+++    ",
"    ....++++.......++++++++.......++++++++...............+++    ",
"    ....++++.......++++++++.......++++++++...............+++    ",
"    ....++++.......++++++++.......++++++++...............+++    ",
"    ........+++    ....+++++++........+++++++....++++.......    ",
"    ........+++    ....+++++++........+++++++....++++.......    ",
"    ........+++    ....+++++++........+++++++....++++.......    ",
"    ++++....           ....+++++++........       ....++++...    ",
"    ++++....           ....+++++++........       ....++++...    ",
"    ++++....           ....+++++++........       ....++++...    ",
"    ++++....           ....+++++++........       ....++++...    ",
"                       .......++++++++....           ....+++    ",
"                       .......++++++++....           ....+++    ",
"                       .......++++++++....           ....+++    ",
"                       .......++++++++....           ....+++    ",
"                           ...........                          ",
"                           ...........                          ",
"                           ...........                          ",
"                           ...........                          ",
"                                                                ",
"                                                                ",
"                                                                ",
"                                                                ",
"                                                                ",
"                                                                ",
"                                                                ",
"                                                                ",
"                                                                ",
"                                                                ",
"                                                                ",
"                                                                ",
"                                                                "};
