/* XPM */
static char * empty_xpm[] = {
"64 64 40 1",
" 	c #72751B",
".	c #807F72",
"+	c #878679",
"@	c #88867D",
"#	c #8C8A80",
"$	c #8A8A7D",
"%	c #87867D",
"&	c #8D8B82",
"*	c #8C8A81",
"=	c #8D8C83",
"-	c #676455",
";	c #8D8C82",
">	c #8E8C83",
",	c #6C6852",
"'	c #8D8B83",
")	c #64604B",
"!	c #7F8226",
"~	c #787B21",
"{	c #7F8124",
"]	c #87857C",
"^	c #656C17",
"/	c #939189",
"(	c #686F16",
"_	c #7C7B6E",
":	c #89877F",
"<	c #88867E",
"[	c #838279",
"}	c #88877E",
"|	c #848279",
"1	c #828175",
"2	c #605C48",
"3	c #807F73",
"4	c #828077",
"5	c #838178",
"6	c #838278",
"7	c #89877E",
"8	c #5F5B46",
"9	c #84827A",
"0	c #7E7D71",
"a	c #898780",
"  ............    ............    ++++++++++++    ............  ",
" @............@  @............@  #++++++++++++$  %............@ ",
" @............@  @............@  &++++++++++++*  @............@ ",
" @............@  @............@  =++++++++++++&  @............@ ",
" @............@  @..........@--  =++++++++++++;  @............@ ",
" @............@  @...........@   =++++++++++++=  @............@ ",
" @............@  @...........@   =++++++++++++>  @............@ ",
" @............@  @............@  =++++++++++++>  @............@ ",
" @............@  @............@  =++++++++++++>  @............@ ",
" @............@  @............@  ,=+++++++++++>  @............' ",
" @............@  @............@   ,=++++++++++>  @...........') ",
" @............@  @............@    =++++++++++>  %..........')  ",
" @..........!~)  @............@ {{ =++++++++++>  ].........')   ",
" )'''''!~''~!^   )'''''''''''''  {~~//////////)  )''''''''')    ",
"  )))))^~~)~~     )))))))))))))  (~(,,,,,,,,,,    )))))))))     ",
"        ^~~~^                     ((                            ",
"  ......^~~^         _________    ..........      ......:  ...  ",
" <.......^~         __________[  %............   }......: ....< ",
" <...........      ___________[  %............@  }.....:).....< ",
" <............@  |____________[  %............@  }~~.::) .....< ",
" <............@  |____________[  %............@  {{::))  .....< ",
" <............|  ~____________[  %............@ ~~())   ......< ",
" @............| {{____________[  %............@ ~~(    .......@ ",
" @............|~{(____________[  %............@ ~(   .........@ ",
" @............|~~|____________[  %............@    ...........@ ",
" @............@((|____________[  %............@  }............@ ",
" @............@  |____________[  %............@  }............@ ",
" %............@  |___________:'  %...........''  }............% ",
" ]............@  @__________:))  %........''~{{  }1...........] ",
" )'''''''''''')  )':::::::::)    )''''''''))){~~ )'''''''''''') ",
"  ))))))))))))    ))2222222)      ))))))))   (~~  ))))))))))))  ",
"                                              (~                ",
"  ............    ++++++++++++    ............       _________  ",
" @............%  $++++++++++++#  %............@     ~~________3 ",
" @............@  *++++++++++++&  @............@    !~_________4 ",
" @............@  &++++++++++++&  @............@   ~~[_________5 ",
" @............@  ;++++++++++++&  @............!!~ ~~[_________6 ",
" @............@  =++++++++++++&  )7~!77.......@!~~^~__________[ ",
" @............@  >++++++++++++&   ))!~)7......@^~~[___________| ",
" @............@  >++++++++++++&     ~~ )7.....@ ^[____________| ",
" @............@  >++++++++++++=     ^^  )7....@  [____________| ",
" @............@  >++++++++++++&          )@...@  5____________| ",
" )@...........@  >++++++++++++&  ....     @...%  5____________| ",
"  )@..........%  >++++++++++++&  .....    @...%  5____________| ",
"   )@.........]  >++++++!++++/,  '.....   ''..]  8:___________: ",
"    )''''''''')  ,/////!^////,   )'''''   ))'''   8@:::::::::@  ",
"     ))))))))))   ,,,,~~^,,,,     )))))     )))    88882222)))  ",
"                      ~^                                        ",
"  ___  9______      ..........        }.......    ..........    ",
" |____ 9______|   ............@      }........<  %............  ",
" |_____2:_____|  @............@     }.........<  %............@ ",
" |_____ 2::___|  @............@   }}..........<  %............@ ",
" |_____  22::::  @............@  }............<  %............@ ",
" |______   2222  @............@  }............<  %............@ ",
" |_______        @............@  }............@  %............@ ",
" |_________      @............@  }............@  %............@ ",
" |___________    @............@  }............@  %.........''') ",
" |____________|  @............@  }............@  %........')))  ",
" |____________|  @............@  }............@  %.......')     ",
" |____________|  )'...........@  }............%  %......')      ",
" |___________0|   )'''........@  }............]  %.....')       ",
"  :::::::::::::    )))'''''''''  )a:::::::::::)  )''''')        ",
"  222222222222)       )))))))))   ))))))))))))    )))))         ",
"                                                                "};
