/* XPM */
static char * enemy04_xpm[] = {
"64 64 8 1",
" 	c #0F4FAE",
".	c #AAAADD",
"+	c #FFFFFF",
"@	c #000000",
"#	c #0099FF",
"$	c #8800FF",
"%	c #8888BB",
"&	c #FF0077",
"                ..........................                      ",
"                ..........................                      ",
"            ....................................                ",
"            ....................................                ",
"          ..........++++............................            ",
"          ..........++++............................            ",
"          ........++++++..............................          ",
"          ........++++++..............................          ",
"        ........++++++................................          ",
"        ........++++++................................          ",
"        ........++++....................................        ",
"        ........++++....................................        ",
"        ................................................        ",
"        ................................................        ",
"        ................................................        ",
"        ................................................        ",
"        ....@@@@....@@@@................................        ",
"        ....@@@@....@@@@................................        ",
"        ....@@@@....@@@@................................        ",
"        ....@@@@....@@@@................................        ",
"        ....@@@@....@@@@................................        ",
"        ....@@@@....@@@@................................        ",
"        ....@@@@....@@@@................................        ",
"        ....@@@@....@@@@................................        ",
"        ....@@@@....@@@@................########....########    ",
"        ....@@@@....@@@@................########....########    ",
"        ....@@@@....@@@@..............########################  ",
"        ....@@@@....@@@@..............########################  ",
"        ............................######$$$$########$$$$######",
"        ............................######$$$$########$$$$######",
"        ............................####$$$$$$$$####$$$$$$$$####",
"        ............................####$$$$$$$$####$$$$$$$$####",
"                                ....####$$$$$$$$####$$$$$$$$####",
"                                ....####$$$$$$$$####$$$$$$$$####",
"                                    ######$$$$########$$$$######",
"                                    ######$$$$########$$$$######",
"                                      ########################  ",
"                                      ########################  ",
"                                        ########$$$$########    ",
"                                        ########$$$$########    ",
"    %%%%%%%%%%%%%%%%%%%%%%%%%%%%%%%%%%%%$$$$$$$$%%%%$$$$        ",
"    %%%%%%%%%%%%%%%%%%%%%%%%%%%%%%%%%%%%$$$$$$$$%%%%$$$$        ",
"    %%%%%%%%%%%%%%%%%%%%%%%%%%%%%%%%%%%%%%%%%%%%%%%%%%%%        ",
"    %%%%%%%%%%%%%%%%%%%%%%%%%%%%%%%%%%%%%%%%%%%%%%%%%%%%        ",
"    %%%%%%%%%%%%%%%%%%%%%%%%%%%%%%%%%%%%%%%%%%%%%%%%%%%%        ",
"    %%%%%%%%%%%%%%%%%%%%%%%%%%%%%%%%%%%%%%%%%%%%%%%%%%%%        ",
"    %%%%%%%%%%%%%%%%%%%%%%%%%%%%%%%%%%%%%%%%%%%%%%%%%%%%        ",
"    %%%%%%%%%%%%%%%%%%%%%%%%%%%%%%%%%%%%%%%%%%%%%%%%%%%%        ",
"&&&&&&&&&&&&&&&&%%%%%%%%%%%%%%%%%%%%%%%%%%%%%%%%%%%%%%%%        ",
"&&&&&&&&&&&&&&&&%%%%%%%%%%%%%%%%%%%%%%%%%%%%%%%%%%%%%%%%        ",
"&&&&&&&&&&&&&&&&&&%%%%%%%%%%%%%%%%%%%%%%%%%%%%%%%%%%%%%%        ",
"&&&&&&&&&&&&&&&&&&%%%%%%%%%%%%%%%%%%%%%%%%%%%%%%%%%%%%%%        ",
"  &&&&&&&&&&&&&&&&&&%%%%%%%%%%%%%%%%%%%%%%%%%%%%%%%%%%          ",
"  &&&&&&&&&&&&&&&&&&%%%%%%%%%%%%%%%%%%%%%%%%%%%%%%%%%%          ",
"    &&&&&&&&&&&&&&&&&&%%%%%%%%%%%%%%%%%%%%%%%%%%%%%%            ",
"    &&&&&&&&&&&&&&&&&&%%%%%%%%%%%%%%%%%%%%%%%%%%%%%%            ",
"      &&&&&&&&&&&&&&&&&&        &&&&&&&&&&&&                    ",
"      &&&&&&&&&&&&&&&&&&        &&&&&&&&&&&&                    ",
"        &&&&&&&&&&&&&&&&        &&&&&&&&&&&&                    ",
"        &&&&&&&&&&&&&&&&        &&&&&&&&&&&&                    ",
"                        &&&&&&&&&&&&&&&&&&&&&&&&                ",
"                        &&&&&&&&&&&&&&&&&&&&&&&&                ",
"                        &&&&&&&&&&&&&&&&&&&&&&&&                ",
"                        &&&&&&&&&&&&&&&&&&&&&&&&                "};
