/* XPM */
static char * enemy04_r_xpm[] = {
"64 64 7 1",
" 	c #000000",
".	c #AAAADD",
"+	c #FFFFFF",
"@	c #0099FF",
"#	c #8800FF",
"$	c #8888BB",
"%	c #FF0077",
"                     ..........................                 ",
"                     ..........................                 ",
"               ....................................             ",
"               ....................................             ",
"           ............................++++..........           ",
"           ............................++++..........           ",
"         ..............................++++++........           ",
"         ..............................++++++........           ",
"         ................................++++++........         ",
"         ................................++++++........         ",
"       ....................................++++........         ",
"       ....................................++++........         ",
"       ................................................         ",
"       ................................................         ",
"       ................................................         ",
"       ................................................         ",
"       ................................    ....    ....         ",
"       ................................    ....    ....         ",
"       ................................    ....    ....         ",
"       ................................    ....    ....         ",
"       ................................    ....    ....         ",
"       ................................    ....    ....         ",
"       ................................    ....    ....         ",
"       ................................    ....    ....         ",
"   @@@@@@@@....@@@@@@@@................    ....    ....         ",
"   @@@@@@@@....@@@@@@@@................    ....    ....         ",
" @@@@@@@@@@@@@@@@@@@@@@@@..............    ....    ....         ",
" @@@@@@@@@@@@@@@@@@@@@@@@..............    ....    ....         ",
"@@@@@####@@@@@@@@####@@@@@@............................         ",
"@@@@@####@@@@@@@@####@@@@@@............................         ",
"@@@########@@@@########@@@@............................         ",
"@@@########@@@@########@@@@............................         ",
"@@@########@@@@########@@@@....                                 ",
"@@@########@@@@########@@@@....                                 ",
"@@@@@####@@@@@@@@####@@@@@@                                     ",
"@@@@@####@@@@@@@@####@@@@@@                                     ",
" @@@@@@@@@@@@@@@@@@@@@@@@                                       ",
" @@@@@@@@@@@@@@@@@@@@@@@@                                       ",
"   @@@@@@@@####@@@@@@@@                                         ",
"   @@@@@@@@####@@@@@@@@                                         ",
"       ####$$$$########$$$$$$$$$$$$$$$$$$$$$$$$$$$$$$$$$$$$     ",
"       ####$$$$########$$$$$$$$$$$$$$$$$$$$$$$$$$$$$$$$$$$$     ",
"       $$$$$$$$$$$$$$$$$$$$$$$$$$$$$$$$$$$$$$$$$$$$$$$$$$$$     ",
"       $$$$$$$$$$$$$$$$$$$$$$$$$$$$$$$$$$$$$$$$$$$$$$$$$$$$     ",
"       $$$$$$$$$$$$$$$$$$$$$$$$$$$$$$$$$$$$$$$$$$$$$$$$$$$$     ",
"       $$$$$$$$$$$$$$$$$$$$$$$$$$$$$$$$$$$$$$$$$$$$$$$$$$$$     ",
"       $$$$$$$$$$$$$$$$$$$$$$$$$$$$$$$$$$$$$$$$$$$$$$$$$$$$     ",
"       $$$$$$$$$$$$$$$$$$$$$$$$$$$$$$$$$$$$$$$$$$$$$$$$$$$$     ",
"       $$$$$$$$$$$$$$$$$$$$$$$$$$$$$$$$$$$$$$$$%%%%%%%%%%%%%%%% ",
"       $$$$$$$$$$$$$$$$$$$$$$$$$$$$$$$$$$$$$$$$%%%%%%%%%%%%%%%% ",
"       $$$$$$$$$$$$$$$$$$$$$$$$$$$$$$$$$$$$$$%%%%%%%%%%%%%%%%%% ",
"       $$$$$$$$$$$$$$$$$$$$$$$$$$$$$$$$$$$$$$%%%%%%%%%%%%%%%%%% ",
"         $$$$$$$$$$$$$$$$$$$$$$$$$$$$$$$$$$%%%%%%%%%%%%%%%%%%   ",
"         $$$$$$$$$$$$$$$$$$$$$$$$$$$$$$$$$$%%%%%%%%%%%%%%%%%%   ",
"           $$$$$$$$$$$$$$$$$$$$$$$$$$$$$$%%%%%%%%%%%%%%%%%%     ",
"           $$$$$$$$$$$$$$$$$$$$$$$$$$$$$$%%%%%%%%%%%%%%%%%%     ",
"                   %%%%%%%%%%%%        %%%%%%%%%%%%%%%%%%       ",
"                   %%%%%%%%%%%%        %%%%%%%%%%%%%%%%%%       ",
"                   %%%%%%%%%%%%        %%%%%%%%%%%%%%%%         ",
"                   %%%%%%%%%%%%        %%%%%%%%%%%%%%%%         ",
"               %%%%%%%%%%%%%%%%%%%%%%%%                         ",
"               %%%%%%%%%%%%%%%%%%%%%%%%                         ",
"               %%%%%%%%%%%%%%%%%%%%%%%%                         ",
"               %%%%%%%%%%%%%%%%%%%%%%%%                         "};
