/* XPM */
static char * exit_xpm[] = {
"64 64 8 1",
" 	c #000000",
".	c #CCCCAA",
"+	c #888866",
"@	c #AAAA88",
"#	c #775555",
"$	c #AA7744",
"%	c #EEAA66",
"&	c #CC8855",
"                   .....++++@@@@....+++++@@@@                   ",
"                   .....++++@@@@....+++++@@@@                   ",
"                   .....++++@@@@....+++++@@@@                   ",
"                   .....++++@@@@....+++++@@@@                   ",
"               @@@@@@@@@++++@@@@@@@@+++++@@@@....               ",
"               @@@@@@@@@++++@@@@@@@@+++++@@@@....               ",
"               @@@@@@@@@++++@@@@@@@@+++++@@@@....               ",
"               @@@@@@@@@++++@@@@@@@@+++++@@@@....               ",
"               @@@@@@@@@++++@@@@@@@@+++++@@@@....               ",
"           +++++++++++++#################++++++++++++           ",
"           +++++++++++++#################++++++++++++           ",
"           +++++++++++++#################++++++++++++           ",
"           +++++++++++++#################++++++++++++           ",
"       @@@@....++++$$$$$%%%%        $$$$$####++++@@@@.....      ",
"       @@@@....++++$$$$$%%%%        $$$$$####++++@@@@.....      ",
"       @@@@....++++$$$$$%%%%        $$$$$####++++@@@@.....      ",
"       @@@@....++++$$$$$%%%%        $$$$$####++++@@@@.....      ",
"       @@@@@@@@$$$$$$$$$%%%%        $$$$$%%%%####@@@@@@@@@      ",
"       @@@@@@@@$$$$$$$$$%%%%        $$$$$%%%%####@@@@@@@@@      ",
"       @@@@@@@@$$$$$$$$$%%%%        $$$$$%%%%####@@@@@@@@@      ",
"       @@@@@@@@$$$$$$$$$%%%%        $$$$$%%%%####@@@@@@@@@      ",
"  +++++++++++++#############        #############+++++++++++++  ",
"  +++++++++++++#############        #############+++++++++++++  ",
"  +++++++++++++#############        #############+++++++++++++  ",
"  +++++++++++++#############        #############+++++++++++++  ",
"  +++++++++++++#############        #############+++++++++++++  ",
"  @@@@@....$$$$$$$$$$$$$%%%%        $$$$$%%%%&&&&####@@@@@....  ",
"  @@@@@....$$$$$$$$$$$$$%%%%        $$$$$%%%%&&&&####@@@@@....  ",
"  @@@@@....$$$$$$$$$$$$$%%%%        $$$$$%%%%&&&&####@@@@@....  ",
"  @@@@@....$$$$$$$$$$$$$%%%%        $$$$$%%%%&&&&####@@@@@....  ",
"  @@@@@@@@@#################        #################@@@@@@@@@  ",
"  @@@@@@@@@#################        #################@@@@@@@@@  ",
"  @@@@@@@@@#################        #################@@@@@@@@@  ",
"  @@@@@@@@@#################        #################@@@@@@@@@  ",
"  +++++++++$$$$$$$$$$$$$%%%%        $$$$$%%%%&&&&####+++++++++  ",
"  +++++++++$$$$$$$$$$$$$%%%%        $$$$$%%%%&&&&####+++++++++  ",
"  +++++++++$$$$$$$$$$$$$%%%%        $$$$$%%%%&&&&####+++++++++  ",
"  +++++++++$$$$$$$$$$$$$%%%%        $$$$$%%%%&&&&####+++++++++  ",
"  @@@@@....&&&&&&&&%%%%%####        #################@@@@@....  ",
"  @@@@@....&&&&&&&&%%%%%####        #################@@@@@....  ",
"  @@@@@....&&&&&&&&%%%%%####        #################@@@@@....  ",
"  @@@@@....&&&&&&&&%%%%%####        #################@@@@@....  ",
"  @@@@@....&&&&&&&&%%%%%####        #################@@@@@....  ",
"  @@@@@@@@@&&&&    %%%%%&&&&%%%%    $$$$$%%%%&&&&####@@@@@@@@@  ",
"  @@@@@@@@@&&&&    %%%%%&&&&%%%%    $$$$$%%%%&&&&####@@@@@@@@@  ",
"  @@@@@@@@@&&&&    %%%%%&&&&%%%%    $$$$$%%%%&&&&####@@@@@@@@@  ",
"  @@@@@@@@@&&&&    %%%%%&&&&%%%%    $$$$$%%%%&&&&####@@@@@@@@@  ",
"  +++++++++&&&&    %%%%%####        #################+++++++++  ",
"  +++++++++&&&&    %%%%%####        #################+++++++++  ",
"  +++++++++&&&&    %%%%%####        #################+++++++++  ",
"  +++++++++&&&&    %%%%%####        #################+++++++++  ",
"  @@@@@....&&&&&&&&%%%%%%%%%        $$$$$%%%%&&&&####@@@@@....  ",
"  @@@@@....&&&&&&&&%%%%%%%%%        $$$$$%%%%&&&&####@@@@@....  ",
"  @@@@@....&&&&&&&&%%%%%%%%%        $$$$$%%%%&&&&####@@@@@....  ",
"  @@@@@....&&&&&&&&%%%%%%%%%        $$$$$%%%%&&&&####@@@@@....  ",
"  @@@@@@@@@#################        #################@@@@@@@@@  ",
"  @@@@@@@@@#################        #################@@@@@@@@@  ",
"  @@@@@@@@@#################        #################@@@@@@@@@  ",
"  @@@@@@@@@#################        #################@@@@@@@@@  ",
"  @@@@@@@@@#################        #################@@@@@@@@@  ",
"  +++++++++$$$$$$$$$$$$$%%%%        $$$$$%%%%&&&&####+++++++++  ",
"  +++++++++$$$$$$$$$$$$$%%%%        $$$$$%%%%&&&&####+++++++++  ",
"  +++++++++$$$$$$$$$$$$$%%%%        $$$$$%%%%&&&&####+++++++++  ",
"  +++++++++$$$$$$$$$$$$$%%%%        $$$$$%%%%&&&&####+++++++++  "};
