/* XPM */
static char * exit_xpm[] = {
"64 64 625 2",
"  	c #72751B",
". 	c #5C4226",
"+ 	c #5A3C27",
"@ 	c #5A3B27",
"# 	c #6A6520",
"$ 	c #776E62",
"% 	c #868579",
"& 	c #848275",
"* 	c #88877B",
"= 	c #5E4532",
"- 	c #786F63",
"; 	c #69594B",
"> 	c #625124",
", 	c #6E6C1E",
"' 	c #686022",
") 	c #5E452C",
"! 	c #624937",
"~ 	c #625229",
"{ 	c #6C691F",
"] 	c #614F2A",
"^ 	c #868578",
"/ 	c #675544",
"( 	c #838371",
"_ 	c #5B3D27",
": 	c #675D26",
"< 	c #7B7569",
"[ 	c #8C8B80",
"} 	c #99978F",
"| 	c #949289",
"1 	c #98968E",
"2 	c #665444",
"3 	c #94928B",
"4 	c #918F88",
"5 	c #929088",
"6 	c #5D4527",
"7 	c #98968D",
"8 	c #7C7970",
"9 	c #8E8C84",
"0 	c #6B675D",
"a 	c #6C685E",
"b 	c #5B4231",
"c 	c #6D685F",
"d 	c #6C675E",
"e 	c #6D695F",
"f 	c #635424",
"g 	c #766D60",
"h 	c #95938B",
"i 	c #5B3D2A",
"j 	c #69645B",
"k 	c #5D4329",
"l 	c #949188",
"m 	c #6B665D",
"n 	c #68635A",
"o 	c #6C665E",
"p 	c #69584A",
"q 	c #7D7A71",
"r 	c #6A665C",
"s 	c #6A655C",
"t 	c #6B655D",
"u 	c #7B776E",
"v 	c #6A645C",
"w 	c #593D2A",
"x 	c #53321E",
"y 	c #614D3E",
"z 	c #69635B",
"A 	c #615247",
"B 	c #69655B",
"C 	c #676259",
"D 	c #68625A",
"E 	c #676159",
"F 	c #4F2913",
"G 	c #502B15",
"H 	c #4F2A14",
"I 	c #5D5348",
"J 	c #492513",
"K 	c #5C4E42",
"L 	c #5C5247",
"M 	c #876E4F",
"N 	c #816645",
"O 	c #7F6544",
"P 	c #7F6444",
"Q 	c #674527",
"R 	c #7D6141",
"S 	c #7C6141",
"T 	c #7E6344",
"U 	c #674427",
"V 	c #795E3C",
"W 	c #7E6241",
"X 	c #7E6240",
"Y 	c #7C613E",
"Z 	c #69482A",
"` 	c #826848",
" .	c #7B6140",
"..	c #7B6041",
"+.	c #755737",
"@.	c #886E4E",
"#.	c #806545",
"$.	c #684628",
"%.	c #7A5E3D",
"&.	c #7C613F",
"*.	c #69492B",
"=.	c #7C6140",
"-.	c #7B6141",
";.	c #7B6040",
">.	c #785C3B",
",.	c #644225",
"'.	c #836848",
").	c #806445",
"!.	c #6B4A2B",
"~.	c #7D6243",
"{.	c #684629",
"].	c #7D6240",
"^.	c #7D6140",
"/.	c #6A492C",
"(.	c #7A6040",
"_.	c #7A5F40",
":.	c #6C4C2F",
"<.	c #775B3B",
"[.	c #68482A",
"}.	c #806544",
"|.	c #6B492B",
"1.	c #684729",
"2.	c #7D6241",
"3.	c #6A4A2D",
"4.	c #6D4E31",
"5.	c #7A603F",
"6.	c #5B4738",
"7.	c #765A3A",
"8.	c #69482B",
"9.	c #674629",
"0.	c #7F6441",
"a.	c #7E6341",
"b.	c #6B4A2D",
"c.	c #7A6140",
"d.	c #6E5032",
"e.	c #7A603E",
"f.	c #765B3B",
"g.	c #6B4B2D",
"h.	c #7F6343",
"i.	c #6A492B",
"j.	c #826746",
"k.	c #7D6341",
"l.	c #6A4B2D",
"m.	c #6E5033",
"n.	c #7A5F3E",
"o.	c #5F4D40",
"p.	c #75593A",
"q.	c #755A3A",
"r.	c #7E6343",
"s.	c #7E6445",
"t.	c #664025",
"u.	c #6C4C2E",
"v.	c #836847",
"w.	c #653F25",
"x.	c #6C4F31",
"y.	c #7A5E3E",
"z.	c #61513E",
"A.	c #5C361D",
"B.	c #5E371E",
"C.	c #603920",
"D.	c #603A21",
"E.	c #623C22",
"F.	c #633D23",
"G.	c #643E23",
"H.	c #643E24",
"I.	c #938472",
"J.	c #694228",
"K.	c #6B4B2E",
"L.	c #836947",
"M.	c #928371",
"N.	c #633D24",
"O.	c #623D23",
"P.	c #613B23",
"Q.	c #613B21",
"R.	c #5E3920",
"S.	c #5E371F",
"T.	c #5C361E",
"U.	c #655A38",
"V.	c #5E5146",
"W.	c #5D4D41",
"X.	c #5F5349",
"Y.	c #5B483B",
"Z.	c #5C4A3D",
"`.	c #7D6C55",
" +	c #7C6C56",
".+	c #81715C",
"++	c #81705B",
"@+	c #81715B",
"#+	c #867661",
"$+	c #7D6D56",
"%+	c #8E7F6A",
"&+	c #826947",
"*+	c #7A6953",
"=+	c #857561",
"-+	c #7F6F5A",
";+	c #7F6F59",
">+	c #7F6E59",
",+	c #7F705B",
"'+	c #7B6B55",
")+	c #614F42",
"!+	c #6C675F",
"~+	c #553623",
"{+	c #715B43",
"]+	c #75624B",
"^+	c #75624C",
"/+	c #76634D",
"(+	c #7B6954",
"_+	c #7B6A54",
":+	c #7C6C55",
"<+	c #7D6C56",
"[+	c #8C7D68",
"}+	c #674126",
"|+	c #795F3F",
"1+	c #795E3F",
"2+	c #7E6443",
"3+	c #7A6A53",
"4+	c #796852",
"5+	c #786651",
"6+	c #73614A",
"7+	c #73604A",
"8+	c #72604A",
"9+	c #563A29",
"0+	c #715A43",
"a+	c #76634C",
"b+	c #7A6853",
"c+	c #7A6854",
"d+	c #562E15",
"e+	c #68472A",
"f+	c #552D15",
"g+	c #796851",
"h+	c #776650",
"i+	c #5C4536",
"j+	c #573B2A",
"k+	c #532C15",
"l+	c #542C15",
"m+	c #542D15",
"n+	c #552E15",
"o+	c #7C6B55",
"p+	c #6F5032",
"q+	c #826948",
"r+	c #7A6952",
"s+	c #522C15",
"t+	c #522B14",
"u+	c #573B29",
"v+	c #644227",
"w+	c #654429",
"x+	c #69482C",
"y+	c #5D391F",
"z+	c #6E4F31",
"A+	c #7D6343",
"B+	c #836A49",
"C+	c #6A4A2C",
"D+	c #694A2C",
"E+	c #69492C",
"F+	c #68492C",
"G+	c #68482B",
"H+	c #563826",
"I+	c #745839",
"J+	c #5E3A20",
"K+	c #6E4F32",
"L+	c #785D3F",
"M+	c #68472B",
"N+	c #856B4B",
"O+	c #79603F",
"P+	c #795F40",
"Q+	c #6F5234",
"R+	c #735939",
"S+	c #735838",
"T+	c #553825",
"U+	c #634126",
"V+	c #796040",
"W+	c #6D4F31",
"X+	c #67462A",
"Y+	c #866D4C",
"Z+	c #7C6240",
"`+	c #694A2D",
" @	c #7C6242",
".@	c #7A5F3F",
"+@	c #6E5132",
"@@	c #735739",
"#@	c #735738",
"$@	c #725738",
"%@	c #584132",
"&@	c #745838",
"*@	c #785F3F",
"=@	c #785D3D",
"-@	c #7D6242",
";@	c #856D4C",
">@	c #69492D",
",@	c #795F3E",
"'@	c #5D4630",
")@	c #573F30",
"!@	c #53392B",
"~@	c #785C3C",
"{@	c #785C3E",
"]@	c #775D3D",
"^@	c #856C4C",
"/@	c #6B4B2F",
"(@	c #7C6142",
"_@	c #785E3E",
":@	c #785F3E",
"<@	c #725638",
"[@	c #725538",
"}@	c #61522D",
"|@	c #6E6E24",
"1@	c #573C2D",
"2@	c #543624",
"3@	c #543523",
"4@	c #584031",
"5@	c #594234",
"6@	c #5B493C",
"7@	c #5A473A",
"8@	c #775C3C",
"9@	c #775C3D",
"0@	c #765B3D",
"a@	c #765D3D",
"b@	c #765C3D",
"c@	c #66452A",
"d@	c #6C4D30",
"e@	c #7C6143",
"f@	c #6D5032",
"g@	c #715637",
"h@	c #715537",
"i@	c #707120",
"j@	c #69645C",
"k@	c #6B675E",
"l@	c #4E2A16",
"m@	c #765A3B",
"n@	c #6D4E30",
"o@	c #765A3C",
"p@	c #765B3C",
"q@	c #654528",
"r@	c #856B4C",
"s@	c #7B603F",
"t@	c #6C4F30",
"u@	c #665F58",
"v@	c #512D19",
"w@	c #735638",
"x@	c #755A3B",
"y@	c #5B351C",
"z@	c #613B22",
"A@	c #5F3920",
"B@	c #6F5133",
"C@	c #785D3C",
"D@	c #715437",
"E@	c #715436",
"F@	c #512E19",
"G@	c #725637",
"H@	c #74593A",
"I@	c #6C4E30",
"J@	c #75593B",
"K@	c #5D371E",
"L@	c #8E806B",
"M@	c #8C7E69",
"N@	c #8C7E68",
"O@	c #8B7D68",
"P@	c #5D381F",
"Q@	c #6F5132",
"R@	c #785C3D",
"S@	c #705435",
"T@	c #6F5435",
"U@	c #512F1A",
"V@	c #6B4D30",
"W@	c #735839",
"X@	c #5E381F",
"Y@	c #75654E",
"Z@	c #75644E",
"`@	c #75634D",
" #	c #765C3C",
".#	c #67482B",
"+#	c #6F5335",
"@#	c #69655C",
"##	c #522F1B",
"$#	c #6B4D2F",
"%#	c #5B351D",
"&#	c #73614B",
"*#	c #74614C",
"=#	c #512A13",
"-#	c #74624C",
";#	c #74604A",
">#	c #5C351E",
",#	c #6D4F32",
"'#	c #66472A",
")#	c #6F5135",
"!#	c #52301B",
"~#	c #6B4C2F",
"{#	c #715C46",
"]#	c #715D47",
"^#	c #705C46",
"/#	c #74583A",
"(#	c #65452A",
"_#	c #6E5134",
":#	c #52301C",
"<#	c #6D563E",
"[#	c #6D553E",
"}#	c #6C553D",
"|#	c #6B553D",
"1#	c #502913",
"2#	c #605045",
"3#	c #655D56",
"4#	c #68635B",
"5#	c #6A4C2E",
"6#	c #7A6142",
"7#	c #705637",
"8#	c #5F3922",
"9#	c #512A14",
"0#	c #603B22",
"a#	c #644529",
"b#	c #6D5033",
"c#	c #6D5034",
"d#	c #5C4B3E",
"e#	c #5D5044",
"f#	c #5D4F43",
"g#	c #594537",
"h#	c #584234",
"i#	c #58321B",
"j#	c #59331C",
"k#	c #5B341D",
"l#	c #5B361E",
"m#	c #5D3820",
"n#	c #5E3921",
"o#	c #8E806D",
"p#	c #5F3921",
"q#	c #58341B",
"r#	c #8E7F6D",
"s#	c #5E3821",
"t#	c #5E3820",
"u#	c #5D3720",
"v#	c #5D371F",
"w#	c #5A351E",
"x#	c #5A341D",
"y#	c #58331C",
"z#	c #57321B",
"A#	c #604F42",
"B#	c #553826",
"C#	c #796752",
"D#	c #7D6D58",
"E#	c #7C6B57",
"F#	c #7C6C57",
"G#	c #847460",
"H#	c #857661",
"I#	c #776751",
"J#	c #8B7D69",
"K#	c #624125",
"L#	c #81715D",
"M#	c #7C6B56",
"N#	c #7B6A56",
"O#	c #563A28",
"P#	c #6D5740",
"Q#	c #705D47",
"R#	c #715E48",
"S#	c #75634E",
"T#	c #75644F",
"U#	c #76644F",
"V#	c #786751",
"W#	c #897B67",
"X#	c #725839",
"Y#	c #624126",
"Z#	c #603A22",
"`#	c #73614D",
" $	c #6F5C47",
".$	c #6A645D",
"+$	c #6C5540",
"@$	c #6F5D48",
"#$	c #705D48",
"$$	c #75634F",
"%$	c #502A14",
"&$	c #725739",
"*$	c #624227",
"=$	c #74634E",
"-$	c #73614C",
";$	c #6F5C46",
">$	c #776651",
",$	c #624127",
"'$	c #715536",
")$	c #614126",
"!$	c #725737",
"~$	c #6F5E49",
"{$	c #623E22",
"]$	c #634124",
"^$	c #654427",
"/$	c #654529",
"($	c #59361D",
"_$	c #66482B",
":$	c #66462A",
"<$	c #614026",
"[$	c #705436",
"}$	c #694B2E",
"|$	c #603F25",
"1$	c #644428",
"2$	c #633F22",
"3$	c #5E4C3F",
"4$	c #6E5133",
"5$	c #59361E",
"6$	c #6F5436",
"7$	c #67492C",
"8$	c #614025",
"9$	c #5C3920",
"0$	c #604025",
"a$	c #67472B",
"b$	c #765B3A",
"c$	c #603E24",
"d$	c #6B4E31",
"e$	c #6B4D31",
"f$	c #6B4C31",
"g$	c #5E4B3E",
"h$	c #573D2D",
"i$	c #512E1A",
"j$	c #5F3E23",
"k$	c #6F5336",
"l$	c #705536",
"m$	c #613F25",
"n$	c #57351D",
"o$	c #603E25",
"p$	c #5F3E24",
"q$	c #573E2E",
"r$	c #502C16",
"s$	c #532F18",
"t$	c #6E5235",
"u$	c #5F3D23",
"v$	c #5E3D23",
"w$	c #56321C",
"x$	c #58341E",
"y$	c #59361F",
"z$	c #5C3822",
"A$	c #5C3922",
"B$	c #5B3821",
"C$	c #5A3720",
"D$	c #5A361F",
"E$	c #57331C",
"F$	c #55311A",
"G$	c #553019",
"H$	c #542F19",
"I$	c #522D17",
"J$	c #4E2812",
"K$	c #512C15",
"L$	c #532E17",
"M$	c #57331B",
"N$	c #57341C",
"O$	c #58351D",
"P$	c #5A351F",
"Q$	c #59351D",
"R$	c #59341D",
"S$	c #58341C",
"T$	c #58341D",
"U$	c #56311A",
"V$	c #543019",
"W$	c #542F18",
"X$	c #767469",
"Y$	c #7D7B71",
"Z$	c #522F1A",
"`$	c #75624D",
" %	c #76634E",
".%	c #766450",
"+%	c #776551",
"@%	c #786652",
"#%	c #796854",
"$%	c #7A6A56",
"%%	c #7D6F5D",
"&%	c #7F7262",
"*%	c #807363",
"=%	c #807362",
"-%	c #7D6D5B",
";%	c #7B6B58",
">%	c #7A6956",
",%	c #796855",
"'%	c #776654",
")%	c #776653",
"!%	c #756552",
"~%	c #746452",
"{%	c #746451",
"]%	c #736351",
"^%	c #7D7B70",
"/%	c #53301A",
"(%	c #867966",
"_%	c #8C7F6E",
":%	c #948776",
"<%	c #8C7F6D",
"[%	c #857865",
"}%	c #857765",
"|%	c #857764",
"1%	c #7C7A70",
"2%	c #53321D",
"3%	c #66523F",
"4%	c #675240",
"5%	c #6A5844",
"6%	c #6B5844",
"7%	c #6B5845",
"8%	c #6C5946",
"9%	c #6B5946",
"0%	c #6B5947",
"a%	c #6C5A48",
"b%	c #6C5B48",
"c%	c #736452",
"d%	c #736350",
"e%	c #6D5C48",
"f%	c #6D5B48",
"g%	c #6C5B47",
"h%	c #6C5A47",
"i%	c #6A5845",
"j%	c #695542",
"k%	c #654F3C",
"l%	c #65503D",
"m%	c #6A5642",
"n%	c #6B5945",
"o%	c #6C5B49",
"p%	c #695541",
"q%	c #7C766D",
"r%	c #86847B",
"s%	c #654F3D",
"t%	c #685642",
"u%	c #695642",
"v%	c #6C5945",
"w%	c #746453",
"x%	c #6A5744",
"y%	c #6A5743",
"z%	c #666057",
"A%	c #706B62",
"B%	c #644F3C",
"C%	c #6B5846",
"D%	c #746553",
"E%	c #746350",
"F%	c #6C5C48",
"G%	c #6C5C47",
"H%	c #4D2712",
"          . + @ . @ @ @ @ @ @ @   @ @ @ @ @ @ @ @ @ @ @ @ @ @ @ @ @ @ @ @ @ @ @ @ @ @ @ @ @ @ @ @ @ @ @ @ @ @ @ @ @ @           ",
"      # . . $ % % & % % % % * % = % % % % % % % % % % % % % % % % % % % % % % % % % % % % % * = % * % % % % & % % - ; > ,       ",
"    ' @ ) % % % % % % % % % % % ! % % % % % % % % % % % % % % % % % % % % % % % % % % % % % % ! % % % % % % % % % % % ~ @ {     ",
"  ] @ ^ % % % % % % % % % % % % / % % % % % % % % % % % % % % % % % % % % % % % % % % % % % % / % % % % % % % % % % % % ( _ :   ",
"  @ < % % % [ } | } } } } | 1 } 2 3 } } } 3 3 3 3 3 3 3 3 3 3 3 4 4 4 4 4 4 4 4 4 4 4 5 3 } } 2 } 1 | } } } } | } [ % % % < @   ",
"6 + % % % 7 } 8 9 0 0 0 0 0 a a b c c c a c c c c c d a a a a a e e e c c c c c c c e e e e e b a a 0 0 0 0 0 9 8 } 7 % % % . f ",
"@ g % h } 1 0 0 0 0 0 0 0 0 0 0 b c c a a a c c c a d d d d d d c c c c c c c c c c c c c e c b 0 0 0 0 0 0 0 0 0 0 1 } h % g @ ",
"i % % } e 0 0 0 0 0 0 0 j j d d b c a a d d a a a d d d d d d d c c c c c c c c a a a a a a d b d d j j 0 0 0 0 0 0 0 e } % % k ",
"@ l } 0 0 0 0 0 0 0 0 d m n d d b d d d d d 0 0 d d d d d o m m c a a a a a a a a a a d d d d b d d n m d 0 0 0 0 0 0 0 0 } l @ ",
"p } q 0 0 0 0 r n j j j j 0 0 0 b m m m m m m m m m m m m m m m d d d d d d d d d d d 0 0 0 0 b 0 0 0 j j j j n r 0 0 0 0 q } p ",
"p 7 0 0 s n n n n n n n j m m m b m m m m m t t s s s s r r r r 0 m m m m m m m m m m m m m m b m m m j n n n n n n n s 0 0 7 p ",
"p u 0 0 n n n n n n n j v t t t w t t s v v v v v v v v s s s s s s s s s s s s s s s s t t t w t t t v j n n n n n n n 0 0 u p ",
"p 0 r n n j j n n n j j j s v s x j j j j j j j j j j j j j j j s s s s s s s s s s s s s s v x s v s j j j n n n j j n n r 0 p ",
"y 0 v j r n n n n n n j j j j j x z z z z z z j j j j j j j j j j j v j j j j j j j j j j j j x j j j j j n n n n n n r j v 0 y ",
"A z z z z n z B j z z z z z n n x n n n n n n n n n n n n n z z z z z z z z z z z z z z z z n x n n z z z z z j B z n z z z z A ",
"b C C C C C C D C D D D n n n D x D D D D D D D D D n n D n n n C C C C C C C D C D D D n n n x D n n n D D D C D C C C C C C b ",
"b E E E E E E E E E E E E E E E x E E E E E E E E E E E E E E E E E E E E E E E E E E E E E E x E E E E E E E E E E E E E E E b ",
"b E E E E E E E E E E E E E E E x E E E E E E E E E E E E E E E E E E E E E E E E E E E E E E x E E E E E E E E E E E E E E E b ",
"  F F F F F F F F F F F F G H H I F F F F F F F F F F F F F J J J J F F F F F F F F F F F F F I H H G F F F F F F F F F F F F   ",
"b K L L L L L L L L L L L L L I L I I I I F M N O P Q R S R S T U V W W X Y Z `  ...J I I I I L I L L L L L L L L L L L L L K b ",
"b L L L L L L L L L L L L L L I L I I F J +.@.#.N #.U S S S S T $.%.W W X &.*.=.-...;.J J I I L I L L L L L L L L L L L L L L b ",
"b L L L L L L L L L L L L L L I L I F >.,.'.P O O ).!.S S S ..~.{.X X X ].^./.S ;.;.(._.:.J I L I L L L L L L L L L L L L L L b ",
"b L L L L L L L L L L L L L L I I J <.<.[.T }.}.}.P |.;.;.;.;.#.1.X X ^.2.2.3.-.;.;.(.(.4.5.F I I L L L L L L L L L L L L L L b ",
"6.L L L L L L L L L L L L L L I F 7.7.<.8.T P }.}.P |.;.;.;.;.#.9.0.a.a.a.a.b..... .c.(.d.5.e.F I L L L L L L L L L L L L L L 6.",
"6.L L L L L L L L L L L L L L I J 7.7.f.g.h.P P }.P i.;.;.;.;.}.9.j.a.a.a.k.l.;. . .(.(.m.5.n.J I L L L L L L L L L L L L L L 6.",
"o.E E E E E E E E E E E E E t F p.q.7.7.g.r.r.s.t.T u._._._._.P i.v.a.a.a.k.3.;.w.c.(.(.x.5.n.y.F t E E E E E E E E E E E E E o.",
"z.E E E E E E E E E E E E E t F A.B.C.D.E.F.G.H.I.J.K._._._._.P 8.L.a.a.k.].3.w.M.N.O.P.Q.R.S.T.F t E E E E E E E E E E E E E U.",
"  V.V.V.V.W.W.W.V.V.V.X.X.Y.Z.`. +.+++@+#+#+#+#+$+%+t._._._._.P Z &+2.k.].].w.M.*+=+=+-+;+>+>+,+'+Z.Y.X.X.V.V.V.W.W.W.V.V.V.V.  ",
")+c c c c c W.!+!+!+!+!+!+c c ~+{+]+^+/+*+(+_+:+<+`.[+}+|+1+1+2+Z ` ].].].w.M.3+*+4+5+6+7+7+7+8+~+c c !+!+!+!+!+!+W.c c c c c )+",
"o.E E E E E W.E E E E E E E t 9+0+]+]+a+b+c+(+'+<+`.d+1+1+1+1+r.e+` a.a.k.k.f+*+*+g+h+7+7+7+8+8+9+t E E E E E E E W.E E E E E o.",
"i+E E E E E W.E E E E E E E m j+k+l+m+m+m+f+n+f+o+n+p+1+1+1+1+r.e+q+a.2.2.2.3.m+r+m+m+k+k+k+s+t+j+m E E E E E E E W.E E E E E i+",
"o.E E E E E W.E E E E E E E m u+v+v+w+x+y+3.3.K.n+z+p+1+1+1+1+A+e+B+k.2.2.2.3.C+m+D+E+E+E+F+F+G+u+m E E E E E E E W.E E E E E o.",
"o.E E E E E W.E E E E E E E m H+I+I+I+I+J+_.(.;.3.K+K+L+L+L+L+~.M+N+2.2.2.2.3.O+D+_._.P+Q+R+I+S+H+m E E E E E E E W.E E E E E o.",
"o.E E E E E W.E E E E E E E m T+S+I+I+I+U+..P+V+_.W+z+L+L+L+L+~.X+Y+].].].Z+`+ @1+.@|+|++@@@#@$@T+m E E E E E E E W.E E E E E o.",
"b E E E E E %@E E E E E E E m u+#@#@&@&@D+;.L+1+*@3.z+=@=@=@=@-@X+;@].Z+Z+=.>@ @,@|+|+|+d.#@#@$@u+m E E E E E E E %@E E E E E b ",
"'@E E E E E )@E E E E E E E m !@#@#@#@#@D+S ~@{@{@>@z+=@]@]@=@ @X+^@Z+=.=.=./@(@_@:@:@_@d.<@<@[@!@m E E E E E E E )@E E E E E }@",
"|@Y.Y.1@1@2@3@4@5@6@X.X.X.7@7@$@#@#@#@#@E+-.8@~@~@9@4.0@a@b@b@ @c@^@=.=.=.=.d@e@_@=@=@]@f@g@g@h@h@7@7@X.X.X.6@5@4@3@2@1@1@Y.Y.i@",
"b j@j@j@j@j@j@j@j@j@j@j@j@k@k@l@$@$@#@#@E+..f.f.f.m@n@o@p@0@0@(@q@r@s@s@ . .t@(@8@=@]@]@W+h@h@h@l@k@k@j@j@j@j@j@j@j@j@j@j@j@j@b ",
"b u@u@u@u@u@u@u@u@u@u@u@u@u@j v@$@<@w@#@E+..x@p.7.7.n@m@m@m@y@D.D.z@A@e.e.e.B@S 8@C@]@=@d@D@E@E@v@j u@u@u@u@u@u@u@u@u@u@u@u@u@b ",
"b u@u@u@u@u@u@u@u@u@u@u@u@u@j@F@G@G@G@#@E+..x@H@I+I+I@J@m@K@L@M@M@N@O@P@n.n.Q@S 8@R@]@9@d@S@S@T@F@j@u@u@u@u@u@u@u@u@u@u@u@u@u@b ",
"b u@u@u@u@u@u@u@u@u@u@u@u@u@j@U@G@G@G@G@V@_.x@W@#@#@d@J@J@X@Y@Z@Z@Y@`@T.n.n.f@-.f. #f.f..#+#+#+#U@j@u@u@u@u@u@u@u@u@u@u@u@u@u@b ",
"b u@u@u@u@u@u@u@u@u@u@u@u@u@@###g@G@G@G@$#_.G@<@#@#@d@J@J@%#&#*#=#-#;#>#H@,@,#;.q.7.q.q.'#+#)#)###@#u@u@u@u@u@u@u@u@u@u@u@u@u@b ",
"b u@u@u@u@u@u@u@u@u@u@u@u@u@@#!#g@g@G@G@~#_.G@G@G@w@d@p.J@t+{#]#=#]#^#t+H@/#I@;.m@m@m@m@(#_#_#_#!#@#u@u@u@u@u@u@u@u@u@u@u@u@u@b ",
"b u@u@u@u@u@u@u@u@u@u@u@u@u@@#:#h@g@g@g@~#_.G@G@G@G@~#W@/#=#<#[#<#}#|#1#I+I+~#;.<.f.m@x@(#_#_#_#:#@#u@u@u@u@u@u@u@u@u@u@u@u@u@b ",
"2#u@u@3#u@u@u@u@u@u@u@u@u@u@4#F h@h@h@h@5#6#7#g@8#g@~#W@W@G+1#1#1#9#1#G+I+I+$#|+0#f.f.m@a#_#b#c#F 4#u@u@u@u@u@u@u@u@u@u@3#u@u@2#",
"  X.X.d#d#6@d#d#e#e#e#e#f#g#h#i#i#j#k#l#P@m#R.n#o#p#~#W@W@W@G+G+q#G+G+I+W@W@I@0#r#s#t#u#v#w#x#y#z#h#g#f#e#e#e#e#d#d#6@d#d#X.X.  ",
"A#!+!+!+!+!+d#!+!+!+!+!+!+!+!+B#C#D#E#F#G#G#G#H#I#J#n#W@W@W@W@W@K#8@I+W@@@J@0#r#Z@L#L#M#N#N#N#F#B#!+!+!+!+!+!+!+!+d#!+!+!+!+!+A#",
"b u@u@u@u@u@d#u@u@u@u@u@u@u@v O#P#Q#R#R#S#T#U#h+V#V#W#n#g@X#X#X#Y#W@@@@@/#Z#r#Z@Z@Z@`# $ $ $ $ $O#v u@u@u@u@u@u@u@d#u@u@u@u@u@b ",
"b u@u@u@u@u@d#u@u@u@u@u@u@u@.$B#+$@$#$R#S#$$U#h+V#V#%$<@h@&$&$&$*$$@$@#@@@S@1#Z@Z@=$-$ $;$;$;$;$B#.$u@u@u@u@u@u@u@d#u@u@u@u@u@b ",
"b u@u@u@u@u@V.u@u@u@u@u@u@u@.$B#F F 1#1#1#1#1#1#>$1#,$<@'$h@$@$@)$!$$@!$!$S@,$1#~$F F F F F F F B#.$u@u@u@u@u@u@u@V.u@u@u@u@u@b ",
"i+u@u@u@u@u@X.u@u@u@u@u@u@u@.$B#{$]$^$/$($_$D+`+1#:$Y#G@'$'$'$$@<$!$[$S@S@T@)$}$F /$/$/$|$1$]$2$B#.$u@u@u@u@u@u@u@X.u@u@u@u@u@i+",
"3$u@u@u@u@u@%@u@u@u@u@u@u@u@.$:#4$d.d.4$5$6$6$6$7$[$8$'$'$'$'$'$9$!$T@+#+#+#0$x@a$b$b$b$c$d$e$f$:#.$u@u@u@u@u@u@u@%@u@u@u@u@u@3$",
"g$u@u@u@u@u@h$u@u@u@u@u@u@u@.$i$d.d.d.4$j$k$k$k$k$l$m$'$'$l$'$'$n$k$+#T@+#+#o$x@m@m@7.q.p$e$e$f$i$.$u@u@u@u@u@u@u@h$u@u@u@u@u@g$",
"2#u@u@u@u@u@q$u@u@u@u@u@u@u@.$r$4$4$4$4$j$k$k$k$k$6$p$[$l$l$[$[$s$k$+#+#t$+#u$x@x@q.p.q.v$e$e$f$r$.$u@u@u@u@u@u@u@q$u@u@u@u@u@2#",
"  w$w$w$w$w$w$w$w$w$w$w$w$w$w$w$x$y$z$z$A$B$C$C$y$D$E$F$G$H$I$J$K$L$s$F$M$N$O$P$Q$R$S$T$U$G$V$W$w$w$w$w$w$w$w$w$w$w$w$w$w$w$w$  ",
"b X$X$X$X$X$X$X$X$X$X$X$X$X$X$Y$Z$`$ %.%+%+%>$@%#%#%#%#%#%$%%%&%J$*%=%-%;%>%,%,%'%)%!%~%{%{%]%Z$Y$X$X$X$X$X$X$X$X$X$X$X$X$X$X$b ",
"b X$X$X$X$X$X$X$X$X$X$X$X$X$X$^%/%(%(%(%(%(%(%(%(%_%_%_%_%_%:%:%J$:%:%_%<%_%<%[%[%[%[%[%[%}%|%/%^%X$X$X$X$X$X$X$X$X$X$X$X$X$X$b ",
"b X$X$X$X$X$X$X$X$X$X$X$X$X$X$1%2%3%3%4%4%4%4%5%6%7%8%9%0%a%b%c%J$d%e%e%e%f%g%h%8%i%j%j%j%k%l%2%1%X$X$X$X$X$X$X$X$X$X$X$X$X$X$b ",
"b X$X$X$X$X$X$X$X$X$X$X$X$X$X$1%F 3%3%3%3%4%m%5%6%n%8%9%9%a%o%~%J$d%e%e%e%g%g%g%8%n%j%j%p%k%k%F 1%X$X$X$X$X$X$X$X$X$X$X$X$X$X$b ",
"b q%r%r%r%r%r%r%r%r%r%r%r%r%r%r%F s%3%t%t%t%u%5%5%n%v%9%9%a%o%w%J$d%e%e%e%b%g%g%x%x%y%j%j%p%p%F r%r%r%r%r%r%r%r%r%r%r%r%r%r%q%b ",
"b z%z%z%z%z%z%z%z%z%z%z%z%z%z%A%F B%t%t%t%t%t%5%6%C%8%9%h%a%a%D%J$E%e%F%e%F%G%g%8%x%y%j%j%p%p%F A%z%z%z%z%z%z%z%z%z%z%z%z%z%z%b ",
"3$z%z%z%z%z%z%z%z%z%z%z%z%z%z%A%F J$J$J$J$J$J$J$J$J$J$J$J$J$J$J$J$J$J$J$J$J$J$J$H%H%H%H%H%H%H%F A%z%z%z%z%z%z%z%z%z%z%z%z%z%z%3$",
"b z%z%z%z%z%z%z%z%z%z%z%z%z%z%A%F                                                             F A%z%z%z%z%z%z%z%z%z%z%z%z%z%z%b ",
"  F F F F F F F F F F F F F F F                                                                 F F F F F F F F F F F F F F F   "};
