/* XPM */
static char * exit_open_xpm[] = {
"64 64 7 1",
" 	c #000000",
".	c #FF7777",
"+	c #8888BB",
"@	c #FFFF00",
"#	c #AAAADD",
"$	c #8800FF",
"%	c #FFFFFF",
"                                                                ",
"                                                                ",
"                                                                ",
"                                                                ",
"          ...            +++++++++++++++           ....         ",
"          ...            +++++++++++++++           ....         ",
"          ...            +++++++++++++++           ....         ",
"          ...            +++++++++++++++           ....         ",
"      ....       ++++++++++++++++++++++++++++++        ...      ",
"      ....       ++++++++++++++++++++++++++++++        ...      ",
"      ....       ++++++++++++++++++++++++++++++        ...      ",
"  ....@@@@...++++++++                      ++++++++....@@@....  ",
"  ....@@@@...++++++++                      ++++++++....@@@....  ",
"  ....@@@@...++++++++                      ++++++++....@@@....  ",
"  ....@@@@...++++++++                      ++++++++....@@@....  ",
"  ....@@@@...++++    #######        ++++###    ++++....@@@....  ",
"  ....@@@@...++++    #######        ++++###    ++++....@@@....  ",
"  ....@@@@...++++    #######        ++++###    ++++....@@@....  ",
"  ....@@@@...++++    #######        ++++###    ++++....@@@....  ",
"      .......++++####++++###        +++++++####++++.......      ",
"      .......++++####++++###        +++++++####++++.......      ",
"      .......++++####++++###        +++++++####++++.......      ",
"      .......++++####++++###        +++++++####++++.......      ",
"  $$$$%%%%   ###############        ++++###########    %%%$$$$  ",
"  $$$$%%%%   ###############        ++++###########    %%%$$$$  ",
"  $$$$%%%%   ###############        ++++###########    %%%$$$$  ",
"      $$$$   ####++++++++###        +++++++++++####    $$$      ",
"      $$$$   ####++++++++###        +++++++++++####    $$$      ",
"      $$$$   ####++++++++###        +++++++++++####    $$$      ",
"      $$$$   ####++++++++###        +++++++++++####    $$$      ",
"      $$$$   ###############        ++++###########    $$$      ",
"      $$$$   ###############        ++++###########    $$$      ",
"      $$$$   ###############        ++++###########    $$$      ",
"      $$$$   ###############        ++++###########    $$$      ",
"      $$$$   ####++++++++###        +++++++++++####    $$$      ",
"      $$$$   ####++++++++###        +++++++++++####    $$$      ",
"      $$$$   ####++++++++###        +++++++++++####    $$$      ",
"      $$$$   ####++++++++###        +++++++++++####    $$$      ",
"             ###############        ++++###########             ",
"             ###############        ++++###########             ",
"             ###############        ++++###########             ",
"      ++++   ####++++++++###        +++++++++++####    +++      ",
"      ++++   ####++++++++###        +++++++++++####    +++      ",
"      ++++   ####++++++++###        +++++++++++####    +++      ",
"      ++++   ####++++++++###        +++++++++++####    +++      ",
"      +++++++###############        ++++###########+++++++      ",
"      +++++++###############        ++++###########+++++++      ",
"      +++++++###############        ++++###########+++++++      ",
"      +++++++###############        ++++###########+++++++      ",
"      ++++   ####++++++++###        +++++++++++####    +++      ",
"      ++++   ####++++++++###        +++++++++++####    +++      ",
"      ++++   ####++++++++###        +++++++++++####    +++      ",
"      ++++   ####++++++++###        +++++++++++####    +++      ",
"      ++++   ###############        ++++###########    +++      ",
"      ++++   ###############        ++++###########    +++      ",
"      ++++   ###############        ++++###########    +++      ",
"      ++++   ####++++++++###        +++++++++++####    +++      ",
"      ++++   ####++++++++###        +++++++++++####    +++      ",
"      ++++   ####++++++++###        +++++++++++####    +++      ",
"      ++++   ####++++++++###        +++++++++++####    +++      ",
"      ++++   ###############        ++++###########    +++      ",
"      ++++   ###############        ++++###########    +++      ",
"      ++++   ###############        ++++###########    +++      ",
"      ++++   ###############        ++++###########    +++      "};
