/* XPM */
static char * insert_xpm[] = {
"64 64 5 1",
" 	c #B41E7C",
".	c #FCC2FC",
"+	c #000000",
"@	c #00BBFF",
"#	c #800987",
"                ................                ................",
"                ................                ................",
"                ................                ................",
"                ................                ................",
"            ................                ................    ",
"            ................                ................    ",
"            ................                ................    ",
"            ................                ................    ",
"++++++++++++++++++++++++++++++++++++++++++++++++++++++++++++++++",
"++++++++++++++++++++++++++++++++++++++++++++++++++++++++++++++++",
"++++++++++++++++++++++++++++++++++++++++++++++++++++++++++++++++",
"++++++++++++++++++++++++++++++++++++++++++++++++++++++++++++++++",
"++++++++++++++++++++++++++++++++++++++++++++++++++++++++++++++++",
"++++++++++++++++++++++++++++++++++++++++++++++++++++++++++++++++",
"++++++++++++++++++++++++++++++++++++++++++++++++++++++++++++++++",
"++++++++++++++++++++++++++++++++++++++++++++++++++++++++++++++++",
"++++++++++++++++++++++++++++++++++++++++++++++++++++++++++++++++",
"+++++++++@@@@@@+@@+++@@++@@@@+++@@@@@@@+@@@@@@+++@@@@@@+++++++++",
"+++++++++++@@+++@@@++@@+@@++@@++@@++++++@@+++@@++++@@+++++++++++",
"+++++++++++@@+++@@@@+@@+@@++++++@@++++++@@+++@@++++@@+++++++++++",
"+++++++++++@@+++@@@@@@@++@@@@@++@@@@@@++@@++@@@++++@@+++++++++++",
"+++++++++++@@+++@@+@@@@++++++@@+@@++++++@@@@@++++++@@+++++++++++",
"+++++++++++@@+++@@++@@@+@@+++@@+@@++++++@@+@@@+++++@@+++++++++++",
"+++++++++@@@@@@+@@+++@@++@@@@@++@@@@@@@+@@++@@@++++@@+++++++++++",
"++++++++++++++++++++++++++++++++++++++++++++++++++++++++++++++++",
"++++++++++++++++++@@@@+++@@@@@+++@@@@@@+@@+++@@+++++++++++++++++",
"+++++++++++++++++@@++@@+@@+++@@++++@@+++@@@++@@+++++++++++++++++",
"++++++++++++++++@@++++++@@+++@@++++@@+++@@@@+@@+++++++++++++++++",
"++++++++++++++++@@++++++@@+++@@++++@@+++@@@@@@@+++++++++++++++++",
"++++++++++++++++@@++++++@@+++@@++++@@+++@@+@@@@+++++++++++++++++",
"+++++++++++++++++@@++@@+@@+++@@++++@@+++@@++@@@+++++++++++++++++",
"++++++++++++++++++@@@@+++@@@@@+++@@@@@@+@@+++@@+++++++++++++++++",
"++++++++++++++++++++++++++++++++++++++++++++++++++++++++++++++++",
"++++++++++++++++++++++++++++++++++++++++++++++++++++++++++++++++",
"++++++++++++++++++++++++++++++++++++++++++++++++++++++++++++++++",
"++++++++++++++++++++++++++++++++++++++++++++++++++++++++++++++++",
"++++++++++++++++++++++++++++++++++++++++++++++++++++++++++++++++",
"++++++++++++++++++++++++++++++++++++++++++++++++++++++++++++++++",
"++++++++++++++++++++++++++++++++++++++++++++++++++++++++++++++++",
"++++++++++++++++++++++++++++++++++++++++++++++++++++++++++++++++",
"        ................                ................        ",
"        ................                ................        ",
"        ................                ................        ",
"        ................                ................        ",
"    ................                ................            ",
"    ................                ................            ",
"    ................                ................            ",
"    ................                ................            ",
"################################################################",
"################################################################",
"################################################################",
"################################################################",
"################################################################",
"################################################################",
"################################################################",
"################################################################",
"################################################################",
"################################################################",
"################################################################",
"################################################################",
"################################################################",
"################################################################",
"################################################################",
"################################################################"};
