/* XPM */
static char * left_xpm[] = {
"64 64 3 1",
" 	c #B41E7C",
".	c #FCC2FC",
"+	c #800987",
"                ................                ++++++++++++++++",
"                ................                ++++++++++++++++",
"                ................                ++++++++++++++++",
"                ................                ++++++++++++++++",
"            ................                ....++++++++++++++++",
"            ................                ....++++++++++++++++",
"            ................                ....++++++++++++++++",
"            ................                ....++++++++++++++++",
"        ................                ........++++++++++++++++",
"        ................                ........++++++++++++++++",
"        ................                ........++++++++++++++++",
"        ................                ........++++++++++++++++",
"    ................                ............++++++++++++++++",
"    ................                ............++++++++++++++++",
"    ................                ............++++++++++++++++",
"    ................                ............++++++++++++++++",
"................                ................++++++++++++++++",
"................                ................++++++++++++++++",
"................                ................++++++++++++++++",
"................                ................++++++++++++++++",
"............                ................    ++++++++++++++++",
"............                ................    ++++++++++++++++",
"............                ................    ++++++++++++++++",
"............                ................    ++++++++++++++++",
"........                ................        ++++++++++++++++",
"........                ................        ++++++++++++++++",
"........                ................        ++++++++++++++++",
"........                ................        ++++++++++++++++",
"....                ................            ++++++++++++++++",
"....                ................            ++++++++++++++++",
"....                ................            ++++++++++++++++",
"....                ................            ++++++++++++++++",
"                ................                ++++++++++++++++",
"                ................                ++++++++++++++++",
"                ................                ++++++++++++++++",
"                ................                ++++++++++++++++",
"            ................                ....++++++++++++++++",
"            ................                ....++++++++++++++++",
"            ................                ....++++++++++++++++",
"            ................                ....++++++++++++++++",
"        ................                ........++++++++++++++++",
"        ................                ........++++++++++++++++",
"        ................                ........++++++++++++++++",
"        ................                ........++++++++++++++++",
"    ................                ............++++++++++++++++",
"    ................                ............++++++++++++++++",
"    ................                ............++++++++++++++++",
"    ................                ............++++++++++++++++",
"................                ................++++++++++++++++",
"................                ................++++++++++++++++",
"................                ................++++++++++++++++",
"................                ................++++++++++++++++",
"............                ................    ++++++++++++++++",
"............                ................    ++++++++++++++++",
"............                ................    ++++++++++++++++",
"............                ................    ++++++++++++++++",
"........                ................        ++++++++++++++++",
"........                ................        ++++++++++++++++",
"........                ................        ++++++++++++++++",
"........                ................        ++++++++++++++++",
"....                ................            ++++++++++++++++",
"....                ................            ++++++++++++++++",
"....                ................            ++++++++++++++++",
"....                ................            ++++++++++++++++"};
