/* XPM */
static char * left_xpm[] = {
"64 64 520 2",
"  	c #583724",
". 	c #94928B",
"+ 	c #868579",
"@ 	c #56341F",
"# 	c #616514",
"$ 	c #6F6F1E",
"% 	c #686F16",
"& 	c #787B21",
"* 	c #72751B",
"= 	c #656C17",
"- 	c #696A19",
"; 	c #664731",
"> 	c #674731",
", 	c #664631",
"' 	c #654630",
") 	c #654530",
"! 	c #644530",
"~ 	c #64452F",
"{ 	c #64442F",
"] 	c #61402A",
"^ 	c #7F7B70",
"/ 	c #807C71",
"( 	c #827E73",
"_ 	c #848074",
": 	c #838074",
"< 	c #848075",
"[ 	c #838175",
"} 	c #828074",
"| 	c #603F28",
"1 	c #7C766A",
"2 	c #827E72",
"3 	c #837F74",
"4 	c #838075",
"5 	c #603F27",
"6 	c #6B533F",
"7 	c #6F5945",
"8 	c #6F5A47",
"9 	c #6D5745",
"0 	c #8E8B7D",
"a 	c #8D8B7D",
"b 	c #8E8B7E",
"c 	c #8D8B7E",
"d 	c #8E8C7F",
"e 	c #8D8B7F",
"f 	c #79766B",
"g 	c #918F87",
"h 	c #7C7769",
"i 	c #7C7869",
"j 	c #7C786A",
"k 	c #5C3821",
"l 	c #5E5143",
"m 	c #696256",
"n 	c #696257",
"o 	c #6B6358",
"p 	c #6B6459",
"q 	c #6C6459",
"r 	c #6C665A",
"s 	c #5D3B24",
"t 	c #8F8E85",
"u 	c #7D786A",
"v 	c #7D796B",
"w 	c #59341D",
"x 	c #5D5143",
"y 	c #696156",
"z 	c #6A6358",
"A 	c #6C655A",
"B 	c #5A3720",
"C 	c #6B6256",
"D 	c #7D7A6B",
"E 	c #7E796C",
"F 	c #7C796B",
"G 	c #58331C",
"H 	c #5D5142",
"I 	c #676055",
"J 	c #552E15",
"K 	c #654935",
"L 	c #7E7A6D",
"M 	c #7E7B6D",
"N 	c #7E7A6C",
"O 	c #58321B",
"P 	c #5D5243",
"Q 	c #665E53",
"R 	c #686256",
"S 	c #542E15",
"T 	c #65452F",
"U 	c #573723",
"V 	c #63442F",
"W 	c #7F7A6D",
"X 	c #7F7B6D",
"Y 	c #56321A",
"Z 	c #5C5041",
"` 	c #5C5042",
" .	c #665F53",
"..	c #686155",
"+.	c #686156",
"@.	c #6B6559",
"#.	c #542D15",
"$.	c #7D796E",
"%.	c #7D7A6E",
"&.	c #7D7A6F",
"*.	c #63432E",
"=.	c #7D7A6C",
"-.	c #55301A",
";.	c #5B4E40",
">.	c #655D52",
",.	c #676054",
"'.	c #532C15",
").	c #7C796E",
"!.	c #62432E",
"~.	c #7D7A6D",
"{.	c #7D796D",
"].	c #502913",
"^.	c #512A13",
"/.	c #512B13",
"(.	c #522B14",
"_.	c #532C14",
":.	c #8B887A",
"<.	c #8B887B",
"[.	c #8C8A7C",
"}.	c #8C897C",
"|.	c #5C3A25",
"1.	c #8C897D",
"2.	c #8B887D",
"3.	c #8A887C",
"4.	c #8A877A",
"5.	c #584C3D",
"6.	c #594D3E",
"7.	c #5F554A",
"8.	c #61564A",
"9.	c #62574C",
"0.	c #63594D",
"a.	c #675F54",
"b.	c #686055",
"c.	c #6A6156",
"d.	c #6A6357",
"e.	c #7B766C",
"f.	c #716C61",
"g.	c #716B61",
"h.	c #6C675C",
"i.	c #4F2913",
"j.	c #584B3D",
"k.	c #594C3E",
"l.	c #5F5449",
"m.	c #5F564A",
"n.	c #62574A",
"o.	c #62594D",
"p.	c #675E54",
"q.	c #6A6256",
"r.	c #6A6258",
"s.	c #807F72",
"t.	c #5A3824",
"u.	c #7A776C",
"v.	c #716D61",
"w.	c #6B675C",
"x.	c #58493B",
"y.	c #584A3B",
"z.	c #58493A",
"A.	c #605549",
"B.	c #60564A",
"C.	c #62584C",
"D.	c #675E53",
"E.	c #696055",
"F.	c #696255",
"G.	c #522C14",
"H.	c #543019",
"I.	c #79766A",
"J.	c #6E685E",
"K.	c #584939",
"L.	c #574839",
"M.	c #635A4E",
"N.	c #62594C",
"O.	c #675F55",
"P.	c #686157",
"Q.	c #88867D",
"R.	c #502A13",
"S.	c #787468",
"T.	c #6E695E",
"U.	c #6D685E",
"V.	c #6B675D",
"W.	c #574837",
"X.	c #574737",
"Y.	c #63594E",
"Z.	c #635B4F",
"`.	c #512B14",
" +	c #757066",
".+	c #554534",
"++	c #564534",
"@+	c #61584C",
"#+	c #625A4D",
"$+	c #655E53",
"%+	c #665F54",
"&+	c #665F55",
"*+	c #512A14",
"=+	c #777267",
"-+	c #61584D",
";+	c #665E52",
">+	c #655E52",
",+	c #655E54",
"'+	c #757167",
")+	c #584132",
"!+	c #655847",
"~+	c #757164",
"{+	c #635C51",
"]+	c #645D52",
"^+	c #726E64",
"/+	c #594132",
"(+	c #53331F",
"_+	c #817E73",
":+	c #858275",
"<+	c #5F574B",
"[+	c #736F63",
"}+	c #736D62",
"|+	c #757065",
"1+	c #615A50",
"2+	c #716B60",
"3+	c #908E85",
"4+	c #908E86",
"5+	c #908F86",
"6+	c #918F86",
"7+	c #56341E",
"8+	c #706B60",
"9+	c #573521",
"0+	c #57361E",
"a+	c #6F695E",
"b+	c #7F8226",
"c+	c #583824",
"d+	c #56351F",
"e+	c #6F6A5E",
"f+	c #573722",
"g+	c #583622",
"h+	c #55321C",
"i+	c #64604B",
"j+	c #8D8B83",
"k+	c #625A50",
"l+	c #665C4E",
"m+	c #78756A",
"n+	c #78756B",
"o+	c #55341E",
"p+	c #625B50",
"q+	c #5F5145",
"r+	c #6F6A5F",
"s+	c #665C4D",
"t+	c #60554A",
"u+	c #6C655B",
"v+	c #675C4E",
"w+	c #54341F",
"x+	c #563B2A",
"y+	c #594232",
"z+	c #543421",
"A+	c #7D7867",
"B+	c #7F7B6A",
"C+	c #7E7B6A",
"D+	c #7F7C6B",
"E+	c #61432E",
"F+	c #61432D",
"G+	c #553826",
"H+	c #5A4130",
"I+	c #78766C",
"J+	c #78766B",
"K+	c #78746A",
"L+	c #686159",
"M+	c #686158",
"N+	c #676158",
"O+	c #676159",
"P+	c #62442E",
"Q+	c #696259",
"R+	c #563826",
"S+	c #767369",
"T+	c #686259",
"U+	c #686258",
"V+	c #89877C",
"W+	c #79776B",
"X+	c #5A4232",
"Y+	c #63452F",
"Z+	c #8A887D",
"`+	c #69635A",
" @	c #696359",
".@	c #655848",
"+@	c #665948",
"@@	c #8B887E",
"#@	c #7A786C",
"$@	c #7A776B",
"%@	c #6A635A",
"&@	c #6A6359",
"*@	c #5A4332",
"=@	c #665949",
"-@	c #8B897E",
";@	c #7B796C",
">@	c #5B4332",
",@	c #696258",
"'@	c #665A4A",
")@	c #644630",
"!@	c #8C897E",
"~@	c #7C796D",
"{@	c #6A6259",
"]@	c #675B4B",
"^@	c #6F6050",
"/@	c #654730",
"(@	c #8C897F",
"_@	c #7D7B6F",
":@	c #6A645A",
"<@	c #6B635A",
"[@	c #685D4C",
"}@	c #675D4D",
"|@	c #685D4D",
"1@	c #695D4E",
"2@	c #6C5847",
"3@	c #6D5A4B",
"4@	c #736E63",
"5@	c #654731",
"6@	c #8C8A80",
"7@	c #7E7B6F",
"8@	c #573623",
"9@	c #5B4333",
"0@	c #5C4535",
"a@	c #5E4939",
"b@	c #5F4A3C",
"c@	c #5E4A3C",
"d@	c #573B29",
"e@	c #553622",
"f@	c #53321E",
"g@	c #53311E",
"h@	c #53321F",
"i@	c #695E4F",
"j@	c #685E4F",
"k@	c #695F4F",
"l@	c #695F50",
"m@	c #848279",
"n@	c #747064",
"o@	c #746F63",
"p@	c #736E62",
"q@	c #65462F",
"r@	c #8D8A80",
"s@	c #7F7C70",
"t@	c #7E7B6E",
"u@	c #542D14",
"v@	c #77726B",
"w@	c #77716A",
"x@	c #76716A",
"y@	c #767169",
"z@	c #767069",
"A@	c #757169",
"B@	c #757069",
"C@	c #757068",
"D@	c #593D2C",
"E@	c #6B645A",
"F@	c #6B665C",
"G@	c #6C655E",
"H@	c #685F50",
"I@	c #695F51",
"J@	c #746F64",
"K@	c #63422B",
"L@	c #8E8C80",
"M@	c #817E71",
"N@	c #807E71",
"O@	c #807D71",
"P@	c #807D70",
"Q@	c #726D66",
"R@	c #736E67",
"S@	c #736E66",
"T@	c #6D6760",
"U@	c #6C6760",
"V@	c #6C675F",
"W@	c #6B665F",
"X@	c #635B51",
"Y@	c #645C53",
"Z@	c #6A6051",
"`@	c #696051",
" #	c #777569",
".#	c #858379",
"+#	c #624129",
"@#	c #8E8C81",
"##	c #817E72",
"$#	c #6D6861",
"%#	c #6D6860",
"&#	c #5B4536",
"*#	c #6A6052",
"=#	c #78766A",
"-#	c #86847A",
";#	c #624029",
">#	c #8F8C82",
",#	c #746F67",
"'#	c #6E6961",
")#	c #5C4637",
"!#	c #79776C",
"~#	c #614028",
"{#	c #908D82",
"]#	c #827F72",
"^#	c #827F71",
"/#	c #817F71",
"(#	c #5B4637",
"_#	c #6A6152",
":#	c #7A786D",
"<#	c #86847B",
"[#	c #614128",
"}#	c #827F73",
"|#	c #6E6962",
"1#	c #6D6961",
"2#	c #6C6860",
"3#	c #676057",
"4#	c #676056",
"5#	c #5B4435",
"6#	c #645D53",
"7#	c #6B6152",
"8#	c #7B796D",
"9#	c #87857B",
"0#	c #878679",
"a#	c #624128",
"b#	c #6E6861",
"c#	c #676157",
"d#	c #6B675F",
"e#	c #543521",
"f#	c #7B796E",
"g#	c #88867C",
"h#	c #8E8C83",
"i#	c #5F3D25",
"j#	c #666056",
"k#	c #69645D",
"l#	c #553521",
"m#	c #605447",
"n#	c #7C7A6E",
"o#	c #89877D",
"p#	c #5E3C23",
"q#	c #838173",
"r#	c #838073",
"s#	c #838072",
"t#	c #828072",
"u#	c #6C6153",
"v#	c #7E7C70",
"w#	c #89877E",
"x#	c #87837C",
"y#	c #848174",
"z#	c #80755F",
"A#	c #7F755F",
"B#	c #7F745E",
"C#	c #7E745E",
"D#	c #7E735D",
"E#	c #7D735D",
"F#	c #7D725D",
"G#	c #7D725C",
"H#	c #7C725C",
"I#	c #7C715C",
"J#	c #645E4A",
"K#	c #939189",
"L#	c #5E3B23",
"M#	c #838174",
"N#	c #828073",
"O#	c #7F7D71",
"P#	c #7F7D70",
"Q#	c #7D7B70",
"R#	c #6C6852",
"S#	c #5A341D",
"T#	c #848274",
"U#	c #5A341B",
"V#	c #8F8D82",
"W#	c #848275",
"X#	c #827F76",
"Y#	c #5A351C",
"Z#	c #99968C",
"`#	c #99958C",
" $	c #9A968D",
".$	c #9A978E",
"+$	c #96938A",
"@$	c #96948B",
"#$	c #96938B",
"$$	c #95938A",
"%$	c #95928A",
"&$	c #949289",
"*$	c #949188",
"=$	c #939088",
"-$	c #929088",
";$	c #928F86",
">$	c #918E86",
",$	c #928F87",
"'$	c #929087",
")$	c #562E16",
"!$	c #89867D",
"~$	c #6F675D",
"{$	c #6E675D",
"]$	c #6D675C",
"^$	c #6D665C",
"/$	c #6E665D",
"($	c #6C665D",
"_$	c #6D675E",
":$	c #6E675E",
"<$	c #6F6960",
"[$	c #726E63",
"}$	c #736E64",
"|$	c #6E685F",
"1$	c #6D685F",
"2$	c #6C675D",
"3$	c #6B655C",
"4$	c #6A645C",
"5$	c #69635B",
"6$	c #69625A",
"7$	c #696159",
"8$	c #7D7970",
"9$	c #8F8D85",
"0$	c #8F8D84",
"a$	c #552E16",
"b$	c #8B867C",
"c$	c #6D665D",
"d$	c #6C665C",
"e$	c #6F6860",
"f$	c #726D63",
"g$	c #6A655C",
"h$	c #69645B",
"i$	c #68635A",
"j$	c #6E6960",
"k$	c #807D75",
"l$	c #573622",
"m$	c #878279",
"n$	c #6E665C",
"o$	c #6C655C",
"p$	c #6B655D",
"q$	c #68625A",
"r$	c #6C665B",
"s$	c #6E6A60",
"t$	c #817D75",
"u$	c #532D15",
"  . + + + + + @ # $ % & & % * * * * * * * * * * * * * * * * * * * * * * * * * * * * * * * * * * * * * = & & & = * * * * * * * * ",
"  . + + + + + @ $ # % & & % * * * * * * * * * * * * * * * * * * * * * * * * * * * * * * * * * * * * * = & & = * * * * * * * * * ",
"  . + + + + + @ $ - * & % * * * * * * * * * * * * * * * * * * * * * * * * * * * * * * * * * * * * * * * = & * * * * * * * * * * ",
"  . + + + + + @ $ - * * * * * * * * * * * * * * * * * * * * * * * * * * * * * * * * * * * * * * * * * * * * * * * * * * * * * * ",
"  . + + + + + @ - - * * * * * * * * * * * * * * * * * ; > > > ; , ' ) ! ~ { * * * * * * * * * * * * * * * * * * * * * * * * * * ",
"  . + + + + + @ - - * * * * * * * * * * * * * * * * ] ^ ^ / ( _ : < [ < < } { * * * * * * * * * * * * * * * * * * * * * * * * * ",
"  . + + + + + @ - - * * * * * * * * * * * * * * * * | 1 ^ / 2 3 : < : < < 4 } ~ * * * * * * * * * * * * * * * * * * * * * * * * ",
"  . + + + + + @ - - * * * * * * * * * * * * * * * * 5 6 7 8 9 0 a 0 b c d e c ~ * * * * * * * * * * * * * * * * * * * * * * * * ",
"  f g + + + + @ - - * * * * * * * * * * * * * * * ' h i j h h k l m n o p q r s * * * * * * * * * * * * * * * * * * * * * * * * ",
"  f f t t + + @ - - * * * * * * * * * * * * * * * ' u v v v j w x y z p p A A B * * * * * * * * * * * * * * * * * * * * * * * * ",
"  f C C C t t @ - - * * * * * * * * * * * * * * * ! D E E E F G H I n z o A A J * * * * * * * * * * * * * * * * * * * * * * * * ",
"  C C @ @ K K @ - - * * * * * * * * * * * * * * & ~ L M N N E O P Q I R z p A S T ) ' ' * * * * * * * * * * * * * * * * * * * * ",
"U @ @ + + + + @ - - * * * * * * * * * * * * * * * V W X M L E Y Z `  ...+.z @.#.$.%.&.&.) * * * * * * * * * * * * * * * * * * * ",
"  . + + + + + @ - - * * * * * * * * * * * * * * * *.M M N =.v -.;.Z >.Q ,.+.z '.).$.&.&.) * * * * * * * * * * * * * * * * * * * ",
"  . + + + + + @ - - * * * * * * * * * * * * * * * !.L ~.{.v v -.].].].].^./.(._.:.<.[.}.~ * * * * * * * * * * * * * * * * * * * ",
"  . + + + + + @ - - * * * * * * * * * * * * * * * |.1.2.3.3.4.].5.6.7.8.9.0.a.b.c.d.n z #.* * * * * * * * * * * * * * * * * * * ",
"  . + + + + + @ - - * * * * * * * * * * * * * * * |.e.f.f.g.h.i.j.k.l.m.n.o.p.a.y q.r.r.'.* * * * * * * * * * * * * * * * * * * ",
"  . + + + + + @ - - * * * * * * * * * * s.s.s.s.s.t.u.v.f.h.w.i.x.y.z.A.B.C.D.,.E.m F.n G.* * * * * * * * * * * * * * * * * * * ",
"  . + + + + + @ - - * * * * * * * * * s.s.s.s.s.s.H.I.v.J.w.w.i.z.K.L.o.o.M.N.O.I +.I P.(.* * * * * * * * * * * * * * * * * * * ",
"  . + + + + + @ - - * * * * * * * Q.s.s.s.s.s.s.s.R.S.T.U.V.w.i.W.K.X.o.o.Y.N.Z.a.I ..+.`.* * * * * * * * * * * * * * * * * * * ",
"  . + + + + + @ - - * * * * * * * Q.s.s.s.s.s.s.s.]. +U.V.V.w.i..+++++o.o.@+N.#+$+%+%+&+*+* * * * * * * * * * * * * * * * * * * ",
"  . + + + + + @ - - * * * * * * * Q.s.s.s.s.s.s.s.i.=+V.V.V.V.i.i.i.i.i.i.-+;+;+>+$+$+,+R.* * * * * * * * * * * * * * * * * * * ",
"  . + + + + + @ - - * * * * * * * Q.s.s.s.s.s.s.s.i.'+V.V.V.V.)+!+!+~+~+~+i.$+Q $+>+{+]+R.* * * * * * * * * * * * * * * * * * * ",
"  . + + + + + @ - - * * * * * * * Q.s.s.s.s.s.s.s.i.^+V.V.V.V.)+!+~+~+~+~+i.)+)+/+/+)+/+* * * * * * * * * * * * * * * * * * * * ",
"  . + + + + + @ - - * * * * * * * Q.s.s.s.s.s.s.s.s.(+(+(+(+(+_+:+:+:+:+:+i.<+<+<+<+i.* * * * * * * * * * * * * * * * * * * * * ",
"  . + + + + + @ - - * * * * * * * Q.s.s.s.s.s.s.s.i.[+}+}+}+|+1+1+1+1+1+2+i.<+<+<+<+<+i.* * * * * * * * * * * * * * * * * * * * ",
"  . 3+4+5+6+4+7+- - * * * * * * * Q.s.s.s.s.s.s.s.i.1+1+1+1+1+1+1+1+1+1+8+i.<+<+<+<+<+<+i.* * * * * * * * * * * * * * * * * * * ",
"  9+K K K K 7+0+- - * * * * * * * Q.s.s.s.s.s.s.s.i.1+1+1+1+1+1+1+1+1+1+a+i.<+<+<+<+<+<+i.b+* * * * * * * * * * * * * * * * * * ",
"c+. + + + + + d+- - * * * * * * * Q.s.s.s.s.s.s.s.i.1+1+1+1+1+1+1+1+1+1+e+i.<+<+<+<+<+<+i.* * * * * * * * * * * * * * * * * * * ",
"c+. + + + + + f+- - * * * * * * * Q.s.s.s.s.s.s.s.i.1+1+1+1+1+1+1+1+1+1+a+i.)+)+)+)+)+)+b+* * * * * * * * * * * * * * * * * * * ",
"g+. + + + + + h+- - * * * * * * * i+j+j+j+j+j+j+j+].k+k+k+1+1+1+k+k+1+1+a+i.l+l+m+n+n+n+i.* * * * * * * * * * * * * * * * * * * ",
"@ . + + + + + o+- - * * * * * * * * i+i+i+i+i+i+i+].k+p+k+k+k+k+k+q+q+q+r+i.l+s+m+n+m+n+i.* * * * * * * * * * * * * * * * * * * ",
"  . + + + + + @ - - * * * * * * * * * * * * * * * R.p+p+k+k+t+q+q+q+q+q+u+].v+m+m+m+n+m+i.* * * * * * * * * * * * * * * * * * * ",
"  . + + + + + @ - - * * * * * * * * * * * * * & b+* w+(+(+x+x+x+x+y+z+z+z+A+B+C+D+D+D+C+i.s.* * * * * * * * * * * * * * * * * * ",
"  . + + + + + @ - - * * * * * * * * * * * E+E+E+F+R.m+m+m+m+G+H+I+J+f n+K+L+L+M+M+N+O+N+i.i.i.i.i.i.* * * * * * * * * * * * * * ",
"  . + + + + + @ - - * * * * * * * * * * P+f f f f ^.Q+Q+Q+Q+R+S+T+T+U+M+M+M+M+M+M+L+N+N+i.!+!+!+!+!+i.* * * * * * * * * * * * * ",
"  . + + + + + @ - - * * * * * * * * * P+V+W+f W+f ^.Q+Q+Q+Q+X+Q+Q+Q+Q+U+U+M+M+M+M+M+O+O+i.!+!+!+!+!+i.* * * * * * * * * * * * * ",
"  . + + + + + @ - - * * * * * * * * * Y+Z+W+W+W+W+`.`+ @Q+Q+X+Q+Q+Q+Q+Q+T+U+U+M+L+M+M+L+i..@!+!+!++@i.* * * * * * * * * * * * * ",
"  . + + + + + @ - - * * * * * * * * * Y+@@#@$@$@$@(.%@%@&@ @*@Q+Q+Q+Q+Q+Q+U+U+M+M+L+M+L+i.+@+@=@+@+@i.* * * * * * * * * * * * * ",
"  . + + + + + @ - - * * * * * * * * * ~ -@#@#@;@$@(.%@%@%@&@>@&@Q+Q+Q+,@,@U+U+U+M+M+L+L+].'@'@'@'@'@i.* * * * * * * * * * * * * ",
"  . + + + + . @ - - * * * * * * * * * )@!@~@~@~@;@_.%@%@%@%@>@&@{@Q+Q+,@,@,@Q+U+U+M+L+L+].]@]@]@]@]@i.* * * * * * * * * * * * * ",
"  . + + . . ^@@ - - * * * * * * * * * /@(@_@~@%.~@_.:@<@%@%@>@&@&@Q+Q+Q+,@,@U+U+U+M+L+L+].[@}@|@|@1@i.* * * * * * * * * * * * * ",
"  . . . 2@3@4@@ - - * * * * * * * * * 5@6@7@7@7@%.%.7+7+7+8@9@>@>@0@a@b@c@d@d@e@(+f@g@h@i@j@j@k@l@m@i.* * * * * * * * * * * * * ",
"  9+K K n@o@p@@ - - * * * * * * * * * q@r@7@7@s@t@u@v@v@w@x@x@y@y@z@A@B@B@C@B@D@E@F@G@G@].l@H@I@I@m@i.* * * * * * * * * * * * * ",
"  . + + @ J@C @ - - * * * * * * * * * K@L@M@N@O@P@#.Q@R@S@T@T@U@V@V@W@W@W@W@W@9@{+{+X@Y@].Z@`@`@ #.#i.* * * * * * * * * * * * * ",
"  . + + + @ C @ - - * * * * * * * * * +#@###N@N@P@#.R@R@$#%#T@U@V@V@V@W@W@W@W@&#{+{+X@Y@].Z@`@*#=#-#i.& & * * * * * * * * * * * ",
"  . + + + @ C @ - - * * * * * * * * * ;#>###M@M@O@J ,#'#$#$#%#U@U@V@V@W@W@W@W@)#{+{+{+Y@].Z@*#!#!#-#i.& & & * * * * * * * * * * ",
"  . + + + + @ @ - - * * * * * * * * * ~#{#]#]#^#/#J C@'#$#%#%#U@U@U@V@W@W@W@W@(#{+X@X@Y@].Z@_#:##@<#i.* = = * * * * * * * * * * ",
"  . + + + + + @ - - * * * * * * * * * [#{#]#}#^#^#J |#'#1#$#%#2#U@3#4#W@W@W@W@5#6#{+X@Y@].7#8#:#:#9#i.* * * * * * * * * * * * * ",
"  . + + + + + @ ~@~@0#0#0#0#* * * * * a#{#}#}#}#]#J |#|#b#$#$#c#3#3#4#d#W@W@W@e#A.{+Y@Y@]._#f#f#8#g#i.* * * * * * * * * * * * * ",
"  . + + + + + @ ~@~@0#0#0#0#h#* * * * i#{#}#}#}#]#J |#|#1#U+M+c#3#3#3#j#W@W@k#l#m#8.6#Y@]._#_@_@n#o#i.* * * * * * * * * * * * * ",
"  . + + + + + @ ~@~@0#0#0#0#h#* * * * p#{#q#r#r#s#t#J #.#._._._.G.(.(./.^.^.^.R.R.R.].].u#v#_@_@_@w#i.* * * * * * * * * * * * * ",
"  . + + + + + @ x#x#0#0#0#0#h#* * * * p#{#y#y#y#y#r#z#z#A#B#C#C#D#D#E#F#G#H#H#H#H#H#I#I#v#v#_@_@_@w#i.* * * * * * * * * * * * * ",
"  . + + + + + @ J#J#K#K#K#0#h#* * * * L#{#y#y#y#q#M#: } }#}#N#]#M@N@N@O@O@O#P#P#P#P#v#v#v#v#v#Q#_@Q.i.* * * * * * * * * * * * * ",
"  . + + + + + @ - - R#R#R#K#h#* * * * S#{#:+:+:+T#y#y#M#r#r#N#}#M@N@N@N@O#O#P#P#P#s@s@v#v#v#v#v#Q#g#i.* * * * * * * * * * * * * ",
"  . + + + + + @ - - * * * R#R#* * * * U#V#:+:+W#W#y#M#M#r#N#N###N@N@N@O@O@O#P#P#P#s@v#v#v#v#v#v#v#g#i.* * * * * * * * * * * * * ",
"  . + + + + + @ X#- * * * * * * * * * Y#Z#`# $.$+$@$#$+$$$$$%$&$&$*$*$=$-$-$;$;$>$4+3+3+3+3+6+,$'$'$i.* * * * * * * * * * * * * ",
"  . + + + + + @ ~@~@0#0#h#* * * * * * )$!$~${$]$^$/$($_$:$<$[$}$^+[$[$|$|$1$1$_$2$3$4$5$6$L+7${@{@8$i.* * * * * * * * * * * * * ",
"  . 3+9$0$0$9$7+~@~@0#0#0#h#* * * * * a$b$~${$^$^$c$d$c$_$|$|$e$[$[$f$|$1$1$1$_$($g$h$i$6$L+Q+j$j$k$i.* * * * * * * * * * * * * ",
"  9+K K K K 7+l$~@~@0#0#0#0#h#* * * * J m$n$n$^$d$c$o$c$_$|$|$|$|$|$|$1$1$1$_$($p$4$5$q$6$L+r$j$s$t$i.* * * * * * * * * * * * * ",
"c+. + + + + + d+~@~@0#0#0#0#h#* * * * #.#.#.u$u$u$'.'.G.G.(.(.`.`.`.*+*+R.R.R.R.i.i.i.i.i.i.i.i.i.i.i.* * * * * * * * * * * * * ",
"c+. + + + + + f+~@~@0#0#0#0#h#* * * * * * * * * * * * * * * * * * * * * * * * * * * * * * * * * * * * * * * * * * * * * * * * * ",
"g+. + + + + + h+x#x#K#K#K#K#R#* * * * * * * * * * * * * * * * * * * * * * * * * * * * * * * * * * * * * * * * * * * * * * * * * ",
"@ . + + + + + o+J#J#R#R#R#R#* * * * * * * * * * * * * * * * * * * * * * * * * * * * * * * * * * * * * * * * * * * * * * * * * * "};
