/* XPM */
static char * player_exit_l_xpm[] = {
"64 64 12 1",
" 	c #000000",
".	c #CCCCAA",
"+	c #888866",
"@	c #AAAA88",
"#	c #FFFF00",
"$	c #00FF00",
"%	c #FFFFFF",
"&	c #EEAA66",
"*	c #775555",
"=	c #CC8855",
"-	c #FF7777",
";	c #AA7744",
"                   .....++++@@@@....+++++@@@@                   ",
"                   .....++++@@@@....+++++@@@@                   ",
"                   .....++++####....+++++@@@@                   ",
"                   .....++++####....+++++@@@@                   ",
"               @@@@@@@@@++++####@@@@+++++@@@@....               ",
"               @@@@@@@@@++++####@@@@+++++@@@@....               ",
"               @@@@@@@@@############+++++@@@@....               ",
"               @@@@@@@@@############+++++@@@@....               ",
"               @@@@@@@@@############+++++@@@@....               ",
"           ++++++$$$$$$$$$$$$$$$$$$$###############++           ",
"           ++++++$$$$$$$$$$$$$$$$$$$###############++           ",
"           ++++++$$$$$$$$$$$$$$$$$$$###############++           ",
"           ++++++$$$$$$$$$$$$$$$$$$$###############++           ",
"       @@@@..$$$$$$$$$$$$$$$$$$$$$$$$$$########++@@@@.....      ",
"       @@@@..$$$$$$$$$$$$$$$$$$$$$$$$$$########++@@@@.....      ",
"       @@@@..$$$$$$$$$$$$$$$$$$$$$$$$$$########++@@@@.....      ",
"       @@@@..$$$$$$$$$$$$$$$$$$$$$$$$$$########++@@@@.....      ",
"       @@$$$$%%%%$$$$%%%%%%%$$$$$$$$$$$$$$$&&****@@@@@@@@@      ",
"       @@$$$$%%%%$$$$%%%%%%%$$$$$$$$$$$$$$$&&****@@@@@@@@@      ",
"       @@$$$$%%%%$$$$%%%%%%%$$$$$$$$$$$$$$$&&****@@@@@@@@@      ",
"       @@$$$$%%%%$$$$%%%%%%%$$$$$$$$$$$$$$$&&****@@@@@@@@@      ",
"  +++++++%%%%    $$$$   %%%%%%%%$$$$$$$$$$$###########++++++++  ",
"  +++++++%%%%    $$$$   %%%%%%%%$$$$$$$$$$$###########++++++++  ",
"  +++++++%%%%    $$$$   %%%%%%%%$$$$$$$$$$$###########++++++++  ",
"  +++++++%%%%    $$$$   %%%%%%%%$$$$$$$$$$$$$$$####+++++++++++  ",
"  +++++++%%%%    $$$$   %%%%%%%%$$$$$$$$$$$$$$$####+++++++++++  ",
"  @@@@@..%%%%    $$$$   %%%%%%%%$$$$$$$$$$$$$$$####**@@@@@....  ",
"  @@@@@..%%%%    $$$$   %%%%%%%%$$$$$$$$$$$$$$$####**@@@@@....  ",
"  @@@@$$$%%%%    $$$$   %%%%%%%%#######$$$$$$$$==****@@@@@....  ",
"  @@@@$$$%%%%    $$$$   %%%%%%%%#######$$$$$$$$==****@@@@@....  ",
"  @@@@$$$%%%%    $$$$   %%%%%%%%#######$$$$$$$$******@@@@@@@@@  ",
"  @@@@$$$%%%%    $$$$   %%%%%%%%#######$$$$$$$$******@@@@@@@@@  ",
"  @@@@###%%%%    $$$$   %%%%%%%%###########$$$$#######@@@@@@@@  ",
"  @@@@###%%%%    $$$$   %%%%%%%%###########$$$$#######@@@@@@@@  ",
"  ++++###%%%%    $$$$   %%%%%%%%###########$$$$#######++++++++  ",
"  ++++###%%%%    $$$$   %%%%%%%%###########$$$$#######++++++++  ",
"  ++++$$$$$$$%%%%$$$$%%%%%%%$$$$####   $$$$$$$$####**+++++++++  ",
"  ++++$$$$$$$%%%%$$$$%%%%%%%$$$$####   $$$$$$$$####**+++++++++  ",
"  @@@@$$$$$$$%%%%$$$$%%%%%%%$$$$####   $$$$$$$$####**@@@@@....  ",
"  @@@@@..        %%%%               $$$----$$$$******@@@@@....  ",
"  @@@@@..        %%%%               $$$----$$$$******@@@@@....  ",
"  @@@@@..        %%%%               $$$----$$$$******@@@@@....  ",
"  @@@@@..        %%%%               $$$----$$$$******@@@@@....  ",
"  @@@@@@@$$$$$$$$$$$$$$$$$$$$$$$$$$$-----------$$$$**@@@@@@@@@  ",
"  @@@@@@@$$$$$$$$$$$$$$$$$$$$$$$$$$$-----------$$$$**@@@@@@@@@  ",
"  @@@@@@@$$$$$$$$$$$$$$$$$$$$$$$$$$$-----------$$$$**@@@@@@@@@  ",
"  @@@@@@@$$$$$$$$$$$$$$$$$$$$$$$$$$$-----------$$$$**@@@@@@@@@  ",
"  +++++++++==%%%%%%%%%%%%%%%$$$$$$$$-----------$$$$**+++++++++  ",
"  +++++++++==%%%%%%%%%%%%%%%$$$$$$$$-----------$$$$**+++++++++  ",
"  +++++++++==%%%%%%%%%%%%%%%$$$$$$$$-----------$$$$**+++++++++  ",
"  +++++++++==%%%%%%%%%%%%%%%$$$$$$$$-----------$$$$**+++++++++  ",
"  @@@@@..%%%%%%%%%%%%%%%%%%%%%%%$$$$$$$--------$$$$###@@@@....  ",
"  @@@@@..%%%%%%%%%%%%%%%%%%%%%%%$$$$$$$--------$$$$###@@@@....  ",
"  @@@@@..%%%%%%%%%%%%%%%%%%%%%%%$$$$$$$--------$$$$###@@@@....  ",
"  @@@@@..%%%%%%%%%%%%%%%------------$$$$$$$$$$$$$$$$$$####....  ",
"  @@@@@@@%%%%%%%%%%%%%%%------------$$$$$$$$$$$$$$$$$$####@@@@  ",
"  @@@@@@@%%%%%%%%%%%%%%%------------$$$$$$$$$$$$$$$$$$####@@@@  ",
"  @@@@@@@%%%%%%%%%%%%%%%------------$$$$$$$$$$$$$$$$$$####@@@@  ",
"  -----------%%%%%%%%------------------$$$$$$$$$$$$$$$$$$$$$$$  ",
"  -----------%%%%%%%%------------------$$$$$$$$$$$$$$$$$$$$$$$  ",
"  -----------%%%%%%%%------------------$$$$$$$$$$$$$$$$$$$$$$$  ",
"  -----------%%%%%%%%------------------$$$$$$$$$$$$$$$$$$$$$$$  ",
"  +++++++++;;;;;;;;;;;;;&&&&        ;;;;;&&&&====****+++++++++  ",
"  +++++++++;;;;;;;;;;;;;&&&&        ;;;;;&&&&====****+++++++++  "};
