/* XPM */
static char * player_r_xpm[] = {
"64 64 5 1",
" 	c #000000",
".	c #FFFF00",
"+	c #00FF00",
"@	c #FFFFFF",
"#	c #FF7777",
"                                                                ",
"                                                                ",
"                                                                ",
"                                                                ",
"                                ....                            ",
"                                ....                            ",
"                                ....                            ",
"                                ....                            ",
"                            ............                        ",
"                            ............                        ",
"                            ............                        ",
"             ...............+++++++++++++++++++                 ",
"             ...............+++++++++++++++++++                 ",
"             ...............+++++++++++++++++++                 ",
"             ...............+++++++++++++++++++                 ",
"                 ........++++++++++++++++++++++++++             ",
"                 ........++++++++++++++++++++++++++             ",
"                 ........++++++++++++++++++++++++++             ",
"                 ........++++++++++++++++++++++++++             ",
"                     +++++++++++++++@@@@@@@++++@@@@++++         ",
"                     +++++++++++++++@@@@@@@++++@@@@++++         ",
"                     +++++++++++++++@@@@@@@++++@@@@++++         ",
"                     +++++++++++++++@@@@@@@++++@@@@++++         ",
"          ...........+++++++++++@@@@@@@@   ++++    @@@@         ",
"          ...........+++++++++++@@@@@@@@   ++++    @@@@         ",
"          ...........+++++++++++@@@@@@@@   ++++    @@@@         ",
"             ....+++++++++++++++@@@@@@@@   ++++    @@@@         ",
"             ....+++++++++++++++@@@@@@@@   ++++    @@@@         ",
"             ....+++++++++++++++@@@@@@@@   ++++    @@@@         ",
"             ....+++++++++++++++@@@@@@@@   ++++    @@@@         ",
"                 ++++++++.......@@@@@@@@   ++++    @@@@+++      ",
"                 ++++++++.......@@@@@@@@   ++++    @@@@+++      ",
"                 ++++++++.......@@@@@@@@   ++++    @@@@+++      ",
"                 ++++++++.......@@@@@@@@   ++++    @@@@+++      ",
"          .......++++...........@@@@@@@@   ++++    @@@@...      ",
"          .......++++...........@@@@@@@@   ++++    @@@@...      ",
"          .......++++...........@@@@@@@@   ++++    @@@@...      ",
"          .......++++...........@@@@@@@@   ++++    @@@@...      ",
"             ....++++++++   ....++++@@@@@@@++++@@@@+++++++      ",
"             ....++++++++   ....++++@@@@@@@++++@@@@+++++++      ",
"             ....++++++++   ....++++@@@@@@@++++@@@@+++++++      ",
"                 ++++####+++               @@@@                 ",
"                 ++++####+++               @@@@                 ",
"                 ++++####+++               @@@@                 ",
"                 ++++####+++               @@@@                 ",
"             ++++###########+++++++++++++++++++++++++++         ",
"             ++++###########+++++++++++++++++++++++++++         ",
"             ++++###########+++++++++++++++++++++++++++         ",
"             ++++###########+++++++++++++++++++++++++++         ",
"             ++++###########++++++++@@@@@@@@@@@@@@@             ",
"             ++++###########++++++++@@@@@@@@@@@@@@@             ",
"             ++++###########++++++++@@@@@@@@@@@@@@@             ",
"             ++++###########++++++++@@@@@@@@@@@@@@@             ",
"          ...++++########+++++++@@@@@@@@@@@@@@@@@@@@@@@         ",
"          ...++++########+++++++@@@@@@@@@@@@@@@@@@@@@@@         ",
"          ...++++########+++++++@@@@@@@@@@@@@@@@@@@@@@@         ",
"      ....++++++++++++++++++############@@@@@@@@@@@@@@@         ",
"      ....++++++++++++++++++############@@@@@@@@@@@@@@@         ",
"      ....++++++++++++++++++############@@@@@@@@@@@@@@@         ",
"      ....++++++++++++++++++############@@@@@@@@@@@@@@@         ",
"  +++++++++++++++++++++++##################@@@@@@@@###########  ",
"  +++++++++++++++++++++++##################@@@@@@@@###########  ",
"  +++++++++++++++++++++++##################@@@@@@@@###########  ",
"  +++++++++++++++++++++++##################@@@@@@@@###########  "};
