/* XPM */
static char * right_xpm[] = {
"64 64 510 2",
"  	c #72751B",
". 	c #787B21",
"+ 	c #7F8124",
"@ 	c #686F16",
"# 	c #656C17",
"$ 	c #4F2913",
"% 	c #868579",
"& 	c #94928B",
"* 	c #5B3C29",
"= 	c #664731",
"- 	c #674731",
"; 	c #664631",
"> 	c #654630",
", 	c #654530",
"' 	c #644530",
") 	c #64452F",
"! 	c #64442F",
"~ 	c #61402A",
"{ 	c #7F7B70",
"] 	c #807C71",
"^ 	c #827E73",
"/ 	c #848074",
"( 	c #838074",
"_ 	c #848075",
": 	c #838175",
"< 	c #828074",
"[ 	c #603F28",
"} 	c #7C766A",
"| 	c #827E72",
"1 	c #837F74",
"2 	c #838075",
"3 	c #603F27",
"4 	c #6B533F",
"5 	c #6F5945",
"6 	c #6F5A47",
"7 	c #6D5745",
"8 	c #8E8B7D",
"9 	c #8D8B7D",
"0 	c #8E8B7E",
"a 	c #8D8B7E",
"b 	c #8E8C7F",
"c 	c #8D8B7F",
"d 	c #929089",
"e 	c #746F64",
"f 	c #7C7769",
"g 	c #7C7869",
"h 	c #7C786A",
"i 	c #5C3821",
"j 	c #5E5143",
"k 	c #696256",
"l 	c #696257",
"m 	c #6B6358",
"n 	c #6B6459",
"o 	c #6C6459",
"p 	c #6C665A",
"q 	c #5D3B24",
"r 	c #939189",
"s 	c #7D786A",
"t 	c #7D796B",
"u 	c #59341D",
"v 	c #5D5143",
"w 	c #696156",
"x 	c #6A6358",
"y 	c #6C655A",
"z 	c #5A3720",
"A 	c #736D62",
"B 	c #747064",
"C 	c #7D7A6B",
"D 	c #7E796C",
"E 	c #7C796B",
"F 	c #58331C",
"G 	c #5D5142",
"H 	c #676055",
"I 	c #552E15",
"J 	c #583A27",
"K 	c #583B28",
"L 	c #6B6256",
"M 	c #757064",
"N 	c #7E7A6D",
"O 	c #7E7B6D",
"P 	c #7E7A6C",
"Q 	c #58321B",
"R 	c #5D5243",
"S 	c #665E53",
"T 	c #686256",
"U 	c #542E15",
"V 	c #65452F",
"W 	c #573621",
"X 	c #63442F",
"Y 	c #7F7A6D",
"Z 	c #7F7B6D",
"` 	c #56321A",
" .	c #5C5041",
"..	c #5C5042",
"+.	c #665F53",
"@.	c #686155",
"#.	c #686156",
"$.	c #6B6559",
"%.	c #542D15",
"&.	c #7D796E",
"*.	c #7D7A6E",
"=.	c #7D7A6F",
"-.	c #624835",
";.	c #644A38",
">.	c #63432E",
",.	c #7D7A6C",
"'.	c #55301A",
").	c #5B4E40",
"!.	c #655D52",
"~.	c #676054",
"{.	c #532C15",
"].	c #7C796E",
"^.	c #62432E",
"/.	c #7D7A6D",
"(.	c #7D796D",
"_.	c #502913",
":.	c #512A13",
"<.	c #512B13",
"[.	c #522B14",
"}.	c #532C14",
"|.	c #8B887A",
"1.	c #8B887B",
"2.	c #8C8A7C",
"3.	c #8C897C",
"4.	c #5C3A25",
"5.	c #8C897D",
"6.	c #8B887D",
"7.	c #8A887C",
"8.	c #8A877A",
"9.	c #584C3D",
"0.	c #594D3E",
"a.	c #5F554A",
"b.	c #61564A",
"c.	c #62574C",
"d.	c #63594D",
"e.	c #675F54",
"f.	c #686055",
"g.	c #6A6156",
"h.	c #6A6357",
"i.	c #7B766C",
"j.	c #716C61",
"k.	c #716B61",
"l.	c #6C675C",
"m.	c #584B3D",
"n.	c #594C3E",
"o.	c #5F5449",
"p.	c #5F564A",
"q.	c #62574A",
"r.	c #62594D",
"s.	c #675E54",
"t.	c #6A6256",
"u.	c #6A6258",
"v.	c #807F72",
"w.	c #5A3824",
"x.	c #7A776C",
"y.	c #716D61",
"z.	c #6B675C",
"A.	c #58493B",
"B.	c #584A3B",
"C.	c #58493A",
"D.	c #605549",
"E.	c #60564A",
"F.	c #62584C",
"G.	c #675E53",
"H.	c #696055",
"I.	c #696255",
"J.	c #522C14",
"K.	c #543019",
"L.	c #79766A",
"M.	c #6E685E",
"N.	c #584939",
"O.	c #574839",
"P.	c #635A4E",
"Q.	c #62594C",
"R.	c #675F55",
"S.	c #686157",
"T.	c #88867D",
"U.	c #502A13",
"V.	c #787468",
"W.	c #6E695E",
"X.	c #6D685E",
"Y.	c #6B675D",
"Z.	c #574837",
"`.	c #574737",
" +	c #63594E",
".+	c #635B4F",
"++	c #512B14",
"@+	c #757066",
"#+	c #554534",
"$+	c #564534",
"%+	c #61584C",
"&+	c #625A4D",
"*+	c #655E53",
"=+	c #665F54",
"-+	c #665F55",
";+	c #512A14",
">+	c #777267",
",+	c #61584D",
"'+	c #665E52",
")+	c #655E52",
"!+	c #655E54",
"~+	c #757167",
"{+	c #584132",
"]+	c #655847",
"^+	c #757164",
"/+	c #635C51",
"(+	c #645D52",
"_+	c #726E64",
":+	c #594132",
"<+	c #53331F",
"[+	c #817E73",
"}+	c #858275",
"|+	c #5F574B",
"1+	c #736F63",
"2+	c #757065",
"3+	c #615A50",
"4+	c #716B60",
"5+	c #706B60",
"6+	c #655444",
"7+	c #6F695E",
"8+	c #7F8226",
"9+	c #6F6A5E",
"0+	c #64604B",
"a+	c #8D8B83",
"b+	c #625A50",
"c+	c #665C4E",
"d+	c #78756A",
"e+	c #78756B",
"f+	c #625B50",
"g+	c #5F5145",
"h+	c #6F6A5F",
"i+	c #665C4D",
"j+	c #60554A",
"k+	c #6C655B",
"l+	c #675C4E",
"m+	c #54341F",
"n+	c #563B2A",
"o+	c #594232",
"p+	c #543421",
"q+	c #7D7867",
"r+	c #7F7B6A",
"s+	c #7E7B6A",
"t+	c #7F7C6B",
"u+	c #61432E",
"v+	c #61432D",
"w+	c #553826",
"x+	c #5A4130",
"y+	c #78766C",
"z+	c #78766B",
"A+	c #79766B",
"B+	c #78746A",
"C+	c #686159",
"D+	c #686158",
"E+	c #676158",
"F+	c #676159",
"G+	c #87867D",
"H+	c #62442E",
"I+	c #696259",
"J+	c #563826",
"K+	c #767369",
"L+	c #686259",
"M+	c #686258",
"N+	c #89877C",
"O+	c #79776B",
"P+	c #5A4232",
"Q+	c #63452F",
"R+	c #8A887D",
"S+	c #69635A",
"T+	c #696359",
"U+	c #655848",
"V+	c #665948",
"W+	c #8B887E",
"X+	c #7A786C",
"Y+	c #7A776B",
"Z+	c #6A635A",
"`+	c #6A6359",
" @	c #5A4332",
".@	c #665949",
"+@	c #8B897E",
"@@	c #7B796C",
"#@	c #5B4332",
"$@	c #696258",
"%@	c #665A4A",
"&@	c #644630",
"*@	c #8C897E",
"=@	c #7C796D",
"-@	c #6A6259",
";@	c #675B4B",
">@	c #6C5D4F",
",@	c #6D6051",
"'@	c #654730",
")@	c #8C897F",
"!@	c #7D7B6F",
"~@	c #6A645A",
"{@	c #6B635A",
"]@	c #685D4C",
"^@	c #675D4D",
"/@	c #685D4D",
"(@	c #695D4E",
"_@	c #695948",
":@	c #685849",
"<@	c #654731",
"[@	c #8C8A80",
"}@	c #7E7B6F",
"|@	c #56341E",
"1@	c #573623",
"2@	c #5B4333",
"3@	c #5C4535",
"4@	c #5E4939",
"5@	c #5F4A3C",
"6@	c #5E4A3C",
"7@	c #573B29",
"8@	c #553622",
"9@	c #53321E",
"0@	c #53311E",
"a@	c #53321F",
"b@	c #695E4F",
"c@	c #685E4F",
"d@	c #695F4F",
"e@	c #695F50",
"f@	c #848279",
"g@	c #5E422F",
"h@	c #65462F",
"i@	c #8D8A80",
"j@	c #7F7C70",
"k@	c #7E7B6E",
"l@	c #542D14",
"m@	c #77726B",
"n@	c #77716A",
"o@	c #76716A",
"p@	c #767169",
"q@	c #767069",
"r@	c #757169",
"s@	c #757069",
"t@	c #757068",
"u@	c #593D2C",
"v@	c #6B645A",
"w@	c #6B665C",
"x@	c #6C655E",
"y@	c #685F50",
"z@	c #695F51",
"A@	c #604937",
"B@	c #63422B",
"C@	c #8E8C80",
"D@	c #817E71",
"E@	c #807E71",
"F@	c #807D71",
"G@	c #807D70",
"H@	c #726D66",
"I@	c #736E67",
"J@	c #736E66",
"K@	c #6D6760",
"L@	c #6C6760",
"M@	c #6C675F",
"N@	c #6B665F",
"O@	c #635B51",
"P@	c #645C53",
"Q@	c #6A6051",
"R@	c #696051",
"S@	c #777569",
"T@	c #858379",
"U@	c #614937",
"V@	c #624129",
"W@	c #8E8C81",
"X@	c #817E72",
"Y@	c #6D6861",
"Z@	c #6D6860",
"`@	c #5B4536",
" #	c #6A6052",
".#	c #78766A",
"+#	c #86847A",
"@#	c #53301A",
"##	c #55331E",
"$#	c #624029",
"%#	c #8F8C82",
"&#	c #746F67",
"*#	c #6E6961",
"=#	c #5C4637",
"-#	c #79776C",
";#	c #614028",
">#	c #908D82",
",#	c #827F72",
"'#	c #827F71",
")#	c #817F71",
"!#	c #5B4637",
"~#	c #6A6152",
"{#	c #7A786D",
"]#	c #86847B",
"^#	c #614128",
"/#	c #827F73",
"(#	c #6E6962",
"_#	c #6D6961",
":#	c #6C6860",
"<#	c #676057",
"[#	c #676056",
"}#	c #5B4435",
"|#	c #645D53",
"1#	c #6B6152",
"2#	c #7B796D",
"3#	c #87857B",
"4#	c #8E8C83",
"5#	c #878679",
"6#	c #624128",
"7#	c #6E6861",
"8#	c #676157",
"9#	c #6B675F",
"0#	c #543521",
"a#	c #7B796E",
"b#	c #88867C",
"c#	c #5F3D25",
"d#	c #666056",
"e#	c #69645D",
"f#	c #553521",
"g#	c #605447",
"h#	c #7C7A6E",
"i#	c #89877D",
"j#	c #6C6852",
"k#	c #5E3C23",
"l#	c #838173",
"m#	c #838073",
"n#	c #838072",
"o#	c #828072",
"p#	c #6C6153",
"q#	c #7E7C70",
"r#	c #89877E",
"s#	c #848174",
"t#	c #80755F",
"u#	c #7F755F",
"v#	c #7F745E",
"w#	c #7E745E",
"x#	c #7E735D",
"y#	c #7D735D",
"z#	c #7D725D",
"A#	c #7D725C",
"B#	c #7C725C",
"C#	c #7C715C",
"D#	c #5E3B23",
"E#	c #838174",
"F#	c #828073",
"G#	c #7F7D71",
"H#	c #7F7D70",
"I#	c #7D7B70",
"J#	c #5A341D",
"K#	c #848274",
"L#	c #5A341B",
"M#	c #8F8D82",
"N#	c #848275",
"O#	c #5A351C",
"P#	c #99968C",
"Q#	c #99958C",
"R#	c #9A968D",
"S#	c #9A978E",
"T#	c #96938A",
"U#	c #96948B",
"V#	c #96938B",
"W#	c #95938A",
"X#	c #95928A",
"Y#	c #949289",
"Z#	c #949188",
"`#	c #939088",
" $	c #929088",
".$	c #928F86",
"+$	c #918E86",
"@$	c #908E86",
"#$	c #908E85",
"$$	c #918F86",
"%$	c #928F87",
"&$	c #929087",
"*$	c #562E16",
"=$	c #89867D",
"-$	c #6F675D",
";$	c #6E675D",
">$	c #6D675C",
",$	c #6D665C",
"'$	c #6E665D",
")$	c #6C665D",
"!$	c #6D675E",
"~$	c #6E675E",
"{$	c #6F6960",
"]$	c #726E63",
"^$	c #736E64",
"/$	c #6E685F",
"($	c #6D685F",
"_$	c #6C675D",
":$	c #6B655C",
"<$	c #6A645C",
"[$	c #69635B",
"}$	c #69625A",
"|$	c #696159",
"1$	c #7D7970",
"2$	c #552E16",
"3$	c #8B867C",
"4$	c #6D665D",
"5$	c #6C665C",
"6$	c #6F6860",
"7$	c #726D63",
"8$	c #6A655C",
"9$	c #69645B",
"0$	c #68635A",
"a$	c #6E6960",
"b$	c #807D75",
"c$	c #878279",
"d$	c #6E665C",
"e$	c #6C655C",
"f$	c #6B655D",
"g$	c #68625A",
"h$	c #6C665B",
"i$	c #6E6A60",
"j$	c #817D75",
"k$	c #532D15",
"          . + + @ . @ . . @                                                                           # . . . # $ % % % % % & * ",
"            + . . @ @ . . @                                                                           # . . #   $ % % % % % & * ",
"            @ . .     . @                                                                               # .     $ % % % % % & * ",
"              @ .                                                                                               $ % % % % % & * ",
"                                              = - - - = ; > , ' ) !                                             $ % % % % % & * ",
"                                            ~ { { ] ^ / ( _ : _ _ < !                                           $ % % % % % & * ",
"                                            [ } { ] | 1 ( _ ( _ _ 2 < )                                         $ % % % % % & * ",
"                                            3 4 5 6 7 8 9 8 0 a b c a )                                         $ % % % % d e * ",
"                                          > f g h f f i j k l m n o p q                                         $ % % % % r e * ",
"                                          > s t t t h u v w x n n y y z                                         $ & & & & A B * ",
"                                          ' C D D D E F G H l x m y y I                                         $ $ J K L L M * ",
"                                          ) N O P P D Q R S H T x n y U V , > >                                 $ % % % W L L * ",
"                                          X Y Z O N D `  ...+.@.#.x $.%.&.*.=.=.,                               $ % % % % -.;.* ",
"                                          >.O O P ,.t '.). .!.S ~.#.x {.].&.=.=.,                               $ % % % % % & * ",
"                                          ^.N /.(.t t '._._._._.:.<.[.}.|.1.2.3.)                               $ % % % % % & * ",
"                                          4.5.6.7.7.8._.9.0.a.b.c.d.e.f.g.h.l x %.                              $ % % % % % & * ",
"                                          4.i.j.j.k.l.$ m.n.o.p.q.r.s.e.w t.u.u.{.                              $ % % % % % & * ",
"                                        v.w.x.y.j.l.z.$ A.B.C.D.E.F.G.~.H.k I.l J.                              $ % % % % % & * ",
"                                      v.v.K.L.y.M.z.z.$ C.N.O.r.r.P.Q.R.H #.H S.[.                              $ % % % % % & * ",
"                                  T.v.v.v.U.V.W.X.Y.z.$ Z.N.`.r.r. +Q..+e.H @.#.++                              $ % % % % % & * ",
"                                  T.v.v.v._.@+X.Y.Y.z.$ #+$+$+r.r.%+Q.&+*+=+=+-+;+                              $ % % % % % & * ",
"                                  T.v.v.v.$ >+Y.Y.Y.Y.$ $ $ $ $ $ ,+'+'+)+*+*+!+U.                              $ % % % % % & * ",
"                                  T.v.v.v.$ ~+Y.Y.Y.Y.{+]+]+^+^+^+$ *+S *+)+/+(+U.                              $ % % % % % & * ",
"                                  T.v.v.v.$ _+Y.Y.Y.Y.{+]+^+^+^+^+$ {+{+:+:+{+:+                                $ % % % % % & * ",
"                                  T.v.v.v.v.<+<+<+<+<+[+}+}+}+}+}+$ |+|+|+|+$                                   $ % % % % % & * ",
"                                  T.v.v.v.$ 1+A A A 2+3+3+3+3+3+4+$ |+|+|+|+|+$                                 $ & & & & & & * ",
"                                  T.v.v.v.$ 3+3+3+3+3+3+3+3+3+3+5+$ |+|+|+|+|+|+$                               $ $ 6+6+6+6+$ * ",
"                                  T.v.v.v.$ 3+3+3+3+3+3+3+3+3+3+7+$ |+|+|+|+|+|+$         8+                    $ % % % % % & * ",
"                                  T.v.v.v.$ 3+3+3+3+3+3+3+3+3+3+9+$ |+|+|+|+|+|+$       8+                      $ % % % % % & * ",
"                                  T.v.v.v.$ 3+3+3+3+3+3+3+3+3+3+7+$ {+{+{+{+{+{+. .   8+8+                      $ % % % % % & * ",
"                                  0+a+a+a+_.b+b+b+3+3+3+b+b+3+3+7+$ c+c+d+e+e+e+$ .   . .                       $ % % % % % & * ",
"                                    0+0+0+_.b+f+b+b+b+b+b+g+g+g+h+$ c+i+d+e+d+e+$ . # . #                       $ % % % % % & * ",
"                                          U.f+f+b+b+j+g+g+g+g+g+k+_.l+d+d+d+e+d+$ #   #                         $ % % % % % & * ",
"                                            m+<+<+n+n+n+n+o+p+p+p+q+r+s+t+t+t+s+$ v.v.v.v.v.                    $ % % % % % & * ",
"                                  u+u+u+v+U.d+d+d+d+w+x+y+z+A+e+B+C+C+D+D+E+F+E+$ $ $ $ $ $ G+                  $ % % % % % & * ",
"                                H+A+A+A+A+:.I+I+I+I+J+K+L+L+M+D+D+D+D+D+D+C+E+E+$ ]+]+]+]+]+$                   $ % % % % % & * ",
"                              H+N+O+A+O+A+:.I+I+I+I+P+I+I+I+I+M+M+D+D+D+D+D+F+F+$ ]+]+]+]+]+$                   $ % % % % % & * ",
"                              Q+R+O+O+O+O+++S+T+I+I+P+I+I+I+I+I+L+M+M+D+C+D+D+C+$ U+]+]+]+V+$                   $ % % % % % & * ",
"                              Q+W+X+Y+Y+Y+[.Z+Z+`+T+ @I+I+I+I+I+I+M+M+D+D+C+D+C+$ V+V+.@V+V+$                   $ % % % % % & * ",
"                              ) +@X+X+@@Y+[.Z+Z+Z+`+#@`+I+I+I+$@$@M+M+M+D+D+C+C+_.%@%@%@%@%@$                   $ & & % % % & * ",
"                              &@*@=@=@=@@@}.Z+Z+Z+Z+#@`+-@I+I+$@$@$@I+M+M+D+C+C+_.;@;@;@;@;@$                   $ >@,@& & % & * ",
"                              '@)@!@=@*.=@}.~@{@Z+Z+#@`+`+I+I+I+$@$@M+M+M+D+C+C+_.]@^@/@/@(@$                   $ L.L._@:@& & * ",
"                              <@[@}@}@}@*.*.|@|@|@1@2@#@#@3@4@5@6@7@7@8@<+9@0@a@b@c@c@d@e@f@$                   $ L.L L L g@$ * ",
"                              h@i@}@}@j@k@l@m@m@n@o@o@p@p@q@r@s@s@t@s@u@v@w@x@x@_.e@y@z@z@f@$                   $ L.L L A@% & * ",
"                              B@C@D@E@F@G@%.H@I@J@K@K@L@M@M@N@N@N@N@N@2@/+/+O@P@_.Q@R@R@S@T@$                   $ L L U@% % & * ",
"                              V@W@X@E@E@G@%.I@I@Y@Z@K@L@M@M@M@N@N@N@N@`@/+/+O@P@_.Q@R@ #.#+#$       8+. .       $ @###% % % & * ",
"                              $#%#X@D@D@F@I &#*#Y@Y@Z@L@L@M@M@N@N@N@N@=#/+/+/+P@_.Q@ #-#-#+#$         . . .     $ % % % % % & * ",
"                              ;#>#,#,#'#)#I t@*#Y@Z@Z@L@L@L@M@N@N@N@N@!#/+O@O@P@_.Q@~#{#X+]#$           # #     $ % % % % % & * ",
"                              ^#>#,#/#'#'#I (#*#_#Y@Z@:#L@<#[#N@N@N@N@}#|#/+O@P@_.1#2#{#{#3#$                   $ % % % % % & * ",
"            4#5#5#5#5#5#5#5#  6#>#/#/#/#,#I (#(#7#Y@Y@8#<#<#[#9#N@N@N@0#D./+P@P@_.~#a#a#2#b#$                   $ % % % % % & * ",
"            4#5#5#5#5#5#5#5#4#c#>#/#/#/#,#I (#(#_#M+D+8#<#<#<#d#N@N@e#f#g#b.|#P@_.~#!@!@h#i#$                   $ % % % % % & * ",
"            j#r 5#5#5#5#5#5#4#k#>#l#m#m#n#o#I %.%.}.}.}.J.[.[.<.:.:.:.U.U.U._._.p#q#!@!@!@r#$                   $ % % % % % & * ",
"              j#r r 5#5#5#5#4#k#>#s#s#s#s#m#t#t#u#v#w#w#x#x#y#z#A#B#B#B#B#B#C#C#q#q#!@!@!@r#$                   $ % % % % % & * ",
"    5#5#4#      j#j#r r r 5#4#D#>#s#s#s#l#E#( < /#/#F#,#D@E@E@F@F@G#H#H#H#H#q#q#q#q#q#I#!@T.$                   $ % % % % % & * ",
"  4#5#5#5#5#4#      j#j#j#r 4#J#>#}+}+}+K#s#s#E#m#m#F#/#D@E@E@E@G#G#H#H#H#j@j@q#q#q#q#q#I#b#$                   $ % % % % % & * ",
"  4#5#5#5#5#5#4#          j#j#L#M#}+}+N#N#s#E#E#m#F#F#X@E@E@E@F@F@G#H#H#H#j@q#q#q#q#q#q#q#b#$                   $ % % % % % & * ",
"  4#5#5#5#5#5#5#4#            O#P#Q#R#S#T#U#V#T#W#W#X#Y#Y#Z#Z#`# $ $.$.$+$@$#$#$#$#$$$%$&$&$$                   $ % % % % % & * ",
"  4#5#5#5#5#5#5#5#5#5#5#4#    *$=$-$;$>$,$'$)$!$~${$]$^$_+]$]$/$/$($($!$_$:$<$[$}$C+|$-@-@1$$                   $ & & & & & & * ",
"  4#5#5#5#5#5#5#5#5#5#5#5#4#  2$3$-$;$,$,$4$5$4$!$/$/$6$]$]$7$/$($($($!$)$8$9$0$}$C+I+a$a$b$$                   $ $ 6+6+6+6+$ * ",
"  4#5#5#5#5#5#5#5#5#5#5#5#5#4#I c$d$d$,$5$4$e$4$!$/$/$/$/$/$/$($($($!$)$f$<$[$g$}$C+h$a$i$j$$                   $ % % % % % & * ",
"  4#5#5#5#5#5#5#5#5#5#5#5#5#4#%.%.%.k$k$k${.{.J.J.[.[.++++++;+;+U.U.U.U.$ $ $ $ $ $ $ $ $ $ $                   $ % % % % % & * ",
"  4#5#5#5#5#5#5#5#5#5#5#5#5#4#                                                                                  $ % % % % % & * ",
"  j#r r r r r r r r r r r r j#                                                                                  $ % % % % % & * ",
"    j#j#j#j#j#j#j#j#j#j#j#j#                                                                                    $ % % % % % & * "};
