/* XPM */
static char * right_xpm[] = {
"64 64 2 1",
" 	c #B41E7C",
".	c #FCC2FC",
"                ................                ................",
"                ................                ................",
"                ................                ................",
"                ................                ................",
"            ................                ................    ",
"            ................                ................    ",
"            ................                ................    ",
"            ................                ................    ",
"        ................                ................        ",
"        ................                ................        ",
"        ................                ................        ",
"        ................                ................        ",
"    ................                ................            ",
"    ................                ................            ",
"    ................                ................            ",
"    ................                ................            ",
"................                ................                ",
"................                ................                ",
"................                ................                ",
"................                ................                ",
"............                ................                ....",
"............                ................                ....",
"............                ................                ....",
"............                ................                ....",
"........                ................                ........",
"........                ................                ........",
"........                ................                ........",
"........                ................                ........",
"....                ................                ............",
"....                ................                ............",
"....                ................                ............",
"....                ................                ............",
"                ................                ................",
"                ................                ................",
"                ................                ................",
"                ................                ................",
"            ................                ................    ",
"            ................                ................    ",
"            ................                ................    ",
"            ................                ................    ",
"        ................                ................        ",
"        ................                ................        ",
"        ................                ................        ",
"        ................                ................        ",
"    ................                ................            ",
"    ................                ................            ",
"    ................                ................            ",
"    ................                ................            ",
"................                ................                ",
"................                ................                ",
"................                ................                ",
"................                ................                ",
"............                ................                ....",
"............                ................                ....",
"............                ................                ....",
"............                ................                ....",
"........                ................                ........",
"........                ................                ........",
"........                ................                ........",
"........                ................                ........",
"....                ................                ............",
"....                ................                ............",
"....                ................                ............",
"....                ................                ............"};
