/* XPM */
static char * score_xpm[] = {
"64 32 2 1",
" 	c #000000",
".	c #FF0000",
"                                                                ",
"                                                                ",
"                ..   ..  ......   ..... ..   ..                 ",
"                ..   ..    ..    ..     ..   ..                 ",
"                ..   ..    ..   ..      ..   ..                 ",
"                .......    ..   ..  ... .......                 ",
"                ..   ..    ..   ..   .. ..   ..                 ",
"                ..   ..    ..    ..  .. ..   ..                 ",
"                ..   ..  ......   ..... ..   ..                 ",
"                                                                ",
"                                                                ",
"             ....     ....   .....  ......  .......             ",
"            ..  ..   ..  .. ..   .. ..   .. ..                  ",
"            ..      ..      ..   .. ..   .. ..                  ",
"             .....  ..      ..   .. ..  ... ......              ",
"                 .. ..      ..   .. .....   ..                  ",
"            ..   ..  ..  .. ..   .. .. ...  ..                  ",
"             .....    ....   .....  ..  ... .......             ",
"                                                                ",
"                                                                ",
"                                                                ",
"                                                                ",
"                                                                ",
"                                                                ",
"                                                                ",
"                                                                ",
"                                                                ",
"                                                                ",
"                                                                ",
"                                                                ",
"                                                                ",
"                                                                "};
