/* XPM */
static char * top_xpm[] = {
"64 64 109 2",
"  	c #5A3B27",
". 	c #665444",
"+ 	c #868579",
"@ 	c #88877B",
"# 	c #563621",
"$ 	c #8B8A7F",
"% 	c #583824",
"& 	c #94928B",
"* 	c #918F88",
"= 	c #929088",
"- 	c #99978F",
"; 	c #706B62",
"> 	c #6F6B61",
", 	c #6F6A61",
"' 	c #6E6A60",
") 	c #6D695F",
"! 	c #6D685F",
"~ 	c #5B4231",
"{ 	c #6C685E",
"] 	c #6C675E",
"^ 	c #6E6960",
"/ 	c #6B675D",
"( 	c #6C665E",
"_ 	c #6B665D",
": 	c #6D6960",
"< 	c #6E6860",
"[ 	c #6C685F",
"} 	c #6D675F",
"| 	c #6B655D",
"1 	c #6A655C",
"2 	c #6A665C",
"3 	c #593D2A",
"4 	c #6A645C",
"5 	c #69645B",
"6 	c #53321E",
"7 	c #69635B",
"8 	c #68625A",
"9 	c #68635A",
"0 	c #676159",
"a 	c #676259",
"b 	c #4F2913",
"c 	c #5C5247",
"d 	c #5E5449",
"e 	c #4F311E",
"f 	c #5C5147",
"g 	c #5D5248",
"h 	c #5D5349",
"i 	c #5D544A",
"j 	c #4F3625",
"k 	c #4F3626",
"l 	c #5D5449",
"m 	c #5A4537",
"n 	c #584132",
"o 	c #5A4739",
"p 	c #584031",
"q 	c #5E5146",
"r 	c #5A4436",
"s 	c #5A4536",
"t 	c #5D4D41",
"u 	c #5F5349",
"v 	c #594335",
"w 	c #594233",
"x 	c #584234",
"y 	c #594334",
"z 	c #543725",
"A 	c #553725",
"B 	c #6C675F",
"C 	c #543624",
"D 	c #563B2B",
"E 	c #573F30",
"F 	c #5D4D42",
"G 	c #5D4E42",
"H 	c #594537",
"I 	c #573D2E",
"J 	c #5C4C40",
"K 	c #5B4A3D",
"L 	c #5B493C",
"M 	c #5B483B",
"N 	c #573C2D",
"O 	c #543523",
"P 	c #553726",
"Q 	c #5B473A",
"R 	c #543625",
"S 	c #69645C",
"T 	c #5C4B40",
"U 	c #665F58",
"V 	c #5C4B3F",
"W 	c #5C4A3E",
"X 	c #5C493D",
"Y 	c #5E4F45",
"Z 	c #655C55",
"` 	c #655D56",
" .	c #5E4F44",
"..	c #5D4E43",
"+.	c #5C4B3E",
"@.	c #5D5044",
"#.	c #5D4F43",
"$.	c #5C4D41",
"%.	c #543623",
"&.	c #563C2C",
"*.	c #553826",
"=.	c #573D2D",
"-.	c #573E2E",
";.	c #563B2A",
">.	c #61564B",
",.	c #767469",
"'.	c #655444",
").	c #86847B",
"!.	c #666057",
"                                                                .                                                               ",
"+ + + + + + + + + + + + + + + + + + + + + + + + + + + + + + @ @ # + + + + + + + + + + + + + + + + + + + + + + + + + + + + + + $ ",
"+ + + + + + + + + + + + + + + + + + + + + + + + + + + + + + + @ % + + + + + + + + + + + + + + + + + + + + + + + + + + + + + + $ ",
"+ + + + + + + + + + + + + + + + + + + + + + + + + + + + + + + + . + + + + + + + + + + + + + + + + + + + + + + + + + + + + + + $ ",
"& & & & & & & & & & & & & & & & & & & & * * * * * * * = & - - - . & - - - & & & & & & & & & & & & & & & & & & & & & & & & - - - ",
"; ; ; ; ; ; ; ; > > , ' ' ' ) ) ) ) ) ! ! ! ! ! ! ! ) ) ) ) ) ! ~ ! ! ! { ! ! ! ! ! ] { { { { ) ) ) ) ) ! ! ! ! { { { ! ! ! ! ! ",
"> > > > > > , , , , ' ^ ^ ) ! ! ! ! ! ! ! ! ! ! ! ! ! ! ! ) ! ! ~ ! ! { { { ! ! ! { ] ] ] ] ] ! ! ! ! ! ! ! ! ! { { { { { { { { ",
", , , ' ' ' ^ ^ ^ ^ ^ ) ) ) ! ! ! ! ! ! ! ! ! ! { { { { { { ] ] ~ ! { { ] ] { { { ] ] ] ] ] ] ! ! ! ! ! ! ! ! ! ] ] ] ] ] ] / / ",
"' ' ^ ^ ^ ^ ^ ^ ^ ^ ^ ) ) ! ! ! { { { { { { { { { { { ] ] ] ] ] ~ ] ] ] ] ] / / ] ] ] ] ] ( _ ! ! { { { { { { { _ _ _ _ _ _ _ _ ",
"^ ^ ^ ^ ^ : < < [ [ { { { ] ] ] ] ] ] ] ] ] ] ] ] ] ] / / / / / ~ _ _ _ _ _ _ _ _ _ _ _ _ _ _ ] ] ] ] ] ] ] ] ] _ _ _ _ _ _ _ _ ",
"! ! ! } } ] ] ] { { { ] ] ] / / _ _ _ _ _ _ _ _ _ _ _ _ _ _ _ _ ~ _ _ _ _ _ | | 1 1 1 1 2 2 2 / / _ _ _ _ _ _ _ 1 | | | | | | | ",
"( ( ( ( ( ( _ _ _ _ _ _ _ 1 1 1 1 1 1 1 1 1 1 1 1 1 1 1 | | | | 3 | | 1 4 4 4 4 4 4 4 4 1 1 1 1 1 1 1 1 1 1 1 1 5 5 5 5 5 5 1 1 ",
"4 4 4 1 1 1 1 1 1 1 1 1 1 1 1 1 1 1 1 1 1 1 1 1 1 1 1 1 1 1 4 1 6 5 5 5 5 5 5 5 5 5 5 5 5 5 5 1 1 1 1 1 1 1 1 1 5 5 5 5 5 5 1 5 ",
"5 5 5 5 5 5 5 5 5 5 5 5 5 5 5 5 5 5 4 5 5 5 5 5 5 5 5 5 5 5 5 5 6 7 7 7 7 7 7 5 5 5 5 5 5 5 5 5 5 5 5 4 5 5 5 5 5 7 5 5 5 5 5 7 ",
"8 8 8 8 8 9 7 7 7 7 7 7 7 7 7 7 7 7 7 7 7 7 7 7 7 7 7 7 7 7 9 9 6 9 9 9 9 9 9 9 9 9 9 9 9 9 7 7 7 7 7 7 7 7 7 7 7 7 7 7 7 7 7 7 ",
"0 0 a 0 0 a a a a a a a a 0 a a a a a a a a a 8 a 8 8 8 9 9 9 8 6 8 8 8 8 8 8 8 8 8 9 9 8 9 9 a a a a a a a a a 9 9 9 9 9 7 7 7 ",
"0 0 0 0 0 0 0 0 0 0 0 0 0 0 0 0 0 0 0 0 0 0 0 0 0 0 0 0 0 0 0 0 6 0 0 0 0 0 0 0 0 0 0 0 0 0 0 0 0 0 0 0 0 0 0 0 a a a a a a 8 a ",
"0 0 0 0 0 0 0 0 0 0 0 0 0 0 0 0 0 0 0 0 0 0 0 0 0 0 0 0 0 0 0 0 b 0 0 0 0 0 0 0 0 0 0 0 0 0 0 0 0 0 0 0 0 0 0 0 0 0 0 0 0 0 0 0 ",
"b b b b b b b b b b b b b b b b b b b b b b b b b b b b b b b b c b b b b b b b b b b b b b b b b b b b b b b b b b b b b b b b ",
"c c c c d c c e c c c c c c c c c c c c c c c c c c c c c c c c c c c c c c c e f f c g g g g g g g g g g g g g g g g g g g g g ",
"c c c c c c c e h c c c c c c c c c c c c c c c c c c c c c c c c c c c c c c e c c g g g g g g g g g g g g g g g g g g g g g g ",
"c c c c c i c j h c c c c c c c c c c c c c c c c c c c c c c c c c c c c c c e c c g g g g g g g g g g g g g g g g g g g g g g ",
"c c c c c i c j c c c c c c c c c c c c c c c c c c c c c c c c c c c c c c c e c c c g g g g g g g g g g g g g g g g g g g g g ",
"c c c c c i i k h c c c c c c c c c c c c c c c c c c c c c c c c c c c c c c e c c c g g g g g g g g g g g g g g g g g g g g g ",
"c c c c c i i k h c c c c c c c c c c c c c c c c c c c c c c c c c c c c c c e f f c g g g g g g g g g g g g g g g g g g g l g ",
"0 0 0 0 0 0 0 m 0 0 0 0 0 0 0 0 0 0 0 0 0 0 0 0 0 0 0 0 0 0 0 0 0 0 0 0 0 0 0 n 0 0 0 0 0 0 0 0 0 0 0 0 0 0 0 0 0 0 0 0 0 0 0 0 ",
"0 0 0 0 0 0 0 o 0 0 0 0 0 0 0 0 0 0 0 0 0 0 0 0 0 0 0 0 0 0 0 0 0 0 0 0 0 0 0 p 0 0 0 0 0 0 0 0 0 0 0 0 0 0 0 0 0 0 0 0 0 0 0 0 ",
"q q q q r s s s s q q q q q q q q q q q q t t t q q q u u u u u u u u u u v v w x y u u u u u u u u u n n z A n n n n u u u u u ",
"! ! ! ! ! ! ! ! ! ! ! ! ! ! ! ! ! ! ! ! ! ! t B B B B B B B B B B B B B B B B B B B B B B B B B B B B B B B C B B B B B B B B B ",
"0 0 0 0 0 0 0 0 0 0 0 0 0 0 0 0 0 0 0 0 0 0 t 0 0 0 0 0 0 0 0 0 0 0 0 0 0 0 0 0 0 0 0 0 0 0 0 0 0 0 0 0 0 0 D 0 0 0 0 0 0 0 0 0 ",
"0 0 0 0 0 0 0 0 0 0 0 0 0 0 0 0 0 0 0 0 0 0 t 0 0 0 0 0 0 0 0 0 0 0 0 0 0 0 0 0 0 0 0 0 0 0 0 0 0 0 0 0 0 0 n 0 0 0 0 0 0 0 0 0 ",
"0 0 0 0 0 0 0 0 0 0 0 0 0 0 0 0 0 0 0 0 0 0 t 0 0 0 0 0 0 0 0 0 0 0 0 0 0 0 0 0 0 0 0 0 0 0 0 0 0 0 0 0 0 0 u 0 0 0 0 0 0 0 0 0 ",
"0 0 0 0 0 0 0 0 0 0 0 0 0 0 0 0 0 0 0 0 0 0 t 0 0 0 0 0 0 0 0 0 0 0 0 0 0 0 0 0 0 0 0 0 0 0 0 0 0 0 0 0 0 0 u 0 0 0 0 0 0 0 0 0 ",
"0 0 0 0 0 0 0 0 0 0 0 0 0 0 0 0 0 0 0 0 0 0 t 0 0 0 0 0 0 0 0 0 0 0 0 0 0 0 0 0 0 0 0 0 0 0 0 0 0 0 0 0 0 0 u 0 0 0 0 0 0 0 0 0 ",
"0 0 0 0 0 0 0 0 0 0 0 0 0 0 0 0 0 0 0 0 0 0 n 0 0 0 0 0 0 0 0 0 0 0 0 0 0 0 0 0 0 0 0 0 0 0 0 0 0 0 0 0 0 0 u 0 0 0 0 0 0 0 0 0 ",
"0 0 0 0 0 0 0 0 0 0 0 0 0 0 0 0 0 0 0 0 0 0 E 0 0 0 0 0 0 0 0 0 0 0 0 0 0 0 0 0 0 0 0 0 0 0 0 0 0 0 0 0 0 0 u 0 0 0 0 0 0 0 0 0 ",
"F F F G G G H I D D D J K L L M M M M N N C O P N u u u u u u u u u u u o M L F L L Q u u u u u u u u u u u u u u u u u u u u u ",
"] ] B B B B B B R B B B B B S S S S S S S S S S S S S S S S S S [ [ [ [ [ B ] T B B B B B B B B B B B B B B B B B B B B B B B B ",
"U U U U U U U U R U U U U U U U U U U U U U U U U U U U U U U U U U U U U U U V U U U U U U U U U U U U U U U U U U U U U U U U ",
"U U U U U U U U W U U U U U U U U U U U U U U U U U U U U U U U U U U U U U U X U U U U U U U U U U U U U U U U U U U U U U U U ",
"U U U U U U U U u U U U U U U U U U U U U U U U U U U U U U U U U U U U U U U Y Z U U U U U U U U U U U U U U U U U U U U U U U ",
"U U U U U U U U u U U U U U U U U U U U U U U U U U U U U U U U U U U U U U U Y ` U U U U U U U U U U U U U U U U U U U U U U U ",
"U U U U U U U U u U U U U U U U U U U U U U U U U U U U U U U U U U U U U U U  .U U U U U U U U U U U U U U U U U U U U U U U U ",
"U U U U U U U U u U U U U U U U U U U U U U U U U U U U U U U U U U U U U U U O U U U U U U U U U U U U U U U U U U U U U U U U ",
"U U U U U U U U u U U U U U U U U U U ` U U U U U U U U U U U U U U U U U U U O U U U U U U U U U U U U U U U U U U U U U U U U ",
"G ..u u u u u u u u u u u u u u u u u +.+.L +.+.@.@.@.@.#...G G G G G F O O O O O O $.$.$.$.$.$.$.$.F u n n %.&.n u u u u u u u ",
"B B B B B B B B B B B B B B B B B B B B B B +.B B B B B B B B B B B B B B B B B B B B B B B B B B B B B B B *.B B B B B B B B B ",
"U U U U U U U U U U U U U U U U U U U U U U +.U U U U U U U U U U U U U U U U U U U U U U U U U U U U U U U =.U U U U U U U U U ",
"U U U U U U U U U U U U U U U U U U U U U U +.U U U U U U U U U U U U U U U U U U U U U U U U U U U U U U U u U U U U U U U U U ",
"U U U U U U U U U U U U U U U U U U U U U U q U U U U U U U U U U U U U U U U U U U U U U U U U U U U U U U u U U U U U U U U U ",
"U U U U U U U U U U U U U U U U U U U U U U u U U U U U U U U U U U U U U U U U U U U U U U U U U U U U U U u U U U U U U U U U ",
"U U U U U U U U U U U U U U U U U U U U U U n U U U U U U U U U U U U U U U U U U U U U U U U U U U U U U U u U U U U U U U U U ",
"U U U U U U U U U U U U U U U U U U U U U U =.U U U U U U U U U U U U U U U U U U U U U U U U U U U U U U U n U U U U U U U U U ",
"U U U U U U U U U U U U U U U U U U U U U U -.U U U U U U U U U U U U U U U U U U U U U U U U U U U U U U U ;.U U U U U U U U U ",
">.b b b b b b b b b b b b b b b b b b b b b b b b b b b b b b b >.b b b b b b b b b b b b b b b b b b b b b b b b b b b b b b b ",
"b ,.,.,.,.,.,.,.,.,.,.,.,.,.,.,.,.,.,.,.,.,.,.,.,.,.,.,.,.,.,.,.b ,.,.,.,.,.,.,.,.,.,.,.,.,.,.,.,.,.,.,.,.,.,.,.,.,.,.,.,.,.,.,.",
"'.,.,.,.,.,.,.,.,.,.,.,.,.,.,.,.,.,.,.,.,.,.,.,.,.,.,.,.,.,.,.,.'.,.,.,.,.,.,.,.,.,.,.,.,.,.,.,.,.,.,.,.,.,.,.,.,.,.,.,.,.,.,.,.",
"'.,.,.,.,.,.,.,.,.,.,.,.,.,.,.,.,.,.,.,.,.,.,.,.,.,.,.,.,.,.,.,.'.,.,.,.,.,.,.,.,.,.,.,.,.,.,.,.,.,.,.,.,.,.,.,.,.,.,.,.,.,.,.,.",
"'.,.,.,.,.,.,.,.,.,.,.,.,.,.,.,.,.,.,.,.,.,.,.,.,.,.,.,.,.,.,.,.'.,.,.,.,.,.,.,.,.,.,.,.,.,.,.,.,.,.,.,.,.,.,.,.,.,.,.,.,.,.,.,.",
"'.).).).).).).).).).).).).).).).).).).).).).).).).).).).).).).).'.).).).).).).).).).).).).).).).).).).).).).).).).).).).).).).).",
"'.!.!.!.!.!.!.!.!.!.!.!.!.!.!.!.!.!.!.!.!.!.!.!.!.!.!.!.!.!.!.!.'.!.!.!.!.!.!.!.!.!.!.!.!.!.!.!.!.!.!.!.!.!.!.!.!.!.!.!.!.!.!.!.",
"'.!.!.!.!.!.!.!.!.!.!.!.!.!.!.!.!.!.!.!.!.!.!.!.!.!.!.!.!.!.!.!.'.!.!.!.!.!.!.!.!.!.!.!.!.!.!.!.!.!.!.!.!.!.!.!.!.!.!.!.!.!.!.!.",
"b !.!.!.!.!.!.!.!.!.!.!.!.!.!.!.!.!.!.!.!.!.!.!.!.!.!.!.!.!.!.!.b !.!.!.!.!.!.!.!.!.!.!.!.!.!.!.!.!.!.!.!.!.!.!.!.!.!.!.!.!.!.!.",
"b b b b b b b b b b b b b b b b b b b b b b b b b b b b b b b b b b b b b b b b b b b b b b b b b b b b b b b b b b b b b b b b "};
