/* XPM */
static char * top_left_xpm[] = {
"64 64 4 1",
" 	c #B41E7C",
".	c #FCC2FC",
"+	c #000000",
"@	c #800987",
"                ................                ................",
"                ................                ................",
"                ................                ................",
"                ................                ................",
"            ................                ................    ",
"            ................                ................    ",
"            ................                ................    ",
"            ................                ................    ",
"        ................                ........++++++++++++++++",
"        ................                ........++++++++++++++++",
"        ................                ........++++++++++++++++",
"        ................                ........++++++++++++++++",
"    ................                ............++++++++++++++++",
"    ................                ............++++++++++++++++",
"    ................                ............++++++++++++++++",
"    ................                ............++++++++++++++++",
"................                ................++++++++++++++++",
"................                ................++++++++++++++++",
"................                ................++++++++++++++++",
"................                ................++++++++++++++++",
"............                ................    ++++++++++++++++",
"............                ................    ++++++++++++++++",
"............                ................    ++++++++++++++++",
"............                ................    ++++++++++++++++",
"........                ................        ++++++++++++++++",
"........                ................        ++++++++++++++++",
"........                ................        ++++++++++++++++",
"........                ................        ++++++++++++++++",
"....                ................            ++++++++++++++++",
"....                ................            ++++++++++++++++",
"....                ................            ++++++++++++++++",
"....                ................            ++++++++++++++++",
"                ................                ++++++++++++++++",
"                ................                ++++++++++++++++",
"                ................                ++++++++++++++++",
"                ................                ++++++++++++++++",
"            ................                ....++++++++++++++++",
"            ................                ....++++++++++++++++",
"            ................                ....++++++++++++++++",
"            ................                ....++++++++++++++++",
"        ................                ................        ",
"        ................                ................        ",
"        ................                ................        ",
"        ................                ................        ",
"    ................                ................            ",
"    ................                ................            ",
"    ................                ................            ",
"    ................                ................            ",
"................                ................@@@@@@@@@@@@@@@@",
"................                ................@@@@@@@@@@@@@@@@",
"................                ................@@@@@@@@@@@@@@@@",
"................                ................@@@@@@@@@@@@@@@@",
"............                ................    @@@@@@@@@@@@@@@@",
"............                ................    @@@@@@@@@@@@@@@@",
"............                ................    @@@@@@@@@@@@@@@@",
"............                ................    @@@@@@@@@@@@@@@@",
"........                ................        @@@@@@@@@@@@@@@@",
"........                ................        @@@@@@@@@@@@@@@@",
"........                ................        @@@@@@@@@@@@@@@@",
"........                ................        @@@@@@@@@@@@@@@@",
"....                ................            @@@@@@@@@@@@@@@@",
"....                ................            @@@@@@@@@@@@@@@@",
"....                ................            @@@@@@@@@@@@@@@@",
"....                ................            @@@@@@@@@@@@@@@@"};
